<?xml version="1.0" encoding="UTF-8" standalone="no"?>
<svg width="7px" height="7px" viewBox="0 0 7 7" version="1.1" xmlns="http://www.w3.org/2000/svg" xmlns:xlink="http://www.w3.org/1999/xlink">
    <!-- Generator: sketchtool 40 (33762) - http://www.bohemiancoding.com/sketch -->
    <title>ED5804C2-DC6E-42D2-BA23-6D48F3D708C9</title>
    <desc>Created with sketchtool.</desc>
    <defs></defs>
    <g id="Page-1" stroke="none" stroke-width="1" fill="none" fill-rule="evenodd">
        <g id="UI-KIT-—-03-Icons" transform="translate(-751.000000, -173.000000)" fill="#315EFB">
            <g id="MISC" transform="translate(70.000000, 38.000000)">
                <g id="X" transform="translate(588.000000, 100.000000)">
                    <path d="M97,38 L97,34.5096658 C97,34.2224731 96.7761424,34 96.5,34 C96.2319336,34 96,34.2281852 96,34.5096658 L96,38 L92.5096658,38 C92.2224731,38 92,38.2238576 92,38.5 C92,38.7680664 92.2281852,39 92.5096658,39 L96,39 L96,42.4903342 C96,42.7775269 96.2238576,43 96.5,43 C96.7680664,43 97,42.7718148 97,42.4903342 L97,39 L100.490334,39 C100.777527,39 101,38.7761424 101,38.5 C101,38.2319336 100.771815,38 100.490334,38 L97,38 Z" id="icon" transform="translate(96.500000, 38.500000) rotate(45.000000) translate(-96.500000, -38.500000) "></path>
                </g>
            </g>
        </g>
    </g>
</svg>