<?xml version="1.0" encoding="UTF-8"?>
<svg width="14px" height="17px" viewBox="0 0 14 17" version="1.1" xmlns="http://www.w3.org/2000/svg" xmlns:xlink="http://www.w3.org/1999/xlink">
    <!-- Generator: Sketch 41.2 (35397) - http://www.bohemiancoding.com/sketch -->
    <title>03 Icon</title>
    <desc>Created with Sketch.</desc>
    <defs>
        <path d="M14,17 C14,12.581722 10.8659932,9 7,9 C3.13400675,9 0,12.581722 0,17 C0.017158866,17 13.8892513,17 14,17 Z M7,8 C9.209139,8 11,6.209139 11,4 C11,1.790861 9.209139,0 7,0 C4.790861,0 3,1.790861 3,4 C3,6.209139 4.790861,8 7,8 Z" id="path-1"></path>
        <mask id="mask-2" maskContentUnits="userSpaceOnUse" maskUnits="objectBoundingBox" x="0" y="0" width="14" height="17" fill="white">
            <use xlink:href="#path-1"></use>
        </mask>
    </defs>
    <g id="Страница-вопроса" stroke="none" stroke-width="1" fill="none" fill-rule="evenodd">
        <g id="EDU-551-Страница-вопроса-MVP" transform="translate(-705.000000, -108.000000)" stroke-width="4" stroke="#315EFB" fill="#FFFFFF">
            <g id="HEADER">
                <g id="SUB-NAVI" transform="translate(0.000000, 89.000000)">
                    <g id="Links" transform="translate(339.000000, 15.000000)">
                        <g id="03" transform="translate(366.000000, 4.000000)">
                            <use id="03-Icon" mask="url(#mask-2)" xlink:href="#path-1"></use>
                        </g>
                    </g>
                </g>
            </g>
        </g>
    </g>
</svg>