<?xml version="1.0" encoding="UTF-8"?>
<svg width="18px" height="14px" viewBox="0 0 18 14" version="1.1" xmlns="http://www.w3.org/2000/svg" xmlns:xlink="http://www.w3.org/1999/xlink">
    <!-- Generator: Sketch 41.2 (35397) - http://www.bohemiancoding.com/sketch -->
    <title>04 Icon</title>
    <desc>Created with Sketch.</desc>
    <defs>
        <path d="M6,13 L18,13 L18,15 L6,15 L6,13 Z M6,8 L18,8 L18,10 L6,10 L6,8 Z M6,3 L18,3 L18,5 L6,5 L6,3 Z M2,16 C3.1045695,16 4,15.1045695 4,14 C4,12.8954305 3.1045695,12 2,12 C0.8954305,12 0,12.8954305 0,14 C0,15.1045695 0.8954305,16 2,16 Z M2,11 C3.1045695,11 4,10.1045695 4,9 C4,7.8954305 3.1045695,7 2,7 C0.8954305,7 0,7.8954305 0,9 C0,10.1045695 0.8954305,11 2,11 Z M2,6 C3.1045695,6 4,5.1045695 4,4 C4,2.8954305 3.1045695,2 2,2 C0.8954305,2 0,2.8954305 0,4 C0,5.1045695 0.8954305,6 2,6 Z" id="path-1"></path>
        <mask id="mask-2" maskContentUnits="userSpaceOnUse" maskUnits="objectBoundingBox" x="0" y="0" width="18" height="14" fill="white">
            <use xlink:href="#path-1"></use>
        </mask>
    </defs>
    <g id="Страница-вопроса" stroke="none" stroke-width="1" fill="none" fill-rule="evenodd">
        <g id="EDU-551-Страница-вопроса-MVP" transform="translate(-857.000000, -110.000000)" stroke-width="2" stroke="#315EFB" fill="#315EFB">
            <g id="HEADER">
                <g id="SUB-NAVI" transform="translate(0.000000, 89.000000)">
                    <g id="Links" transform="translate(339.000000, 15.000000)">
                        <g id="04" transform="translate(518.000000, 4.000000)">
                            <use id="04-Icon" mask="url(#mask-2)" xlink:href="#path-1"></use>
                        </g>
                    </g>
                </g>
            </g>
        </g>
    </g>
</svg>