<?xml version="1.0" encoding="UTF-8" standalone="no"?>
<svg width="39px" height="33px" viewBox="0 0 39 33" version="1.1" xmlns="http://www.w3.org/2000/svg" xmlns:xlink="http://www.w3.org/1999/xlink">
    <!-- Generator: Sketch 39.1 (31720) - http://www.bohemiancoding.com/sketch -->
    <title>white 10</title>
    <desc>Created with Sketch.</desc>
    <defs></defs>
    <g id="CLASS" stroke="none" stroke-width="1" fill="none" fill-rule="evenodd">
        <g id="TABLE" transform="translate(-36.000000, -431.000000)" fill="#FFFFFF">
            <g id="TABLE---Classes" transform="translate(20.000000, 20.000000)">
                <g id="GRID" transform="translate(0.000000, 55.000000)">
                    <g id="00" transform="translate(13.000000, 13.000000)">
                        <path d="M14.9101563,375 L12.3320313,375 L12.3320313,346.8125 L3.82421875,349.970703 L3.82421875,347.564453 L14.4804688,343.611328 L14.9101563,343.611328 L14.9101563,375 Z M41.7914057,361.958984 C41.7914057,366.370465 40.982169,369.718413 39.3636713,372.00293 C37.7451736,374.287446 35.3604318,375.429688 32.2093744,375.429688 C29.115609,375.429688 26.74519,374.30893 25.0980463,372.067383 C23.4509027,369.825835 22.605859,366.563823 22.5628901,362.28125 L22.5628901,356.673828 C22.5628901,352.276671 23.3792881,348.946626 25.0121088,346.683594 C26.6449295,344.420562 29.0296712,343.289062 32.1664057,343.289062 C35.2601711,343.289062 37.6234288,344.381174 39.2562494,346.56543 C40.8890701,348.749685 41.7341137,351.968729 41.7914057,356.222656 L41.7914057,361.958984 Z M39.2132807,356.351562 C39.2132807,352.770815 38.6296277,350.063811 37.4623041,348.230469 C36.2949806,346.397126 34.5296987,345.480469 32.1664057,345.480469 C29.8460816,345.480469 28.0987032,346.375642 26.9242182,348.166016 C25.7497331,349.956389 25.1481767,352.598941 25.1195307,356.09375 L25.1195307,362.238281 C25.1195307,365.804705 25.7246679,368.533194 26.9349604,370.423828 C28.1452529,372.314463 29.9033733,373.259766 32.2093744,373.259766 C34.5010526,373.259766 36.2376888,372.335947 37.4193354,370.488281 C38.6009819,368.640616 39.1989577,365.933612 39.2132807,362.367188 L39.2132807,356.351562 Z" id="white-10"></path>
                    </g>
                </g>
            </g>
        </g>
    </g>
</svg>