<?xml version="1.0" encoding="UTF-8" standalone="no"?>
<svg width="21px" height="32px" viewBox="0 0 21 32" version="1.1" xmlns="http://www.w3.org/2000/svg" xmlns:xlink="http://www.w3.org/1999/xlink">
    <!-- Generator: Sketch 39.1 (31720) - http://www.bohemiancoding.com/sketch -->
    <title>white 2</title>
    <desc>Created with Sketch.</desc>
    <defs></defs>
    <g id="CLASS" stroke="none" stroke-width="1" fill="none" fill-rule="evenodd">
        <g id="TABLE" transform="translate(-237.000000, -98.000000)" fill="#FFFFFF">
            <g id="TABLE---Classes" transform="translate(20.000000, 20.000000)">
                <g id="GRID" transform="translate(0.000000, 55.000000)">
                    <g id="00" transform="translate(13.000000, 13.000000)">
                        <path d="M224.537109,41.88 L204.943359,41.88 L204.943359,39.9034375 L215.664062,27.7432813 C217.440113,25.6950939 218.671872,24.0050067 219.359375,22.6729688 C220.046878,21.3409308 220.390625,20.0447198 220.390625,18.7842969 C220.390625,16.8077245 219.810553,15.2429615 218.650391,14.0899609 C217.490229,12.9369604 215.893239,12.3604688 213.859375,12.3604688 C211.753896,12.3604688 210.053066,13.0336391 208.756836,14.38 C207.460605,15.7263609 206.8125,17.4737393 206.8125,19.6221875 L204.255859,19.6221875 C204.255859,17.8604599 204.653316,16.2563093 205.448242,14.8096875 C206.243168,13.3630657 207.374667,12.2279859 208.842773,11.4044141 C210.31088,10.5808422 211.983064,10.1690625 213.859375,10.1690625 C216.723973,10.1690625 218.961906,10.9210081 220.573242,12.4249219 C222.184578,13.9288356 222.990234,15.9769922 222.990234,18.5694531 C222.990234,20.0303979 222.535486,21.6273872 221.625977,23.3604688 C220.716467,25.0935503 219.115897,27.2562891 216.824219,29.84875 L208.101562,39.7100781 L224.537109,39.7100781 L224.537109,41.88 Z" id="white-2"></path>
                    </g>
                </g>
            </g>
        </g>
    </g>
</svg>