<?xml version="1.0" encoding="UTF-8" standalone="no"?>
<svg width="20px" height="33px" viewBox="0 0 20 33" version="1.1" xmlns="http://www.w3.org/2000/svg" xmlns:xlink="http://www.w3.org/1999/xlink">
    <!-- Generator: Sketch 39.1 (31720) - http://www.bohemiancoding.com/sketch -->
    <title>3</title>
    <desc>Created with Sketch.</desc>
    <defs></defs>
    <g id="CLASS" stroke="none" stroke-width="1" fill="none" fill-rule="evenodd">
        <g id="TABLE" transform="translate(-434.000000, -98.000000)" fill="#9B9B9B">
            <g id="TABLE---Classes" transform="translate(20.000000, 20.000000)">
                <g id="GRID" transform="translate(0.000000, 55.000000)">
                    <g id="00" transform="translate(13.000000, 13.000000)">
                        <path d="M407.658203,24.9628906 L410.322266,24.9628906 C411.797533,24.9628906 413.086583,24.7015 414.189453,24.1787109 C415.292323,23.6559219 416.133786,22.9397832 416.713867,22.0302734 C417.293948,21.1207637 417.583984,20.0716205 417.583984,18.8828125 C417.583984,16.8775941 417.018235,15.3092504 415.886719,14.1777344 C414.755203,13.0462183 413.129568,12.4804688 411.009766,12.4804688 C409.004547,12.4804688 407.361009,13.0712832 406.079102,14.2529297 C404.797194,15.4345762 404.15625,16.9921778 404.15625,18.9257812 L401.578125,18.9257812 C401.578125,17.3072836 401.986324,15.8284572 402.802734,14.4892578 C403.619145,13.1500584 404.750644,12.115238 406.197266,11.3847656 C407.643887,10.6542932 409.248038,10.2890625 411.009766,10.2890625 C413.845717,10.2890625 416.08007,11.0624923 417.712891,12.609375 C419.345711,14.1562577 420.162109,16.2760282 420.162109,18.96875 C420.162109,20.4726638 419.685877,21.8583921 418.733398,23.1259766 C417.78092,24.393561 416.473967,25.3424448 414.8125,25.9726562 C416.760426,26.5169298 418.235672,27.4514908 419.238281,28.7763672 C420.24089,30.1012436 420.742188,31.6803294 420.742188,33.5136719 C420.742188,36.1920707 419.868498,38.3476481 418.121094,39.9804688 C416.373689,41.6132894 414.039077,42.4296875 411.117188,42.4296875 C409.255199,42.4296875 407.547208,42.0572954 405.993164,41.3125 C404.43912,40.5677046 403.236007,39.5257228 402.383789,38.1865234 C401.531571,36.847324 401.105469,35.2897224 401.105469,33.5136719 L403.683594,33.5136719 C403.683594,35.5045672 404.378248,37.1266213 405.767578,38.3798828 C407.156908,39.6331443 408.940093,40.2597656 411.117188,40.2597656 C413.337251,40.2597656 415.066726,39.6904354 416.305664,38.5517578 C417.544603,37.4130802 418.164062,35.7623806 418.164062,33.5996094 C418.164062,31.5084531 417.494473,29.9114638 416.155273,28.8085938 C414.816074,27.7057237 412.843112,27.1542969 410.236328,27.1542969 L407.658203,27.1542969 L407.658203,24.9628906 Z" id="3"></path>
                    </g>
                </g>
            </g>
        </g>
    </g>
</svg>