<?xml version="1.0" encoding="UTF-8" standalone="no"?>
<svg width="20px" height="33px" viewBox="0 0 20 33" version="1.1" xmlns="http://www.w3.org/2000/svg" xmlns:xlink="http://www.w3.org/1999/xlink">
    <!-- Generator: Sketch 39.1 (31720) - http://www.bohemiancoding.com/sketch -->
    <title>white 5</title>
    <desc>Created with Sketch.</desc>
    <defs></defs>
    <g id="CLASS" stroke="none" stroke-width="1" fill="none" fill-rule="evenodd">
        <g id="TABLE" transform="translate(-238.000000, -209.000000)" fill="#FFFFFF">
            <g id="TABLE---Classes" transform="translate(20.000000, 20.000000)">
                <g id="GRID" transform="translate(0.000000, 55.000000)">
                    <g id="00" transform="translate(13.000000, 13.000000)">
                        <path d="M206.683594,136.852656 L208.208984,121.59875 L223.849609,121.59875 L223.849609,123.983516 L210.421875,123.983516 L209.326172,134.553828 C211.001962,133.407989 212.964181,132.835078 215.212891,132.835078 C218.034519,132.835078 220.283195,133.751736 221.958984,135.585078 C223.634774,137.418421 224.472656,139.860453 224.472656,142.91125 C224.472656,146.205537 223.656258,148.762152 222.023438,150.581172 C220.390617,152.400191 218.091812,153.309688 215.126953,153.309688 C212.405585,153.309688 210.199878,152.550581 208.509766,151.032344 C206.819653,149.514107 205.852866,147.387175 205.609375,144.651484 L208.080078,144.651484 C208.323569,146.78561 209.046869,148.400502 210.25,149.496211 C211.453131,150.59192 213.078766,151.139766 215.126953,151.139766 C217.361339,151.139766 219.047846,150.430788 220.186523,149.012813 C221.325201,147.594837 221.894531,145.575326 221.894531,142.954219 C221.894531,140.662541 221.257168,138.793419 219.982422,137.346797 C218.707676,135.900175 216.967459,135.176875 214.761719,135.176875 C213.544265,135.176875 212.48438,135.330845 211.582031,135.638789 C210.679683,135.946733 209.727219,136.544709 208.724609,137.432734 L206.683594,136.852656 Z" id="white-5"></path>
                    </g>
                </g>
            </g>
        </g>
    </g>
</svg>