<?xml version="1.0" encoding="UTF-8" standalone="no"?>
<svg width="21px" height="33px" viewBox="0 0 21 33" version="1.1" xmlns="http://www.w3.org/2000/svg" xmlns:xlink="http://www.w3.org/1999/xlink">
    <!-- Generator: Sketch 39.1 (31720) - http://www.bohemiancoding.com/sketch -->
    <title>6</title>
    <desc>Created with Sketch.</desc>
    <defs></defs>
    <g id="CLASS" stroke="none" stroke-width="1" fill="none" fill-rule="evenodd">
        <g id="TABLE" transform="translate(-434.000000, -209.000000)" fill="#9B9B9B">
            <g id="TABLE---Classes" transform="translate(20.000000, 20.000000)">
                <g id="GRID" transform="translate(0.000000, 55.000000)">
                    <g id="00" transform="translate(13.000000, 13.000000)">
                        <path d="M417.111328,121.482422 L417.111328,123.738281 L416.810547,123.738281 C413.072247,123.738281 410.128917,124.837554 407.980469,127.036133 C405.832021,129.234712 404.64323,132.289043 404.414062,136.199219 C405.273442,135.010411 406.369134,134.090173 407.701172,133.438477 C409.03321,132.786781 410.522778,132.460938 412.169922,132.460938 C414.919936,132.460938 417.107739,133.409821 418.733398,135.307617 C420.359058,137.205413 421.171875,139.686834 421.171875,142.751953 C421.171875,144.785817 420.792322,146.619132 420.033203,148.251953 C419.274085,149.884774 418.185554,151.15592 416.767578,152.06543 C415.349602,152.974939 413.731129,153.429688 411.912109,153.429688 C408.918605,153.429688 406.483733,152.344737 404.607422,150.174805 C402.73111,148.004872 401.792969,145.201189 401.792969,141.763672 L401.792969,139.185547 C401.792969,133.585258 403.067696,129.249039 405.617188,126.176758 C408.166679,123.104477 411.78318,121.539714 416.466797,121.482422 L417.111328,121.482422 Z M411.761719,134.673828 C410.128898,134.673828 408.607103,135.157222 407.196289,136.124023 C405.785475,137.090825 404.843752,138.319003 404.371094,139.808594 L404.371094,142 C404.371094,144.721368 405.069329,146.941398 406.46582,148.660156 C407.862312,150.378915 409.677723,151.238281 411.912109,151.238281 C413.917328,151.238281 415.539382,150.443367 416.77832,148.853516 C418.017259,147.263664 418.636719,145.258476 418.636719,142.837891 C418.636719,140.374337 418.017259,138.397794 416.77832,136.908203 C415.539382,135.418612 413.867198,134.673828 411.761719,134.673828 L411.761719,134.673828 Z" id="6"></path>
                    </g>
                </g>
            </g>
        </g>
    </g>
</svg>