<?xml version="1.0" encoding="UTF-8" standalone="no"?>
<svg width="21px" height="33px" viewBox="0 0 21 33" version="1.1" xmlns="http://www.w3.org/2000/svg" xmlns:xlink="http://www.w3.org/1999/xlink">
    <!-- Generator: Sketch 39.1 (31720) - http://www.bohemiancoding.com/sketch -->
    <title>8</title>
    <desc>Created with Sketch.</desc>
    <defs></defs>
    <g id="CLASS" stroke="none" stroke-width="1" fill="none" fill-rule="evenodd">
        <g id="TABLE" transform="translate(-237.000000, -320.000000)" fill="#9B9B9B">
            <g id="TABLE---Classes" transform="translate(20.000000, 20.000000)">
                <g id="GRID" transform="translate(0.000000, 55.000000)">
                    <g id="00" transform="translate(13.000000, 13.000000)">
                        <path d="M223.376953,240.775391 C223.376953,242.393888 222.904302,243.844069 221.958984,245.125977 C221.013667,246.407884 219.767586,247.349606 218.220703,247.951172 C220.0254,248.56706 221.472,249.562493 222.560547,250.9375 C223.649094,252.312507 224.193359,253.902335 224.193359,255.707031 C224.193359,258.38543 223.283863,260.508781 221.464844,262.077148 C219.645824,263.645516 217.239598,264.429688 214.246094,264.429688 C211.223943,264.429688 208.806975,263.649096 206.995117,262.087891 C205.183259,260.526685 204.277344,258.399753 204.277344,255.707031 C204.277344,253.930981 204.800125,252.348314 205.845703,250.958984 C206.891281,249.569655 208.323559,248.56706 210.142578,247.951172 C208.595695,247.349606 207.363937,246.407884 206.447266,245.125977 C205.530594,243.844069 205.072266,242.393888 205.072266,240.775391 C205.072266,238.18293 205.906567,236.12045 207.575195,234.587891 C209.243823,233.055331 211.453111,232.289062 214.203125,232.289062 C216.953139,232.289062 219.169588,233.062492 220.852539,234.609375 C222.53549,236.156258 223.376953,238.211576 223.376953,240.775391 L223.376953,240.775391 Z M221.615234,255.728516 C221.615234,253.780589 220.92058,252.180019 219.53125,250.926758 C218.14192,249.673496 216.365896,249.046875 214.203125,249.046875 C212.040354,249.046875 210.271491,249.662754 208.896484,250.894531 C207.521478,252.126308 206.833984,253.73762 206.833984,255.728516 C206.833984,257.719411 207.499993,259.305658 208.832031,260.487305 C210.164069,261.668951 211.968739,262.259766 214.246094,262.259766 C216.466157,262.259766 218.249342,261.672532 219.595703,260.498047 C220.942064,259.323562 221.615234,257.733734 221.615234,255.728516 L221.615234,255.728516 Z M220.798828,240.753906 C220.798828,238.963533 220.179368,237.470384 218.94043,236.274414 C217.701491,235.078445 216.122405,234.480469 214.203125,234.480469 C212.255199,234.480469 210.676113,235.05696 209.46582,236.209961 C208.255528,237.362961 207.650391,238.877595 207.650391,240.753906 C207.650391,242.587249 208.255528,244.062494 209.46582,245.179688 C210.676113,246.296881 212.26236,246.855469 214.224609,246.855469 C216.158213,246.855469 217.737299,246.2933 218.961914,245.168945 C220.18653,244.044591 220.798828,242.572926 220.798828,240.753906 L220.798828,240.753906 Z" id="8"></path>
                    </g>
                </g>
            </g>
        </g>
    </g>
</svg>