<?xml version="1.0" encoding="UTF-8" standalone="no"?>
<svg width="20px" height="33px" viewBox="0 0 20 33" version="1.1" xmlns="http://www.w3.org/2000/svg" xmlns:xlink="http://www.w3.org/1999/xlink">
    <!-- Generator: Sketch 39.1 (31720) - http://www.bohemiancoding.com/sketch -->
    <title>white 9</title>
    <desc>Created with Sketch.</desc>
    <defs></defs>
    <g id="CLASS" stroke="none" stroke-width="1" fill="none" fill-rule="evenodd">
        <g id="TABLE" transform="translate(-434.000000, -320.000000)" fill="#FFFFFF">
            <g id="TABLE---Classes" transform="translate(20.000000, 20.000000)">
                <g id="GRID" transform="translate(0.000000, 55.000000)">
                    <g id="00" transform="translate(13.000000, 13.000000)">
                        <path d="M417.992188,249.519531 C417.075516,250.865892 415.936856,251.907874 414.576172,252.645508 C413.215488,253.383142 411.740242,253.751953 410.150391,253.751953 C408.37434,253.751953 406.805996,253.293624 405.445312,252.376953 C404.084629,251.460282 403.031905,250.192716 402.287109,248.574219 C401.542314,246.955721 401.169922,245.186859 401.169922,243.267578 C401.169922,241.205068 401.567379,239.328784 402.362305,237.638672 C403.157231,235.948559 404.267245,234.634445 405.692383,233.696289 C407.11752,232.758133 408.761058,232.289062 410.623047,232.289062 C413.759781,232.289062 416.201814,233.388335 417.949219,235.586914 C419.696623,237.785493 420.570312,240.904277 420.570312,244.943359 L420.570312,247.263672 C420.570312,252.906929 419.3672,257.14647 416.960938,259.982422 C414.554675,262.818374 410.880884,264.236328 405.939453,264.236328 L405.466797,264.236328 L405.488281,262.001953 L406.390625,262.001953 C410.128925,261.944661 412.971995,260.884776 414.919922,258.822266 C416.867848,256.759755 417.891927,253.658875 417.992188,249.519531 L417.992188,249.519531 Z M410.472656,251.539062 C412.191415,251.539062 413.734694,251.027023 415.102539,250.00293 C416.470384,248.978836 417.440752,247.650399 418.013672,246.017578 L418.013672,244.535156 C418.013672,241.355453 417.351244,238.888355 416.026367,237.133789 C414.701491,235.379223 412.914725,234.501953 410.666016,234.501953 C408.632151,234.501953 406.963548,235.321932 405.660156,236.961914 C404.356764,238.601896 403.705078,240.667956 403.705078,243.160156 C403.705078,245.552095 404.331699,247.546541 405.584961,249.143555 C406.838222,250.740568 408.467438,251.539062 410.472656,251.539062 L410.472656,251.539062 Z" id="white-9"></path>
                    </g>
                </g>
            </g>
        </g>
    </g>
</svg>