<?xml version="1.0" encoding="UTF-8" standalone="no"?>
<svg width="20px" height="21px" viewBox="0 0 20 21" version="1.1" xmlns="http://www.w3.org/2000/svg" xmlns:xlink="http://www.w3.org/1999/xlink">
    <!-- Generator: Sketch 39.1 (31720) - http://www.bohemiancoding.com/sketch -->
    <title>icon1</title>
    <desc>Created with Sketch.</desc>
    <defs>
        <ellipse id="path-1" cx="10" cy="9.95348837" rx="10" ry="9.95348837"></ellipse>
        <mask id="mask-2" maskContentUnits="userSpaceOnUse" maskUnits="objectBoundingBox" x="0" y="0" width="20" height="19.9069767" fill="white">
            <use xlink:href="#path-1"></use>
        </mask>
        <path d="M5,14.1764137 C5,11.8441901 7.238511,9.95348837 9.99993232,9.95348837 C12.761489,9.95348837 15,11.8441901 15,14.1764137 C15,16.5086373 5,16.5086373 5,14.1764137 Z M10,9.95348837 C11.6568542,9.95348837 13,8.61658981 13,6.96744186 C13,5.31829391 11.6568542,3.98139535 10,3.98139535 C8.34314575,3.98139535 7,5.31829391 7,6.96744186 C7,8.61658981 8.34314575,9.95348837 10,9.95348837 Z" id="path-3"></path>
        <mask id="mask-4" maskContentUnits="userSpaceOnUse" maskUnits="objectBoundingBox" x="0" y="0" width="10" height="11.944186" fill="white">
            <use xlink:href="#path-3"></use>
        </mask>
    </defs>
    <g id="CLASS" stroke="none" stroke-width="1" fill="none" fill-rule="evenodd">
        <g id="04-Solution-page" transform="translate(-43.000000, -2007.000000)" stroke="#C0BDB9" stroke-width="4">
            <g id="Author" transform="translate(20.000000, 1982.000000)">
                <g id="icon1" transform="translate(23.000000, 25.218605)">
                    <use id="Oval" mask="url(#mask-2)" xlink:href="#path-1"></use>
                    <use id="Combined-Shape" mask="url(#mask-4)" xlink:href="#path-3"></use>
                </g>
            </g>
        </g>
    </g>
</svg>