<svg xmlns="http://www.w3.org/2000/svg" width="20" height="25" viewBox="0 0 20 25">
    <path fill-opacity=".8" fill-rule="evenodd" d="M0 5.495C0 5.222.225 5 .494 5h19.012c.273 0 .494.216.494.495v2.01a.497.497 0 0 1-.494.495H.494A.491.491 0 0 1 0 7.505v-2.01zm0 7C0 12.222.225 12 .494 12h19.012c.273 0 .494.216.494.495v2.01a.497.497 0 0 1-.494.495H.494A.491.491 0 0 1 0 14.505v-2.01zm0 7C0 19.222.225 19 .494 19h19.012c.273 0 .494.216.494.495v2.01a.497.497 0 0 1-.494.495H.494A.491.491 0 0 1 0 21.505v-2.01z"/>
</svg>
