<?xml version="1.0" encoding="UTF-8"?>
<svg width="20px" height="4px" viewBox="0 0 20 4" version="1.1" xmlns="http://www.w3.org/2000/svg" xmlns:xlink="http://www.w3.org/1999/xlink">
    <!-- Generator: Sketch 41.2 (35397) - http://www.bohemiancoding.com/sketch -->
    <title>Combined Shape</title>
    <desc>Created with Sketch.</desc>
    <defs></defs>
    <g id="Symbols" stroke="none" stroke-width="1" fill="none" fill-rule="evenodd">
        <g id=".-.-." transform="translate(-25.000000, -32.000000)" fill="#315efb">
            <path d="M25,34 C25,32.8954305 25.8877296,32 27,32 C28.1045695,32 29,32.8877296 29,34 C29,35.1045695 28.1122704,36 27,36 C25.8954305,36 25,35.1122704 25,34 Z M33,34 C33,32.8954305 33.8877296,32 35,32 C36.1045695,32 37,32.8877296 37,34 C37,35.1045695 36.1122704,36 35,36 C33.8954305,36 33,35.1122704 33,34 Z M41,34 C41,32.8954305 41.8877296,32 43,32 C44.1045695,32 45,32.8877296 45,34 C45,35.1045695 44.1122704,36 43,36 C41.8954305,36 41,35.1122704 41,34 Z" id="Combined-Shape"></path>
        </g>
    </g>
</svg>