<?xml version="1.0" encoding="UTF-8" standalone="no"?>
<svg width="12px" height="10px" viewBox="0 0 12 10" version="1.1" xmlns="http://www.w3.org/2000/svg" xmlns:xlink="http://www.w3.org/1999/xlink">
    <!-- Generator: sketchtool 40 (33762) - http://www.bohemiancoding.com/sketch -->
    <title>F36310FA-5381-4C3E-A1FD-58F84D128B23</title>
    <desc>Created with sketchtool.</desc>
    <defs></defs>
    <g id="Page-1" stroke="none" stroke-width="1" fill="none" fill-rule="evenodd">
        <g id="UI-KIT-—-03-Icons" transform="translate(-661.000000, -480.000000)" fill="#C0BDB9">
            <g id="SOLUTION" transform="translate(70.000000, 373.000000)">
                <g id="DELIVERY" transform="translate(591.000000, 107.000000)">
                    <path d="M1,3 L11,3 L11,9.56211865 C11,9.80395384 10.7723472,10 10.4903505,10 L1.50964952,10 C1.22817786,10 1,9.79805279 1,9.56211865 L1,3 L1,3 L1,3 Z M4,5 C4,4.44771525 4.44335318,4 5.0093689,4 L6.9906311,4 C7.54809015,4 8,4.44386482 8,5 C8,5.55228475 7.55664682,6 6.9906311,6 L5.0093689,6 C4.45190985,6 4,5.55613518 4,5 L4,5 L4,5 Z M0,0 L12,0 L12,2 L0,2 L0,0 L0,0 L0,0 Z" id="box"></path>
                </g>
            </g>
        </g>
    </g>
</svg>