<?xml version="1.0" encoding="UTF-8" standalone="no"?>
<svg width="118px" height="18px" viewBox="0 0 118 18" version="1.1" xmlns="http://www.w3.org/2000/svg" xmlns:xlink="http://www.w3.org/1999/xlink">
    <!-- Generator: Sketch 39.1 (31720) - http://www.bohemiancoding.com/sketch -->
    <title>LOGO</title>
    <desc>Created with Sketch.</desc>
    <defs></defs>
    <g id="Symbols" stroke="none" stroke-width="1" fill="none" fill-rule="evenodd">
        <g id="FOOTER" transform="translate(-20.000000, -37.000000)" fill="#FFFFFF">
            <g id="LOGO">
                <g transform="translate(20.000000, 37.000000)">
                    <path d="M85.87872,9.46944 L85.51368,9.46944 L85.51368,12.24 L84.1284,12.24 L84.1284,5.688 L85.51368,5.688 L85.51368,8.57088 L85.84128,8.43048 L87.80688,5.688 L89.38872,5.688 L87.3108,8.43048 L86.76792,8.78616 L87.32952,9.16056 L89.70696,12.24 L87.99408,12.24 L85.87872,9.46944 Z M95.5114972,6.9048 L94.0045372,6.9048 C93.973337,7.49760296 93.9405774,8.03267761 93.9062572,8.51004 C93.871937,8.98740239 93.8251375,9.4163981 93.7658572,9.79704 C93.7065769,10.1776819 93.6270177,10.5161985 93.5271772,10.8126 C93.4273367,11.1090015 93.3025379,11.3695189 93.1527772,11.59416 C93.0529367,11.7376807 92.9421778,11.8562395 92.8204972,11.94984 C92.6988166,12.0434405 92.5724578,12.1167597 92.4414172,12.1698 C92.3103765,12.2228403 92.1824578,12.2602799 92.0576572,12.28212 C91.9328566,12.3039601 91.8174177,12.31488 91.7113372,12.31488 C91.5490964,12.31488 91.4227376,12.3024001 91.3322572,12.27744 C91.2417767,12.2524799 91.1434977,12.2150402 91.0374172,12.16512 L91.1871772,11.00448 C91.2558175,11.0294401 91.3369367,11.04192 91.4305372,11.04192 C91.5366177,11.04192 91.6426966,11.0169602 91.7487772,10.96704 C91.8548577,10.9171198 91.9484568,10.8360006 92.0295772,10.72368 C92.1294177,10.5863993 92.2183368,10.3898413 92.2963372,10.134 C92.3743376,9.87815872 92.4398569,9.54588204 92.4928972,9.13716 C92.5459374,8.72843796 92.589617,8.24016284 92.6239372,7.67232 C92.6582574,7.10447716 92.6816571,6.44304378 92.6941372,5.688 L96.8967772,5.688 L96.8967772,12.24 L95.5114972,12.24 L95.5114972,6.9048 Z M102.635794,10.84536 L100.426834,10.84536 L99.8933144,12.24 L98.5080344,12.24 L101.072674,5.6412 L102.092914,5.6412 L104.666914,12.24 L103.197394,12.24 L102.635794,10.84536 Z M100.810594,9.75024 L102.308194,9.75024 L101.802754,8.38368 L101.578114,7.34472 L101.531314,7.34472 L101.306674,8.39304 L100.810594,9.75024 Z M110.780332,11.9592 C110.574411,12.1027207 110.302973,12.2072397 109.966012,12.27276 C109.62905,12.3382803 109.282733,12.37104 108.927052,12.37104 C108.508969,12.37104 108.108053,12.3086406 107.724292,12.18384 C107.34053,12.0590394 107.000453,11.8593614 106.704052,11.5848 C106.40765,11.3102386 106.172092,10.9576822 105.997372,10.52712 C105.822651,10.0965578 105.735292,9.57552306 105.735292,8.964 C105.735292,8.32751682 105.835131,7.79244217 106.034812,7.35876 C106.234493,6.92507783 106.49033,6.57564133 106.802332,6.31044 C107.114333,6.04523867 107.46065,5.85336059 107.841292,5.7348 C108.221933,5.61623941 108.59633,5.55696 108.964492,5.55696 C109.370094,5.55696 109.71173,5.58191975 109.989412,5.63184 C110.267093,5.68176025 110.496411,5.74103966 110.677372,5.80968 L110.405932,6.97032 C110.249931,6.90167966 110.067413,6.85176016 109.858372,6.82056 C109.64933,6.78935984 109.385693,6.77376 109.067452,6.77376 C108.78665,6.77376 108.532373,6.81899955 108.304612,6.90948 C108.07685,6.99996045 107.881852,7.1356791 107.719612,7.31664 C107.557371,7.4976009 107.431012,7.72535863 107.340532,7.99992 C107.250051,8.27448137 107.204812,8.59583816 107.204812,8.964 C107.204812,9.28848162 107.245371,9.58487866 107.326492,9.8532 C107.407612,10.1215213 107.529291,10.352399 107.691532,10.54584 C107.853772,10.739281 108.05969,10.8890395 108.309292,10.99512 C108.558893,11.1012005 108.84905,11.15424 109.179772,11.15424 C109.485533,11.15424 109.74293,11.1261603 109.951972,11.07 C110.161013,11.0138397 110.346651,10.9420804 110.508892,10.85472 L110.780332,11.9592 Z M117.127749,11.9592 C116.921828,12.1027207 116.65039,12.2072397 116.313429,12.27276 C115.976467,12.3382803 115.63015,12.37104 115.274469,12.37104 C114.856387,12.37104 114.455471,12.3086406 114.071709,12.18384 C113.687947,12.0590394 113.34787,11.8593614 113.051469,11.5848 C112.755067,11.3102386 112.51951,10.9576822 112.344789,10.52712 C112.170068,10.0965578 112.082709,9.57552306 112.082709,8.964 C112.082709,8.32751682 112.182548,7.79244217 112.382229,7.35876 C112.58191,6.92507783 112.837747,6.57564133 113.149749,6.31044 C113.46175,6.04523867 113.808067,5.85336059 114.188709,5.7348 C114.569351,5.61623941 114.943747,5.55696 115.311909,5.55696 C115.717511,5.55696 116.059147,5.58191975 116.336829,5.63184 C116.61451,5.68176025 116.843828,5.74103966 117.024789,5.80968 L116.753349,6.97032 C116.597348,6.90167966 116.41483,6.85176016 116.205789,6.82056 C115.996748,6.78935984 115.73311,6.77376 115.414869,6.77376 C115.134067,6.77376 114.87979,6.81899955 114.652029,6.90948 C114.424268,6.99996045 114.22927,7.1356791 114.067029,7.31664 C113.904788,7.4976009 113.778429,7.72535863 113.687949,7.99992 C113.597468,8.27448137 113.552229,8.59583816 113.552229,8.964 C113.552229,9.28848162 113.592788,9.58487866 113.673909,9.8532 C113.755029,10.1215213 113.876708,10.352399 114.038949,10.54584 C114.20119,10.739281 114.407107,10.8890395 114.656709,10.99512 C114.90631,11.1012005 115.196467,11.15424 115.527189,11.15424 C115.83295,11.15424 116.090348,11.1261603 116.299389,11.07 C116.50843,11.0138397 116.694068,10.9420804 116.856309,10.85472 L117.127749,11.9592 Z" id="КЛАСС"></path>
                    <g id="Rambler/">
                        <path d="M53.4193548,7.72258068 C53.4774193,7.08387097 54.116129,5.86451613 55.6258064,5.86451613 C57.3096774,5.86451613 57.6,7.2 57.6580645,7.72258068 L53.4193548,7.72258068 L53.4193548,7.72258068 L53.4193548,7.72258068 Z M55.683871,3.9483871 C52.8387097,3.9483871 50.9225807,6.03870967 50.9225807,8.70967742 C50.9225807,11.3806452 52.8387097,13.4709677 55.7419355,13.4709677 C58.6451613,13.4709677 59.8645161,11.4387097 59.8645161,11.4387097 L58.0064516,10.2193548 C58.0064516,10.2193548 57.367742,11.4967742 55.7419355,11.4967742 C54.0580645,11.4967742 53.3612903,10.0451613 53.3612903,9.52258068 L60.0387097,9.52258068 C60.0387097,9.52258068 60.0967742,9.11612902 60.0967742,9 L60.0967742,8.70967742 C60.0967742,5.98064516 58.4709677,3.9483871 55.683871,3.9483871 L55.683871,3.9483871 L55.683871,3.9483871 Z" id="Shape"></path>
                        <path d="M69.0387097,8.70967742 C69.0387097,10.2193548 68.167742,11.4967742 66.483871,11.4967742 C64.8,11.4967742 63.8709677,10.1032258 63.8709677,8.70967742 C63.8709677,7.31612902 64.8,5.92258064 66.483871,5.92258064 C68.1096774,5.92258064 69.0387097,7.14193548 69.0387097,8.70967742 M66.7741936,3.9483871 C65.1483871,3.9483871 64.2193548,4.81935484 63.9290323,5.16774193 L63.9290323,4.18064516 L61.4903226,4.18064516 L61.4903226,17.5935484 L63.9870967,17.5935484 L63.9870967,12.367742 C64.2774193,12.6580645 65.2645161,13.4709677 66.7741936,13.4709677 C69.0967742,13.4709677 71.2451613,11.7290323 71.2451613,8.70967742 C71.3032258,5.51612903 68.9225807,3.9483871 66.7741936,3.9483871" id="Shape"></path>
                        <path d="M15.1548387,9.46451614 C15.1548387,10.683871 14.4580645,11.5548387 13.1225807,11.5548387 C11.8451613,11.5548387 11.7290323,10.8 11.7290323,10.5096774 C11.7290323,9.81290326 12.3096774,9.40645159 13.7612903,9.23225803 C14.167742,9.17419356 14.5741936,9.17419356 14.9806452,9.17419356 L15.1548387,9.17419356 L15.1548387,9.46451614 L15.1548387,9.46451614 L15.1548387,9.46451614 Z M17.4774193,11.2645161 L17.4774193,8.53548386 L17.4774193,8.01290326 C17.3612903,5.16774193 16.1419355,4.00645161 13.5870967,4.00645161 C11.8451613,4.00645161 10.683871,4.7032258 10.2774193,4.99354839 L10.9741936,6.8516129 C10.9741936,6.8516129 12.0193548,5.92258064 13.3548387,5.92258064 C15.2709677,5.92258064 15.0387097,7.49032258 15.0387097,7.49032258 C14.4,7.49032258 9.23225803,7.2 9.23225803,10.567742 C9.23225803,12.4258064 10.8,13.4709677 12.483871,13.4709677 C13.9935484,13.4709677 14.8645161,12.716129 15.0967742,12.4258064 C15.0967742,12.483871 15.1548387,13.2967742 15.1548387,13.2967742 L17.4774193,13.2967742 C17.5935484,13.2387097 17.4774193,12.483871 17.4774193,11.2645161 L17.4774193,11.2645161 L17.4774193,11.2645161 Z" id="Shape"></path>
                        <polygon id="Shape" points="24.9096774 8.01290326 21.7741936 4.23870967 21.716129 4.18064516 19.567742 4.18064516 19.567742 13.2387097 22.0645161 13.2387097 22.0645161 7.95483871 24.5032258 11.0903226 24.5612903 11.1483871 25.2 11.1483871 27.6967742 7.95483871 27.6967742 13.2387097 30.1935484 13.2387097 30.1935484 4.18064516 28.0451613 4.18064516"></polygon>
                        <polygon id="Shape" points="78.8516129 0.174193548 72.4645159 17.5935484 75.0774197 17.5935484 81.4645159 0.174193548"></polygon>
                        <path d="M6.38709677,4.41290323 C6.38709677,5.92258064 4.93548387,6.44516129 3.9483871,6.44516129 L2.67096774,6.44516129 L2.67096774,2.32258064 L3.9483871,2.32258064 C4.93548387,2.38064516 6.38709677,2.9032258 6.38709677,4.41290323 M4.18064516,0.174193548 L0.116129033,0.174193548 L0.116129033,13.2967742 L2.72903226,13.2967742 L2.72903226,8.65161288 L4.12258064,8.65161288 C6.79354839,8.65161288 9,7.25806454 9,4.41290323 C9,1.62580645 6.79354839,0.174193548 4.18064516,0.174193548" id="Shape"></path>
                        <path d="M38.8451613,8.94193546 C38.8451613,9.98709674 38.2645161,11.4967742 36.5806452,11.4967742 C34.8967742,11.4967742 34.2,10.1612903 34.2,8.88387098 C34.2,7.60645159 34.8967742,6.44516129 36.5806452,6.44516129 C38.2645161,6.44516129 38.8451613,7.89677417 38.8451613,8.94193546 M36.8129033,4.18064516 C35.5935484,4.18064516 34.7225807,4.76129033 34.4903226,4.93548387 C34.5483871,4.64516129 34.8387097,2.20645161 38.0903226,2.20645161 L40.1225807,2.20645161 L40.8774193,0.174193548 L38.1483871,0.174193548 C34.5483871,0.174193548 31.7612903,1.85806452 31.7612903,7.72258068 C31.7612903,10.916129 33.1548387,13.5290323 36.5225807,13.5290323 C39.716129,13.5290323 41.3419355,11.2064516 41.3419355,8.88387098 C41.3419355,5.51612903 38.8451613,4.18064516 36.8129033,4.18064516" id="Shape"></path>
                        <polygon id="Shape" points="48.0774193 13.2387097 50.7483871 13.2387097 47.4387097 4.18064516 44.8258064 4.18064516 41.4580645 13.2387097 44.1870967 13.2387097 46.1032258 7.49032258 46.1612903 7.49032258"></polygon>
                    </g>
                </g>
            </g>
        </g>
    </g>
</svg>