<?xml version="1.0" encoding="UTF-8"?>
<svg width="18px" height="18px" viewBox="0 0 18 18" version="1.1" xmlns="http://www.w3.org/2000/svg" xmlns:xlink="http://www.w3.org/1999/xlink">
    <!-- Generator: Sketch 42 (36781) - http://www.bohemiancoding.com/sketch -->
    <title>ico_question</title>
    <desc>Created with Sketch.</desc>
    <defs></defs>
    <g id="ICON" stroke="none" stroke-width="1" fill="none" fill-rule="evenodd">
        <g id="Artboard" transform="translate(-23.000000, -53.000000)" fill="#315EFB">
            <g id="question" transform="translate(20.000000, 50.000000)">
                <g id="ICON" transform="translate(3.000000, 3.000000)">
                    <path d="M9,16 C12.8659932,16 16,12.8659932 16,9 C16,5.13400675 12.8659932,2 9,2 C5.13400675,2 2,5.13400675 2,9 C2,12.8659932 5.13400675,16 9,16 Z M9,18 C4.02943725,18 0,13.9705627 0,9 C0,4.02943725 4.02943725,0 9,0 C13.9705627,0 18,4.02943725 18,9 C18,13.9705627 13.9705627,18 9,18 Z" id="Oval" fill-rule="nonzero"></path>
                    <path d="M8.19314821,10.4391007 C8.19314821,9.85038808 8.25967981,9.38567498 8.39274499,9.04494747 C8.52581017,8.70421996 8.74153382,8.40886001 9.03992241,8.15885876 C9.338311,7.90885751 9.56512324,7.68002915 9.72036595,7.47236683 C9.87560867,7.2647045 9.95322886,7.03587614 9.95322886,6.78587489 C9.95322886,6.17700088 9.6911347,5.87256844 9.16693854,5.87256844 C8.92500184,5.87256844 8.72943928,5.96127723 8.58024499,6.13869747 C8.43105069,6.31611771 8.35242245,6.55603467 8.34435789,6.85845553 L6.30000305,6.85845553 C6.30806761,6.05199989 6.56209733,5.42398198 7.06209983,4.97438295 C7.56210233,4.52478393 8.26370821,4.29998779 9.16693854,4.29998779 C10.0661366,4.29998779 10.7627022,4.50764701 11.2566563,4.92297166 C11.7506104,5.33829632 11.9975837,5.92901622 11.9975837,6.69514908 C11.9975837,7.02982818 11.9310521,7.33426062 11.7979869,7.60845553 C11.6649217,7.88265045 11.4512142,8.16288959 11.1568579,8.44918134 L10.4612934,9.09635876 C10.2637117,9.28587584 10.1266163,9.48043034 10.0500031,9.68002812 C9.97338977,9.87962589 9.93105148,10.1326476 9.92298692,10.4391007 L8.19314821,10.4391007 Z M7.94516434,12.2778104 C7.94516434,11.9794218 8.05302617,11.7344646 8.26875305,11.5429313 C8.48447994,11.3513981 8.75363047,11.255633 9.07621273,11.255633 C9.39879499,11.255633 9.66794552,11.3513981 9.88367241,11.5429313 C10.0993993,11.7344646 10.2072611,11.9794218 10.2072611,12.2778104 C10.2072611,12.576199 10.0993993,12.8211562 9.88367241,13.0126894 C9.66794552,13.2042226 9.39879499,13.2999878 9.07621273,13.2999878 C8.75363047,13.2999878 8.48447994,13.2042226 8.26875305,13.0126894 C8.05302617,12.8211562 7.94516434,12.576199 7.94516434,12.2778104 Z" id="?"></path>
                </g>
            </g>
        </g>
    </g>
</svg>