<?xml version="1.0" encoding="UTF-8"?>
<svg width="14px" height="15px" viewBox="0 0 14 15" version="1.1" xmlns="http://www.w3.org/2000/svg" xmlns:xlink="http://www.w3.org/1999/xlink">
    <!-- Generator: Sketch 42 (36781) - http://www.bohemiancoding.com/sketch -->
    <title>ico_comments</title>
    <desc>Created with Sketch.</desc>
    <defs></defs>
    <g id="ICON" stroke="none" stroke-width="1" fill="none" fill-rule="evenodd">
        <g id="Artboard" transform="translate(-129.000000, -131.000000)" fill="#a2a2a2">
            <g id="ico_comments" transform="translate(128.000000, 130.000000)">
                <g transform="translate(1.000000, 1.000000)">
                    <path d="M9.87165634,11 L11.0060774,11 C12.1043779,11 13,10.1043272 13,9.00284797 L13,2.99715203 C13,1.89446903 12.1036297,1 10.9966488,1 L3.00335124,1 C1.89510118,1 1,1.89371964 1,2.99715203 L1,9.00284797 C1,10.1054354 1.89684816,11 3.00463105,11 L6.14864031,11 L9.87165634,13.2338096 L9.87165634,11 Z M10.8716563,12 L10.8716563,15 L5.87165634,12 L3.00463105,12 C1.34521914,12 0,10.6583772 0,9.00284797 L0,2.99715203 C0,1.34187067 1.34237885,0 3.00335124,0 L10.9966488,0 C12.6553538,0 14,1.34162278 14,2.99715203 L14,9.00284797 C14,10.6581293 12.6551454,12 11.0060774,12 L10.8716563,12 Z" id="Rectangle-4" fill-rule="nonzero"></path>
                    <path d="M3,7 L11,7 L11,8 L3,8 L3,7 Z M3,4 L11,4 L11,5 L3,5 L3,4 Z" id="Combined-Shape"></path>
                </g>
            </g>
        </g>
    </g>
</svg>