<?xml version="1.0" encoding="UTF-8"?>
<svg width="14px" height="14px" viewBox="0 0 14 14" version="1.1" xmlns="http://www.w3.org/2000/svg" xmlns:xlink="http://www.w3.org/1999/xlink">
    <!-- Generator: Sketch 42 (36781) - http://www.bohemiancoding.com/sketch -->
    <title>ico_question_gray</title>
    <desc>Created with Sketch.</desc>
    <defs></defs>
    <g id="ICON" stroke="none" stroke-width="1" fill="none" fill-rule="evenodd">
        <g id="Artboard" transform="translate(-93.000000, -131.000000)" fill="#a2a2a2">
            <g id="ico_question_gray" transform="translate(92.000000, 130.000000)">
                <g transform="translate(1.000000, 1.000000)">
                    <path d="M7,13 C10.3137085,13 13,10.3137085 13,7 C13,3.6862915 10.3137085,1 7,1 C3.6862915,1 1,3.6862915 1,7 C1,10.3137085 3.6862915,13 7,13 Z M7,14 C3.13400675,14 0,10.8659932 0,7 C0,3.13400675 3.13400675,0 7,0 C10.8659932,0 14,3.13400675 14,7 C14,10.8659932 10.8659932,14 7,14 Z" id="Oval-6" fill-rule="nonzero"></path>
                    <path d="M6.2619699,9.31463748 L6.2619699,11 L7.98016416,11 L7.98016416,9.31463748 L6.2619699,9.31463748 Z M4.5,5.70314637 L6.10875513,5.70314637 C6.10875513,5.50615497 6.13064274,5.32193428 6.1744186,5.1504788 C6.21819447,4.97902331 6.28568126,4.829458 6.37688098,4.70177839 C6.46808071,4.57409877 6.58481461,4.47195661 6.72708618,4.39534884 C6.86935776,4.31874107 7.0389867,4.28043776 7.23597811,4.28043776 C7.52781724,4.28043776 7.75581313,4.36069231 7.91997264,4.52120383 C8.08413215,4.68171535 8.16621067,4.92977488 8.16621067,5.26538988 C8.17350665,5.46238129 8.13885127,5.62653833 8.0622435,5.75786594 C7.98563573,5.88919354 7.88531754,6.00957538 7.76128591,6.11901505 C7.63725428,6.22845472 7.50228071,6.33789275 7.35636115,6.44733242 C7.21044159,6.55677209 7.07182008,6.68627376 6.94049248,6.83584131 C6.80916487,6.98540886 6.69425494,7.16598161 6.59575923,7.37756498 C6.49726353,7.58914834 6.43707261,7.85179962 6.41518468,8.16552668 L6.41518468,8.65800274 L7.89261286,8.65800274 L7.89261286,8.24213406 C7.92179677,8.02325472 7.99293149,7.840858 8.10601915,7.69493844 C8.21910681,7.54901888 8.34860848,7.41951721 8.49452804,7.30642955 C8.64044761,7.19334189 8.79548482,7.08025592 8.95964432,6.96716826 C9.12380383,6.8540806 9.27336914,6.71728306 9.40834473,6.55677155 C9.54332033,6.39626003 9.65640629,6.20291951 9.74760602,5.97674419 C9.83880575,5.75056886 9.88440492,5.46238205 9.88440492,5.1121751 C9.88440492,4.90059174 9.83880575,4.67259584 9.74760602,4.42818057 C9.65640629,4.18376531 9.50501702,3.95576941 9.29343365,3.74418605 C9.08185029,3.53260268 8.80278331,3.35567787 8.45622435,3.21340629 C8.10966539,3.07113472 7.67738517,3 7.15937073,3 C6.75809193,3 6.39512246,3.06748679 6.07045144,3.20246238 C5.74578041,3.33743798 5.4685374,3.52530659 5.23871409,3.76607387 C5.00889078,4.00684115 4.830142,4.29138003 4.70246238,4.61969904 C4.57478276,4.94801806 4.50729598,5.30916356 4.5,5.70314637 Z" id="?"></path>
                </g>
            </g>
        </g>
    </g>
</svg>