<?xml version="1.0" encoding="UTF-8"?>
<svg width="24px" height="24px" viewBox="0 0 24 24" version="1.1" xmlns="http://www.w3.org/2000/svg" xmlns:xlink="http://www.w3.org/1999/xlink">
    <!-- Generator: Sketch 42 (36781) - http://www.bohemiancoding.com/sketch -->
    <title>ico_share_ok</title>
    <desc>Created with Sketch.</desc>
    <defs></defs>
    <g id="ICON" stroke="none" stroke-width="1" fill="none" fill-rule="evenodd">
        <g id="Artboard" transform="translate(-196.000000, -210.000000)" fill="#315EFB">
            <g id="ico_share_ok" transform="translate(196.000000, 210.000000)">
                <g id="ok">
                    <path d="M12,23 C18.0751322,23 23,18.0751322 23,12 C23,5.92486775 18.0751322,1 12,1 C5.92486775,1 1,5.92486775 1,12 C1,18.0751322 5.92486775,23 12,23 Z M12,24 C5.372583,24 0,18.627417 0,12 C0,5.372583 5.372583,0 12,0 C18.627417,0 24,5.372583 24,12 C24,18.627417 18.627417,24 12,24 Z" id="bg" fill-rule="nonzero"></path>
                    <g id="icon_ok" transform="translate(8.000000, 6.000000)">
                        <g id="Group-2" transform="translate(0.800000, 0.400000)">
                            <path d="M3.19999387,3.61955608 C3.78456114,3.61955608 4.25996932,3.14409013 4.25996932,2.55947915 C4.25996932,1.97544417 3.78456114,1.49988018 3.19999387,1.49988018 C2.6160148,1.49988018 2.14001843,1.97544417 2.14001843,2.55947915 C2.14001843,3.14409013 2.6160148,3.61955608 3.19999387,3.61955608 L3.19999387,3.61955608 Z M3.19999387,6.92779167e-14 C4.61208948,6.92779167e-14 5.76,1.14802042 5.76,2.55947915 C5.76,3.9715629 4.61208948,5.12 3.19999387,5.12 C1.78820461,5.12 0.64,3.9715629 0.64,2.55947915 C0.64,1.14802042 1.78820461,6.92779167e-14 3.19999387,6.92779167e-14 L3.19999387,6.92779167e-14 Z" id="Shape" transform="translate(3.200000, 2.560000) scale(1, -1) translate(-3.200000, -2.560000) "></path>
                            <path d="M4.35370361,8.06580074 C4.93422122,8.19483208 5.49406017,8.41881303 6.0095799,8.73474811 C6.39975827,8.97458505 6.51738778,9.47773007 6.27148232,9.8583539 C6.02590444,10.2398031 5.51037106,10.3545361 5.11949657,10.1146859 C3.95152752,9.39811725 2.44760869,9.39842346 1.2803221,10.1146859 C0.889393022,10.3545361 0.37392789,10.2398031 0.128609347,9.8583539 C-0.117296116,9.47742387 5.81253032e-06,8.97458505 0.390238782,8.73474811 C0.905717563,8.41913254 1.46554286,8.19483208 2.04607412,8.06580074 L0.451878939,6.51087454 C0.125947737,6.19264959 0.125947737,5.67681711 0.452206522,5.35865873 C0.61552018,5.19968604 0.829104143,5.12005991 1.04270176,5.12005991 C1.2566679,5.12005991 1.47057945,5.19967273 1.63387945,5.35865873 L3.19971143,6.88659911 L4.76692197,5.35865873 C5.09285318,5.04044709 5.62166731,5.04044709 5.94791244,5.35865873 C6.27448516,5.67681711 6.27448516,6.19302236 5.94791244,6.51087454 L4.35371726,8.06580074" id="Shape" transform="translate(3.200000, 7.680000) scale(1, -1) translate(-3.200000, -7.680000) "></path>
                        </g>
                    </g>
                </g>
            </g>
        </g>
    </g>
</svg>