<?xml version="1.0" encoding="UTF-8"?>
<svg width="14px" height="13px" viewBox="0 0 14 13" version="1.1" xmlns="http://www.w3.org/2000/svg" xmlns:xlink="http://www.w3.org/1999/xlink">
    <!-- Generator: Sketch 42 (36781) - http://www.bohemiancoding.com/sketch -->
    <title>ico_like</title>
    <desc>Created with Sketch.</desc>
    <defs></defs>
    <g id="ICON" stroke="none" stroke-width="1" fill="none" fill-rule="evenodd">
        <g id="Artboard" transform="translate(-201.000000, -131.000000)" fill="#a2a2a2">
            <g id="ico_like" transform="translate(200.000000, 130.000000)">
                <g transform="translate(1.000000, 1.000000)" id="icon">
                    <path d="M10.0626258,9.47991671 C11.9169528,7.73905533 13,5.98439455 13,4.40449438 C13,2.60710133 11.4904959,1 9.8576779,1 C8.87604037,1 8.39355414,1.28526558 7.76570486,2.0327052 L7.0176351,2.92326444 L6.24928648,2.050141 C5.56920152,1.27731718 5.10015888,1 4.1423221,1 C2.50013011,1 1,2.5906552 1,4.40449438 C1,5.99369723 2.09127541,7.75385748 3.96120975,9.50128141 C5.06235636,10.5302854 6.1696202,11.3347293 6.9985619,11.8542712 C7.68806729,11.4363808 8.98330127,10.4931978 10.0626258,9.47991671 Z M7,1.38951311 C7,1.38951311 7.421875,0.9375 7.70764157,0.680250045 C8.19781237,0.296179143 8.85849991,0 9.8576779,0 C12.0599251,0 14,2.07116105 14,4.40449438 C14,8.78277154 7.56624783,12.690426 7.27785832,12.8477294 L7,13 L6.75351375,12.8739466 C6.49134147,12.7166433 0,8.80898876 0,4.40449438 C0,2.04494382 1.94007491,0 4.1423221,0 C5.13130157,0 5.788046,0.300083272 6.28386124,0.687830533 C6.77967649,1.0755778 7,1.38951311 7,1.38951311 Z" fill-rule="nonzero"></path>
                </g>
            </g>
        </g>
    </g>
</svg>