<?xml version="1.0" encoding="UTF-8"?>
<svg width="24px" height="24px" viewBox="0 0 24 24" version="1.1" xmlns="http://www.w3.org/2000/svg" xmlns:xlink="http://www.w3.org/1999/xlink">
    <!-- Generator: Sketch 42 (36781) - http://www.bohemiancoding.com/sketch -->
    <title>ico_share_lj</title>
    <desc>Created with Sketch.</desc>
    <defs></defs>
    <g id="ICON" stroke="none" stroke-width="1" fill="none" fill-rule="evenodd">
        <g id="Artboard" transform="translate(-108.000000, -210.000000)" fill="#315EFB">
            <g id="ico_share_lj" transform="translate(108.000000, 210.000000)">
                <g id="lj-copy">
                    <path d="M0.75,12 C0.75,18.2141433 5.78627917,23.25 12,23.25 C18.2141433,23.25 23.25,18.2137208 23.25,12 C23.25,5.78585673 18.2137208,0.75 12,0.75 C5.78585673,0.75 0.75,5.78627917 0.75,12 Z M0,12 C0,5.372583 5.37112582,0 12,0 C18.627417,0 24,5.37112582 24,12 C24,18.627417 18.6288742,24 12,24 C5.372583,24 0,18.6288742 0,12 Z" id="Rectangle-3" fill-rule="nonzero"></path>
                    <g id="icon_lj" transform="translate(6.000000, 6.000000)">
                        <path d="M1.23567861,4.15937856 C1.23579959,4.15909776 1.23592059,4.15881698 1.23604162,4.15853621 L0,2.92506529 C0.563537023,1.61883078 1.60815205,0.570146655 2.91422251,8.8817842e-16 L4.1486944,1.2315007 C4.83290316,0.936181611 5.58669929,0.771043997 6.37991486,0.771043997 C9.483592,0.771043997 12,3.28507333 12,6.3853211 C12,9.48637246 9.48318976,12 6.37991486,12 C3.27543325,12 0.75942748,9.48717605 0.75942748,6.3853211 C0.75942748,5.59089526 0.937072224,4.84544841 1.23611709,4.15981574 Z M1.23611709,4.15981574 L5.80712634,8.71733744 C6.37026112,7.41110293 7.41568062,6.3624188 8.71853317,5.79187035 L8.71933765,5.79187035 L4.14949888,1.23391147 L4.14748768,1.23350968 C2.84370857,1.80393555 1.79926224,2.85189007 1.23604162,4.15853621 L1.23648309,4.15897676 C1.23636107,4.15925641 1.23623907,4.15953607 1.23611709,4.15981574 Z M9.04595582,7.34882475 C8.28894178,7.67990357 7.68236517,8.29022969 7.35454027,9.04801446 L9.4888211,9.48878323 L9.04595582,7.34882475 Z" id="lj"></path>
                    </g>
                </g>
            </g>
        </g>
    </g>
</svg>