<?xml version="1.0" encoding="UTF-8"?>
<svg width="24px" height="24px" viewBox="0 0 24 24" version="1.1" xmlns="http://www.w3.org/2000/svg" xmlns:xlink="http://www.w3.org/1999/xlink">
    <!-- Generator: Sketch 42 (36781) - http://www.bohemiancoding.com/sketch -->
    <title>ico_share_vk</title>
    <desc>Created with Sketch.</desc>
    <defs></defs>
    <g id="ICON" stroke="none" stroke-width="1" fill="none" fill-rule="evenodd">
        <g id="Artboard" transform="translate(-64.000000, -210.000000)">
            <g id="ico_share_vk" transform="translate(64.000000, 210.000000)">
                <g id="vk-copy">
                    <path d="M0.75,12 C0.75,18.2141433 5.78627917,23.25 12,23.25 C18.2141433,23.25 23.25,18.2137208 23.25,12 C23.25,5.78585673 18.2137208,0.75 12,0.75 C5.78585673,0.75 0.75,5.78627917 0.75,12 Z M0,12 C0,5.372583 5.37112582,0 12,0 C18.627417,0 24,5.37112582 24,12 C24,18.627417 18.6288742,24 12,24 C5.372583,24 0,18.6288742 0,12 Z" id="Rectangle-3" fill="#315EFB" fill-rule="nonzero"></path>
                    <g id="icon_vk" transform="translate(3.000000, 3.000000)">
                        <rect id="Rectangle-2" x="0" y="0" width="20" height="19"></rect>
                        <path d="M8.80950799,12.9892792 L9.64188842,12.9892792 C9.64188842,12.9892792 9.89306054,12.9612899 10.0209661,12.8220096 C10.1395936,12.6933919 10.1356173,12.4528168 10.1356173,12.4528168 C10.1356173,12.4528168 10.1190492,11.3145836 10.6372988,11.1486468 C11.1482584,10.9853756 11.8036917,12.236899 12.4988884,12.7187156 C13.024428,13.082577 13.4240501,12.9892792 13.4240501,12.9892792 L15.2829889,12.990612 C15.2829889,12.990612 16.2552039,12.9159738 15.7939485,12.1449341 C15.7561733,12.0822913 15.5255456,11.5744846 14.4115078,10.5315485 C13.2464403,9.44063058 13.402843,9.61722999 14.8064909,7.72928229 C15.6614039,6.57972006 16.0033691,5.87798729 15.8966706,5.57743508 C15.7946113,5.29087754 15.1703259,5.34019209 15.1703259,5.34019209 L13.0728068,5.33952568 C13.0728068,5.33952568 12.9177295,5.3248646 12.8030784,5.39350512 C12.6904155,5.46147924 12.6181786,5.63807865 12.6181786,5.63807865 C12.6181786,5.63807865 12.286817,6.54373376 11.8454433,7.3007788 C10.9129916,8.89683766 10.5405412,8.9814721 10.3881148,8.88217658 C10.0342206,8.65093131 10.1223628,7.95386343 10.1223628,7.45871866 C10.1223628,5.91197435 10.3549787,5.26688668 9.66972279,5.09961704 C9.44240871,5.04430477 9.27473972,5.00765206 8.69286869,5.00165435 C7.94597957,4.99432381 7.31374157,5.00432 6.95653373,5.18091941 C6.71795335,5.29887449 6.534379,5.56077476 6.64637924,5.57543584 C6.7848884,5.5940954 7.09769378,5.66073669 7.26403732,5.88931631 C7.47875966,6.18320439 7.47080698,6.84428598 7.47080698,6.84428598 C7.47080698,6.84428598 7.59407351,8.66559239 7.18318508,8.89150636 C6.90086497,9.04678056 6.5144973,8.73023444 5.68344232,7.28145283 C5.25797398,6.53973529 4.9365532,5.70405353 4.9365532,5.70405353 C4.9365532,5.70405353 4.87425721,5.55077857 4.76358243,5.46880978 C4.62971232,5.36951426 4.44216164,5.33819285 4.44216164,5.33819285 L2.45399183,5.33885927 C2.45399183,5.33885927 2.15510363,5.34752264 2.04575429,5.47813956 C1.94767125,5.59476182 2.03780162,5.83600328 2.03780162,5.83600328 C2.03780162,5.83600328 3.59453858,9.53859327 5.35738248,11.3898883 C6.97442725,13.0879083 8.80950799,12.9892792 8.80950799,12.9892792 L8.80950799,12.9892792 Z" id="vk" fill="#315EFB"></path>
                    </g>
                </g>
            </g>
        </g>
    </g>
</svg>