<?xml version="1.0" encoding="UTF-8"?>
<svg width="24px" height="24px" viewBox="0 0 24 24" version="1.1" xmlns="http://www.w3.org/2000/svg" xmlns:xlink="http://www.w3.org/1999/xlink">
    <!-- Generator: Sketch 42 (36781) - http://www.bohemiancoding.com/sketch -->
    <title>ico_share_tw</title>
    <desc>Created with Sketch.</desc>
    <defs></defs>
    <g id="ICON" stroke="none" stroke-width="1" fill="none" fill-rule="evenodd">
        <g id="Artboard" transform="translate(-240.000000, -210.000000)" fill="#315EFB">
            <g id="ico_share_tw" transform="translate(240.000000, 210.000000)">
                <g id="tw-copy">
                    <path d="M12,23 C18.0751322,23 23,18.0751322 23,12 C23,5.92486775 18.0751322,1 12,1 C5.92486775,1 1,5.92486775 1,12 C1,18.0751322 5.92486775,23 12,23 Z M12,24 C5.372583,24 0,18.627417 0,12 C0,5.372583 5.372583,0 12,0 C18.627417,0 24,5.372583 24,12 C24,18.627417 18.627417,24 12,24 Z" id="bg" fill-rule="nonzero"></path>
                    <g id="icon_tw" transform="translate(7.000000, 8.000000)">
                        <path d="M9.3745126,1.42527811 C9.81506419,1.14365455 10.1533619,0.697730288 10.3126771,0.166410236 C9.90042796,0.427141241 9.44378507,0.616513006 8.95777461,0.718582278 C8.56854018,0.276349714 8.01401807,0 7.40034237,0 C6.2219496,0 5.26659058,1.01878602 5.26659058,2.27538208 C5.26659058,2.45371933 5.28549691,2.62739125 5.321864,2.79392319 C3.54854969,2.69903447 1.97635758,1.7931494 0.923994294,0.416512406 C0.740332858,0.752578323 0.635111745,1.14345171 0.635111745,1.56045093 C0.635111745,2.34986506 1.01183072,3.04633774 1.58434617,3.45437142 C1.23456015,3.44256611 0.905582501,3.34021286 0.61787922,3.16978639 C0.617727057,3.17927932 0.617727057,3.18881281 0.617727057,3.19838688 C0.617727057,4.30086483 1.3532097,5.22054305 2.329301,5.42954976 C2.15024251,5.48155803 1.96174988,5.50934716 1.76713267,5.50934716 C1.62965288,5.50934716 1.49597718,5.49510777 1.36572515,5.46853568 C1.63722301,6.37255462 2.42520209,7.03040649 3.35887779,7.04878383 C2.62864479,7.65904935 1.70862577,8.02282326 0.708987161,8.02282326 C0.536776034,8.02282326 0.366923443,8.01207272 0.2,7.99105846 C1.14425107,8.63665878 2.26581075,9.01333333 3.47075606,9.01333333 C7.39535901,9.01333333 9.54147408,5.54610183 9.54147408,2.53923683 C9.54147408,2.44057527 9.53941988,2.34244111 9.53531146,2.24487489 C9.95216358,1.92406257 10.3139325,1.52329057 10.6,1.06698089 C10.2173466,1.24795506 9.80612458,1.3702678 9.3745126,1.42527811 Z" id="tw"></path>
                    </g>
                </g>
            </g>
        </g>
    </g>
</svg>