<?xml version="1.0" encoding="UTF-8"?>
<svg width="14px" height="14px" viewBox="0 0 14 14" version="1.1" xmlns="http://www.w3.org/2000/svg" xmlns:xlink="http://www.w3.org/1999/xlink">
    <!-- Generator: Sketch 42 (36781) - http://www.bohemiancoding.com/sketch -->
    <title>ico_message</title>
    <desc>Created with Sketch.</desc>
    <defs></defs>
    <g id="ICON" stroke="none" stroke-width="1" fill="none" fill-rule="evenodd">
        <g id="Artboard" transform="translate(-57.000000, -131.000000)" fill="#a2a2a2">
            <g id="ico_message" transform="translate(56.000000, 130.000000)">
                <g transform="translate(1.000000, 1.000000)" id="Combined-Shape">
                    <path d="M11.6713294,1.78659511 C10.4323411,0.675685125 8.79507793,0 7,0 C3.13400675,0 0,3.13400675 0,7 C0,10.8659932 3.13400675,14 7,14 C10.8659932,14 14,10.8659932 14,7 C14,6.24229299 13.8796128,5.51270391 13.6569225,4.82931689 L12.8454012,5.64083818 C12.9465403,6.07755251 13,6.53253317 13,7 C13,10.3137085 10.3137085,13 7,13 C3.6862915,13 1,10.3137085 1,7 C1,3.6862915 3.6862915,1 7,1 C8.51891549,1 9.90600685,1.56440617 10.96299,2.49493446 L11.6713294,1.78659511 Z"></path>
                    <path d="M10.1111111,9.33333333 L10.8888889,9.33333333 L10.8888889,0.777777778 L9.33333333,0.777777778 L9.33333333,7.77777778 L5.44444444,7.77777778 L5.44444444,9.33333333 L10.1111111,9.33333333 Z" transform="translate(8.166667, 5.055556) rotate(45.000000) translate(-8.166667, -5.055556) "></path>
                </g>
            </g>
        </g>
    </g>
</svg>