<?xml version="1.0" encoding="UTF-8"?>
<svg width="16px" height="10px" viewBox="0 0 16 10" version="1.1" xmlns="http://www.w3.org/2000/svg" xmlns:xlink="http://www.w3.org/1999/xlink">
    <!-- Generator: Sketch 42 (36781) - http://www.bohemiancoding.com/sketch -->
    <title>ico_view</title>
    <desc>Created with Sketch.</desc>
    <defs></defs>
    <g id="ICON" stroke="none" stroke-width="1" fill="none" fill-rule="evenodd">
        <g id="Artboard" transform="translate(-164.000000, -133.000000)" fill="#a2a2a2">
            <g id="ico_view" transform="translate(164.000000, 130.000000)">
                <g transform="translate(2.000000, 4.000000)">
                    <path d="M6,8 C9.3137085,8 12,4 12,4 C12,4 9.3137085,0 6,0 C2.6862915,0 2.22044605e-16,4 2.22044605e-16,4 C2.22044605e-16,4 2.6862915,8 6,8 Z M6,9 C4.25151043,9 2.60421201,8.13943854 1.07990792,6.73556754 C0.566409099,6.26263953 0.102716384,5.75868104 -0.30568942,5.25425469 C-0.553252899,4.9484864 -0.730442047,4.70600941 -0.830165686,4.55751676 L-1.20457882,4 L-0.830165686,3.44248324 C-0.730442047,3.29399059 -0.553252899,3.0515136 -0.30568942,2.74574531 C0.102716384,2.24131896 0.566409099,1.73736047 1.07990792,1.26443246 C2.60421201,-0.139438542 4.25151043,-1 6,-1 C7.74848957,-1 9.39578799,-0.139438542 10.9200921,1.26443246 C11.4335909,1.73736047 11.8972836,2.24131896 12.3056894,2.74574531 C12.5532529,3.0515136 12.730442,3.29399059 12.8301657,3.44248324 L13.2045788,4 L12.8301657,4.55751676 C12.730442,4.70600941 12.5532529,4.9484864 12.3056894,5.25425469 C11.8972836,5.75868104 11.4335909,6.26263953 10.9200921,6.73556754 C9.39578799,8.13943854 7.74848957,9 6,9 Z" id="Oval" fill-rule="nonzero"></path>
                    <path d="M6,6 C7.1045695,6 8,5.1045695 8,4 C8,2.8954305 7.1045695,2 6,2 C4.8954305,2 4,2.8954305 4,4 C4,5.1045695 4.8954305,6 6,6 Z M6,7 C4.34314575,7 3,5.65685425 3,4 C3,2.34314575 4.34314575,1 6,1 C7.65685425,1 9,2.34314575 9,4 C9,5.65685425 7.65685425,7 6,7 Z" id="Oval-2" fill-rule="nonzero"></path>
                </g>
            </g>
        </g>
    </g>
</svg>