<?xml version="1.0" encoding="UTF-8" standalone="no"?>
<svg width="30px" height="30px" viewBox="0 0 30 30" version="1.1" xmlns="http://www.w3.org/2000/svg" xmlns:xlink="http://www.w3.org/1999/xlink">
    <!-- Generator: Sketch 39.1 (31720) - http://www.bohemiancoding.com/sketch -->
    <title>lj</title>
    <desc>Created with Sketch.</desc>
    <defs></defs>
    <g id="Page-1" stroke="none" stroke-width="1" fill="none" fill-rule="evenodd">
        <g id="SM-hovers" transform="translate(-160.000000, 0.000000)">
            <g id="lj" transform="translate(160.000000, 0.000000)">
                <circle id="bg" fill="#FFFFFF" cx="15" cy="15" r="15"></circle>
                <path d="M9.43277823,12.8257687 L8,11.3943887 C8.65323333,9.87857035 9.86411623,8.66162604 11.3780696,8 L12.8090282,9.42909361 C13.6021402,9.0863909 14.4759155,8.89475714 15.3953846,8.89475714 C18.9930636,8.89475714 21.9099998,11.8121596 21.9099998,15.4098387 C21.9099998,19.0084503 18.9925973,21.9253865 15.3953846,21.9253865 C11.796773,21.9253865 8.88030301,19.0093828 8.88030301,15.4098387 C8.88030301,14.4879481 9.08622287,13.6228952 9.43286571,12.8272535 C9.43249768,12.8264203 9.43263794,12.8260945 9.43277823,12.8257687 Z M9.43277823,12.8257687 L9.43328997,12.8262799 C9.43314852,12.8266044 9.4330071,12.826929 9.43286571,12.8272535 L14.7314272,18.1160244 C15.3841943,16.6002061 16.5960097,15.3832617 18.1062329,14.7211694 L18.1071654,14.7211694 L12.8099607,9.43189118 L12.8076294,9.43142492 C11.2963322,10.093375 10.0856448,11.3094726 9.43277823,12.8257687 Z M18.4857703,16.5279354 C17.6082649,16.9121355 16.9051415,17.6203877 16.5251378,18.4997582 L18.999125,19.0112478 L18.4857703,16.5279354 Z" fill="#343b4c"></path>
            </g>
        </g>
    </g>
</svg>