<?xml version="1.0" encoding="UTF-8"?>
<svg width="253px" height="40px" viewBox="0 0 253 40" version="1.1" xmlns="http://www.w3.org/2000/svg" xmlns:xlink="http://www.w3.org/1999/xlink">
    <!-- Generator: Sketch 46.2 (44496) - http://www.bohemiancoding.com/sketch -->
    <title>ЛОГО: Доктор</title>
    <desc>Created with Sketch.</desc>
    <defs></defs>
    <g id="Review" stroke="none" stroke-width="1" fill="none" fill-rule="evenodd">
        <g id="ЛОГО:-Доктор" transform="translate(-1.000000, 0.000000)">
            <rect id="frame" fill="#FFFFFF" x="1" y="0" width="253" height="40"></rect>
            <g id="Group" transform="translate(1.000000, 3.000000)" fill="#315EFB">
                <g id="doctor" transform="translate(165.000000, 10.000000)">
                    <path d="M0.475,11.7500085 L2.09,11.7500085 C2.23,11.5850085 2.369,11.3100085 2.508,10.9240085 C2.648,10.5370085 2.78,10.0120085 2.907,9.34600854 C3.034,8.68100854 3.147,7.85200854 3.249,6.85700854 C3.35,5.86300854 3.439,4.66900854 3.515,3.27600854 L3.648,0.768008545 L12.293,0.768008545 L12.293,11.7500085 L13.87,11.7500085 L13.87,17.0890085 L11.248,17.0890085 L11.248,14.2960085 L3.097,14.2960085 L3.097,17.0890085 L0.475,17.0890085 L0.475,11.7500085 Z M9.671,11.7500085 L9.671,3.31400854 L6.061,3.31400854 L6.023,3.92200854 C5.968704,4.89837895 5.89902868,5.87383333 5.814,6.84800854 C5.738,7.69700854 5.653,8.43800854 5.558,9.07100854 C5.48036229,9.60993734 5.38195573,10.1456693 5.263,10.6770085 C5.18339514,11.0425292 5.07540095,11.4012839 4.94,11.7500085 L9.671,11.7500085 L9.671,11.7500085 Z M23.002,0.540008545 C24.915,0.540008545 26.536,1.21800854 27.866,2.57300854 C29.196,3.92800854 29.861,5.58100854 29.861,7.53200854 C29.861,9.49500854 29.196,11.1480085 27.866,12.4910085 C26.536,13.8340085 24.915,14.5050085 23.002,14.5050085 C21.102,14.5050085 19.487,13.8270085 18.157,12.4720085 C16.827,11.1290085 16.162,9.48200854 16.162,7.53200854 C16.162,5.59400854 16.827,3.94700854 18.157,2.59200854 C19.487,1.22400854 21.102,0.540008545 23.002,0.540008545 L23.002,0.540008545 Z M23.002,3.10500854 C21.786,3.10500854 20.779,3.53500854 19.981,4.39700854 C19.196,5.25800854 18.803,6.30300854 18.803,7.53200854 C18.803,8.76100854 19.196,9.80600854 19.981,10.6670085 C20.754,11.5160085 21.761,11.9400085 23.002,11.9400085 C24.243,11.9400085 25.25,11.5160085 26.023,10.6670085 C26.808,9.80600854 27.201,8.76100854 27.201,7.53200854 C27.201,6.30300854 26.808,5.25800854 26.023,4.39700854 C25.238,3.53600854 24.231,3.10500854 23.002,3.10500854 Z M35.63,14.2960085 L33.046,14.2960085 L33.046,0.768008545 L35.63,0.768008545 L35.63,4.85300854 C35.63,5.09300854 35.627,5.31500854 35.62,5.51800854 C35.614,5.72100854 35.605,5.90400854 35.592,6.06900854 L35.687,6.06900854 C36.042,5.51200854 36.333,5.11300854 36.561,4.87200854 L39.981,0.768008545 L43.306,0.768008545 L37.853,7.17100854 L43.572,14.2960085 L40.19,14.2960085 L36.561,9.71700854 C36.333,9.47700854 36.041,9.07700854 35.687,8.52000854 L35.592,8.52000854 C35.605,8.68500854 35.614,8.89400854 35.62,9.14700854 C35.627,9.40000854 35.63,9.64700854 35.63,9.88800854 L35.63,14.2960085 L35.63,14.2960085 Z M50.861,3.31400854 L50.861,14.2960085 L48.239,14.2960085 L48.239,3.31400854 L45.123,3.31400854 L45.123,0.768008545 L53.977,0.768008545 L53.977,3.31400854 L50.861,3.31400854 Z M62.235,0.540008545 C64.148,0.540008545 65.769,1.21800854 67.099,2.57300854 C68.429,3.92800854 69.094,5.58100854 69.094,7.53200854 C69.094,9.49500854 68.429,11.1480085 67.099,12.4910085 C65.769,13.8340085 64.148,14.5050085 62.235,14.5050085 C60.335,14.5050085 58.72,13.8270085 57.39,12.4720085 C56.06,11.1290085 55.395,9.48200854 55.395,7.53200854 C55.395,5.59400854 56.06,3.94700854 57.39,2.59200854 C58.72,1.22400854 60.335,0.540008545 62.235,0.540008545 L62.235,0.540008545 Z M62.235,3.10500854 C61.019,3.10500854 60.012,3.53500854 59.214,4.39700854 C58.429,5.25800854 58.036,6.30300854 58.036,7.53200854 C58.036,8.76100854 58.429,9.80600854 59.214,10.6670085 C59.987,11.5160085 60.994,11.9400085 62.235,11.9400085 C63.476,11.9400085 64.483,11.5160085 65.256,10.6670085 C66.041,9.80600854 66.434,8.76100854 66.434,7.53200854 C66.434,6.30300854 66.041,5.25800854 65.256,4.39700854 C64.471,3.53600854 63.464,3.10500854 62.235,3.10500854 Z M74.863,3.29500854 L74.863,7.26600854 L76.212,7.26600854 C76.947,7.26600854 77.532,7.08200854 77.97,6.71500854 C78.407,6.34800854 78.625,5.86000854 78.625,5.25200854 C78.625,4.64400854 78.4,4.16600854 77.951,3.81800854 C77.501,3.46900854 76.915,3.29500854 76.193,3.29500854 L74.863,3.29500854 Z M72.279,0.768008545 L76.231,0.768008545 C77.814,0.768008545 79.049,1.19200854 79.936,2.04100854 C80.823,2.89000854 81.266,3.96000854 81.266,5.25200854 C81.266,6.75900854 80.772,7.89900854 79.784,8.67200854 C78.809,9.43200854 77.561,9.81200854 76.041,9.81200854 L74.863,9.81200854 L74.863,14.2960085 L72.279,14.2960085 L72.279,0.768008545 Z" id="Shape"></path>
                </g>
                <g id="rambler">
                    <path d="M142.252,34.5499878 L147.389,34.5499878 L159.948,0.299987793 L154.81,0.299987793 L142.252,34.5499878 Z M130.492,22.5619878 C127.181,22.5619878 125.354,19.8219878 125.354,17.0819878 C125.354,14.3419878 127.181,11.6019878 130.491,11.6019878 C133.688,11.6019878 135.514,13.9999878 135.514,17.0819878 C135.514,20.0509878 133.802,22.5619878 130.491,22.5619878 L130.492,22.5619878 Z M125.469,10.1179878 L125.469,8.17798779 L120.674,8.17798779 L120.674,34.5499878 L125.583,34.5499878 L125.583,24.2749878 C126.153,24.8449878 128.094,26.4449878 131.063,26.4449878 C135.628,26.4449878 139.853,23.0189878 139.853,17.0819878 C139.966,10.8029878 135.286,7.72098779 131.063,7.72098779 C127.866,7.72098779 126.039,9.43298779 125.469,10.1179878 Z M109.143,11.4879878 C112.454,11.4879878 113.025,14.1139878 113.139,15.1419878 L104.805,15.1419878 C104.919,13.8859878 106.175,11.4879878 109.143,11.4879878 L109.143,11.4879878 Z M99.896,17.0819878 C99.896,22.3339878 103.663,26.4439878 109.372,26.4439878 C115.08,26.4439878 117.478,22.4479878 117.478,22.4479878 L113.824,20.0509878 C113.824,20.0509878 112.568,22.5619878 109.372,22.5619878 C106.061,22.5619878 104.691,19.7079878 104.691,18.6809878 L117.82,18.6809878 C117.82,18.6809878 117.934,17.8809878 117.934,17.6529878 L117.934,17.0829878 C117.934,11.7169878 114.737,7.72098779 109.257,7.72098779 C103.663,7.72098779 99.896,11.8309878 99.896,17.0819878 L99.896,17.0819878 Z M99.553,25.9869878 L93.046,8.17698779 L87.908,8.17698779 L81.287,25.9869878 L86.652,25.9869878 L90.42,14.6849878 L90.534,14.6849878 L94.302,25.9869878 L99.553,25.9869878 Z M71.697,22.5619878 C68.386,22.5619878 67.016,19.9369878 67.016,17.4249878 C67.016,14.9129878 68.386,12.6299878 71.696,12.6299878 C75.007,12.6299878 76.149,15.4839878 76.149,17.5399878 C76.149,19.5939878 75.007,22.5629878 71.697,22.5629878 L71.697,22.5619878 Z M67.587,9.66198779 C67.701,9.09098779 68.272,4.29598779 74.665,4.29598779 L78.661,4.29598779 L80.145,0.299987793 L74.779,0.299987793 C67.701,0.299987793 62.221,3.60998779 62.221,15.1419878 C62.221,21.4209878 64.961,26.5579878 71.582,26.5579878 C77.862,26.5579878 81.058,21.9919878 81.058,17.4249878 C81.058,10.8029878 76.149,8.17698779 72.153,8.17698779 C69.756,8.17698779 68.043,9.31898779 67.587,9.66198779 L67.587,9.66198779 Z M42.584,8.29198779 L42.47,8.17698779 L38.246,8.17698779 L38.246,25.9869878 L43.155,25.9869878 L43.155,15.5989878 L47.95,21.6499878 L48.064,21.8789878 L49.32,21.8789878 L54.23,15.5989878 L54.23,25.9889878 L59.138,25.9889878 L59.138,8.17898779 L54.914,8.17898779 L48.749,15.7139878 L42.584,8.29298779 L42.584,8.29198779 Z M25.574,22.6769878 C23.062,22.6769878 22.834,21.1919878 22.834,20.6219878 C22.834,19.2519878 23.975,18.4519878 26.829,18.1099878 C27.629,17.9959878 28.427,17.9959878 29.227,17.9959878 L29.569,17.9959878 L29.569,18.5659878 C29.569,20.9639878 28.199,22.6759878 25.573,22.6759878 L25.574,22.6769878 Z M34.136,16.6259878 L34.136,15.5979878 C33.907,10.0039878 31.51,7.72098779 26.486,7.72098779 C23.062,7.72098779 20.778,9.09098779 19.979,9.66098779 L21.349,13.3149878 C21.349,13.3149878 23.404,11.4879878 26.03,11.4879878 C29.797,11.4879878 29.34,14.5709878 29.34,14.5709878 C28.085,14.5709878 17.924,13.9999878 17.924,20.6209878 C17.924,24.2749878 21.007,26.3299878 24.317,26.3299878 C27.286,26.3299878 28.998,24.8459878 29.455,24.2749878 C29.455,24.3889878 29.569,25.9869878 29.569,25.9869878 L34.136,25.9869878 C34.364,25.9869878 34.136,24.5029878 34.136,21.9919878 L34.136,16.6259878 L34.136,16.6259878 Z M7.535,12.6299878 L5.023,12.6299878 L5.023,4.52398779 L7.535,4.52398779 C9.475,4.63798779 12.33,5.66598779 12.33,8.63398779 C12.33,11.6029878 9.476,12.6299878 7.535,12.6299878 Z M0,0.299987793 L0,26.1019878 L5.138,26.1019878 L5.138,16.9679878 L7.878,16.9679878 C13.129,16.9679878 17.468,14.2279878 17.468,8.63398779 C17.468,3.15398779 13.129,0.299987793 7.992,0.299987793 L0,0.299987793 Z" id="Shape"></path>
                </g>
            </g>
        </g>
    </g>
</svg>