<svg xmlns="http://www.w3.org/2000/svg" width="87" height="20" viewBox="0 0 87 20">
    <path fill="#DFE4EC" fill-rule="evenodd" d="M77.252 19.6h2.79L86.862 1h-2.79l-6.82 18.6zm-3.659-9.486c0-1.674-.992-2.976-2.728-2.976-1.797 0-2.789 1.488-2.789 2.976s.992 2.976 2.789 2.976c1.798 0 2.728-1.364 2.728-2.976zM71.175 5.03c2.294 0 4.836 1.674 4.774 5.084 0 3.224-2.294 5.084-4.774 5.084-1.611 0-2.665-.868-2.975-1.178v5.58h-2.666V5.278h2.604v1.054c.31-.372 1.302-1.302 3.037-1.302zM56.916 9.06h4.526c-.062-.558-.372-1.984-2.17-1.984a2.314 2.314 0 0 0-2.356 1.984zm2.418-4.03c2.976 0 4.712 2.17 4.712 5.084v.31c0 .124-.062.558-.062.558h-7.13c0 .558.744 2.108 2.542 2.108 1.736 0 2.418-1.364 2.418-1.364l1.984 1.302s-1.302 2.17-4.402 2.17-5.146-2.232-5.146-5.084c0-2.852 2.046-5.084 5.084-5.084zm-8.122 9.92h2.852L50.53 5.278h-2.79l-3.596 9.672h2.914l2.046-6.138h.062l2.046 6.138zm-9.858-4.588c0-1.116-.62-2.666-2.418-2.666s-2.542 1.24-2.542 2.604.744 2.79 2.542 2.79c1.798 0 2.418-1.612 2.418-2.728zm-2.17-5.084c2.17 0 4.836 1.426 4.836 5.022 0 2.48-1.736 4.96-5.146 4.96-3.596 0-5.084-2.79-5.084-6.2 0-6.262 2.976-8.06 6.82-8.06h2.914l-.806 2.17h-2.17c-3.472 0-3.782 2.604-3.844 2.914a4.285 4.285 0 0 1 2.48-.806zM26.474 9.37l-3.348-4.03-.062-.062H20.77v9.672h2.666V9.308l2.604 3.286.062.124h.682l2.666-3.41v5.642h2.666V5.278h-2.294L26.474 9.37zm-10.416 1.55v-.31h-.186c-.434 0-.868 0-1.302.062-1.55.186-2.17.62-2.17 1.364 0 .31.124 1.116 1.488 1.116 1.426 0 2.17-.93 2.17-2.232zm2.48 1.86c0 1.364.124 2.17 0 2.17h-2.48s-.062-.868-.062-.93c-.248.31-1.178 1.116-2.79 1.116-1.798 0-3.472-1.116-3.472-3.1 0-3.596 5.518-3.286 6.2-3.286 0 0 .248-1.674-1.798-1.674-1.426 0-2.542.992-2.542.992l-.744-1.984c.434-.31 1.674-1.054 3.534-1.054 2.728 0 4.03 1.24 4.154 4.278V12.78zM6.696 5.526c0-1.612-1.55-2.17-2.604-2.232H2.728v4.402h1.364c1.054 0 2.604-.558 2.604-2.17zM4.34 1c2.79 0 5.146 1.55 5.146 4.526 0 3.038-2.356 4.526-5.208 4.526H2.79v4.96H0V1h4.34z"/>
</svg>
