<?xml version="1.0" encoding="UTF-8" standalone="no"?>
<svg width="163px" height="25px" viewBox="0 0 163 25" version="1.1" xmlns="http://www.w3.org/2000/svg" xmlns:xlink="http://www.w3.org/1999/xlink">
    <!-- Generator: Sketch 39.1 (31720) - http://www.bohemiancoding.com/sketch -->
    <title>LOGO</title>
    <desc>Created with Sketch.</desc>
    <defs></defs>
    <g id="Symbols" stroke="none" stroke-width="1" fill="none" fill-rule="evenodd">
        <g id="NAVIGATION" transform="translate(-20.000000, -15.000000)" fill="#343b4c">
            <g id="LOGO">
                <g transform="translate(20.000000, 15.000000)">
                    <path d="M119.276,13.152 L118.769,13.152 L118.769,17 L116.845,17 L116.845,7.9 L118.769,7.9 L118.769,11.904 L119.224,11.709 L121.954,7.9 L124.151,7.9 L121.265,11.709 L120.511,12.203 L121.291,12.723 L124.593,17 L122.214,17 L119.276,13.152 Z M132.214,9.59 L130.121,9.59 C130.077666,10.4133375 130.032167,11.1564967 129.9845,11.8195 C129.936833,12.4825033 129.871834,13.0783307 129.7895,13.607 C129.707166,14.1356693 129.596667,14.6058313 129.458,15.0175 C129.319333,15.4291687 129.146001,15.7909984 128.938,16.103 C128.799333,16.3023343 128.645501,16.4669994 128.4765,16.597 C128.307499,16.7270007 128.132001,16.828833 127.95,16.9025 C127.767999,16.976167 127.590334,17.0281665 127.417,17.0585 C127.243666,17.0888335 127.083334,17.104 126.936,17.104 C126.710666,17.104 126.535167,17.0866668 126.4095,17.052 C126.283833,17.0173332 126.147334,16.9653337 126,16.896 L126.208,15.284 C126.303334,15.3186668 126.415999,15.336 126.546,15.336 C126.693334,15.336 126.840666,15.3013337 126.988,15.232 C127.135334,15.1626663 127.265333,15.0500008 127.378,14.894 C127.516667,14.7033324 127.640166,14.4303351 127.7485,14.075 C127.856834,13.7196649 127.947833,13.2581695 128.0215,12.6905 C128.095167,12.1228305 128.155833,11.4446706 128.2035,10.656 C128.251167,9.86732939 128.283667,8.94867191 128.301,7.9 L134.138,7.9 L134.138,17 L132.214,17 L132.214,9.59 Z M142.132994,15.063 L139.064994,15.063 L138.323994,17 L136.399994,17 L139.961994,7.835 L141.378994,7.835 L144.953994,17 L142.912994,17 L142.132994,15.063 Z M139.600006,13.542 L141.680006,13.542 L140.978006,11.644 L140.666006,10.201 L140.601006,10.201 L140.289006,11.657 L139.600006,13.542 Z M153.456997,16.61 C153.170996,16.8093343 152.793999,16.9544995 152.325997,17.0455 C151.857995,17.1365005 151.376999,17.182 150.882997,17.182 C150.302327,17.182 149.7455,17.0953342 149.212497,16.922 C148.679494,16.7486658 148.207166,16.4713352 147.795497,16.09 C147.383828,15.7086648 147.056665,15.219003 146.813997,14.621 C146.571329,14.022997 146.449997,13.2993376 146.449997,12.45 C146.449997,11.5659956 146.588662,10.8228363 146.865997,10.2205 C147.143332,9.61816366 147.498661,9.13283518 147.931997,8.7645 C148.365332,8.39616483 148.846328,8.12966749 149.374997,7.965 C149.903666,7.80033251 150.423661,7.718 150.934997,7.718 C151.498333,7.718 151.972828,7.75266632 152.358497,7.822 C152.744166,7.89133368 153.062662,7.97366619 153.313997,8.069 L152.936997,9.681 C152.720329,9.58566619 152.466832,9.51633355 152.176497,9.473 C151.886162,9.42966645 151.519999,9.408 151.077997,9.408 C150.687995,9.408 150.334832,9.47083271 150.018497,9.5965 C149.702162,9.7221673 149.431331,9.91066541 149.205997,10.162 C148.980662,10.4133346 148.805164,10.7296648 148.679497,11.111 C148.55383,11.4923352 148.490997,11.9386641 148.490997,12.45 C148.490997,12.9006689 148.54733,13.3123315 148.659997,13.685 C148.772664,14.0576685 148.941662,14.378332 149.166997,14.647 C149.392331,14.915668 149.678329,15.1236659 150.024997,15.271 C150.371665,15.4183341 150.774661,15.492 151.233997,15.492 C151.658666,15.492 152.016162,15.4530004 152.306497,15.375 C152.596832,15.2969996 152.854662,15.1973339 153.079997,15.076 L153.456997,16.61 Z M162.277004,16.61 C161.991003,16.8093343 161.614007,16.9544995 161.146004,17.0455 C160.678002,17.1365005 160.197007,17.182 159.703004,17.182 C159.122335,17.182 158.565507,17.0953342 158.032504,16.922 C157.499502,16.7486658 157.027173,16.4713352 156.615504,16.09 C156.203836,15.7086648 155.876672,15.219003 155.634004,14.621 C155.391336,14.022997 155.270004,13.2993376 155.270004,12.45 C155.270004,11.5659956 155.40867,10.8228363 155.686004,10.2205 C155.963339,9.61816366 156.318669,9.13283518 156.752004,8.7645 C157.18534,8.39616483 157.666335,8.12966749 158.195004,7.965 C158.723674,7.80033251 159.243668,7.718 159.755004,7.718 C160.31834,7.718 160.792836,7.75266632 161.178504,7.822 C161.564173,7.89133368 161.88267,7.97366619 162.134004,8.069 L161.757004,9.681 C161.540337,9.58566619 161.286839,9.51633355 160.996504,9.473 C160.706169,9.42966645 160.340006,9.408 159.898004,9.408 C159.508002,9.408 159.154839,9.47083271 158.838504,9.5965 C158.522169,9.7221673 158.251339,9.91066541 158.026004,10.162 C157.80067,10.4133346 157.625172,10.7296648 157.499504,11.111 C157.373837,11.4923352 157.311004,11.9386641 157.311004,12.45 C157.311004,12.9006689 157.367337,13.3123315 157.480004,13.685 C157.592672,14.0576685 157.76167,14.378332 157.987004,14.647 C158.212339,14.915668 158.498336,15.1236659 158.845004,15.271 C159.191673,15.4183341 159.594669,15.492 160.054004,15.492 C160.478673,15.492 160.836169,15.4530004 161.126504,15.375 C161.416839,15.2969996 161.67467,15.1973339 161.900004,15.076 L162.277004,16.61 Z" id="КЛАСС"></path>
                    <g id="Rambler/">
                        <path d="M74.1935484,10.7258065 C74.2741935,9.83870968 75.1612903,8.14516129 77.2580645,8.14516129 C79.5967742,8.14516129 80,10 80.0806452,10.7258065 L74.1935484,10.7258065 L74.1935484,10.7258065 L74.1935484,10.7258065 Z M77.3387097,5.48387097 C73.3870968,5.48387097 70.7258065,8.38709677 70.7258065,12.0967742 C70.7258065,15.8064516 73.3870968,18.7096774 77.4193548,18.7096774 C81.4516129,18.7096774 83.1451613,15.8870968 83.1451613,15.8870968 L80.5645161,14.1935484 C80.5645161,14.1935484 79.6774194,15.9677419 77.4193548,15.9677419 C75.0806452,15.9677419 74.1129032,13.9516129 74.1129032,13.2258065 L83.3870968,13.2258065 C83.3870968,13.2258065 83.4677419,12.6612903 83.4677419,12.5 L83.4677419,12.0967742 C83.4677419,8.30645161 81.2096774,5.48387097 77.3387097,5.48387097 L77.3387097,5.48387097 L77.3387097,5.48387097 Z" id="Shape"></path>
                        <path d="M95.8870968,12.0967742 C95.8870968,14.1935484 94.6774194,15.9677419 92.3387097,15.9677419 C90,15.9677419 88.7096774,14.0322581 88.7096774,12.0967742 C88.7096774,10.1612903 90,8.22580645 92.3387097,8.22580645 C94.5967742,8.22580645 95.8870968,9.91935484 95.8870968,12.0967742 M92.7419355,5.48387097 C90.483871,5.48387097 89.1935484,6.69354839 88.7903226,7.17741935 L88.7903226,5.80645161 L85.4032258,5.80645161 L85.4032258,24.4354839 L88.8709677,24.4354839 L88.8709677,17.1774194 C89.2741935,17.5806452 90.6451613,18.7096774 92.7419355,18.7096774 C95.9677419,18.7096774 98.9516129,16.2903226 98.9516129,12.0967742 C99.0322581,7.66129032 95.7258065,5.48387097 92.7419355,5.48387097" id="Shape"></path>
                        <path d="M21.0483871,13.1451613 C21.0483871,14.8387097 20.0806452,16.0483871 18.2258065,16.0483871 C16.4516129,16.0483871 16.2903226,15 16.2903226,14.5967742 C16.2903226,13.6290323 17.0967742,13.0645161 19.1129032,12.8225806 C19.6774194,12.7419355 20.2419355,12.7419355 20.8064516,12.7419355 L21.0483871,12.7419355 L21.0483871,13.1451613 L21.0483871,13.1451613 L21.0483871,13.1451613 Z M24.2741935,15.6451613 L24.2741935,11.8548387 L24.2741935,11.1290323 C24.1129032,7.17741935 22.4193548,5.56451613 18.8709677,5.56451613 C16.4516129,5.56451613 14.8387097,6.53225806 14.2741935,6.93548387 L15.2419355,9.51612903 C15.2419355,9.51612903 16.6935484,8.22580645 18.5483871,8.22580645 C21.2096774,8.22580645 20.8870968,10.4032258 20.8870968,10.4032258 C20,10.4032258 12.8225806,10 12.8225806,14.6774194 C12.8225806,17.2580645 15,18.7096774 17.3387097,18.7096774 C19.4354839,18.7096774 20.6451613,17.6612903 20.9677419,17.2580645 C20.9677419,17.3387097 21.0483871,18.4677419 21.0483871,18.4677419 L24.2741935,18.4677419 C24.4354839,18.3870968 24.2741935,17.3387097 24.2741935,15.6451613 L24.2741935,15.6451613 L24.2741935,15.6451613 Z" id="Shape"></path>
                        <polygon id="Shape" points="34.5967742 11.1290323 30.2419355 5.88709677 30.1612903 5.80645161 27.1774194 5.80645161 27.1774194 18.3870968 30.6451613 18.3870968 30.6451613 11.0483871 34.0322581 15.4032258 34.1129032 15.483871 35 15.483871 38.4677419 11.0483871 38.4677419 18.3870968 41.9354839 18.3870968 41.9354839 5.80645161 38.9516129 5.80645161"></polygon>
                        <polygon id="Shape" points="109.516129 0.241935484 100.645161 24.4354839 104.274194 24.4354839 113.145161 0.241935484"></polygon>
                        <path d="M8.87096774,6.12903226 C8.87096774,8.22580645 6.85483871,8.9516129 5.48387097,8.9516129 L3.70967742,8.9516129 L3.70967742,3.22580645 L5.48387097,3.22580645 C6.85483871,3.30645161 8.87096774,4.03225806 8.87096774,6.12903226 M5.80645161,0.241935484 L0.161290323,0.241935484 L0.161290323,18.4677419 L3.79032258,18.4677419 L3.79032258,12.016129 L5.72580645,12.016129 C9.43548387,12.016129 12.5,10.0806452 12.5,6.12903226 C12.5,2.25806452 9.43548387,0.241935484 5.80645161,0.241935484" id="Shape"></path>
                        <path d="M53.9516129,12.4193548 C53.9516129,13.8709677 53.1451613,15.9677419 50.8064516,15.9677419 C48.4677419,15.9677419 47.5,14.1129032 47.5,12.3387097 C47.5,10.5645161 48.4677419,8.9516129 50.8064516,8.9516129 C53.1451613,8.9516129 53.9516129,10.9677419 53.9516129,12.4193548 M51.1290323,5.80645161 C49.4354839,5.80645161 48.2258065,6.61290323 47.9032258,6.85483871 C47.983871,6.4516129 48.3870968,3.06451613 52.9032258,3.06451613 L55.7258065,3.06451613 L56.7741935,0.241935484 L52.983871,0.241935484 C47.983871,0.241935484 44.1129032,2.58064516 44.1129032,10.7258065 C44.1129032,15.1612903 46.0483871,18.7903226 50.7258065,18.7903226 C55.1612903,18.7903226 57.4193548,15.5645161 57.4193548,12.3387097 C57.4193548,7.66129032 53.9516129,5.80645161 51.1290323,5.80645161" id="Shape"></path>
                        <polygon id="Shape" points="66.7741935 18.3870968 70.483871 18.3870968 65.8870968 5.80645161 62.2580645 5.80645161 57.5806452 18.3870968 61.3709677 18.3870968 64.0322581 10.4032258 64.1129032 10.4032258"></polygon>
                    </g>
                </g>
            </g>
        </g>
    </g>
</svg>
