<?xml version="1.0" encoding="UTF-8"?>
<svg width="137px" height="19px" viewBox="0 0 137 19" version="1.1" xmlns="http://www.w3.org/2000/svg" xmlns:xlink="http://www.w3.org/1999/xlink">
    <!-- Generator: Sketch 43.2 (39069) - http://www.bohemiancoding.com/sketch -->
    <title>logo-footer</title>
    <desc>Created with Sketch.</desc>
    <defs></defs>
    <g id="Symbols" stroke="none" stroke-width="1" fill="none" fill-rule="evenodd">
        <g id="FOOTER" transform="translate(-218.000000, -31.000000)" fill="#DFE4EC">
            <g id="foooter">
                <g id="logo-footer" transform="translate(217.000000, 30.000000)">
                    <path d="M84.7446723,1.0952381 L77.9512257,19.7142857 L80.730363,19.7142857 L87.5238095,1.0952381 L84.7446723,1.0952381 M74.306605,10.2185714 C74.306605,11.8322222 73.3803248,13.197619 71.5895165,13.197619 C69.7987083,13.197619 68.8106761,11.7080952 68.8106761,10.2185714 C68.8106761,8.72904762 69.7987083,7.23952381 71.5895165,7.23952381 C73.3185728,7.23952381 74.306605,8.54285714 74.306605,10.2185714 M71.8982766,5.12936508 C70.1692203,5.12936508 69.1811882,6.06031746 68.8724281,6.43269841 L68.8724281,5.37761905 L66.2788437,5.37761905 L66.2788437,19.7142857 L68.9341801,19.7142857 L68.9341801,14.1285714 C69.2429402,14.4388889 70.2927243,15.3077778 71.8982766,15.3077778 C74.368357,15.3077778 76.6531813,13.445873 76.6531813,10.2185714 C76.7149334,6.80507937 74.183101,5.12936508 71.8982766,5.12936508 M57.6943995,9.16349206 C57.7561581,8.48079365 58.4355028,7.17746032 60.0412265,7.17746032 C61.8322261,7.17746032 62.1410191,8.60492063 62.2027777,9.16349206 L57.6943995,9.16349206 M60.1029851,5.12936508 C57.0768135,5.12936508 55.0387795,7.36365079 55.0387795,10.2185714 C55.0387795,13.0734921 57.0768135,15.3077778 60.1647438,15.3077778 C63.252674,15.3077778 64.5496048,13.1355556 64.5496048,13.1355556 L62.5733294,11.8322222 C62.5733294,11.8322222 61.8939847,13.197619 60.1647438,13.197619 C58.3737442,13.197619 57.6326409,11.6460317 57.6326409,11.0874603 L64.7348806,11.0874603 C64.7348806,11.0874603 64.7966392,10.6530159 64.7966392,10.5288889 L64.7966392,10.2185714 C64.7966392,7.3015873 63.0673982,5.12936508 60.1029851,5.12936508 M52.0126059,15.0595238 L54.8535018,15.0595238 L51.3332613,5.37761905 L48.554124,5.37761905 L44.972125,15.0595238 L47.8747794,15.0595238 L49.9128134,8.9152381 L49.974572,8.9152381 L52.0126059,15.0595238 M42.1929896,10.4668254 C42.1929896,11.5839683 41.5754036,13.197619 39.784404,13.197619 C37.9934045,13.197619 37.2523012,11.7701587 37.2523012,10.4047619 C37.2523012,9.03936508 37.9934045,7.79809524 39.784404,7.79809524 C41.5754036,7.79809524 42.1929896,9.34968254 42.1929896,10.4668254 M40.0314384,5.37761905 C38.7345077,5.37761905 37.8081286,5.99825397 37.5610942,6.18444444 C37.6228528,5.87412698 37.9316459,3.26746032 41.3901277,3.26746032 L43.5516789,3.26746032 L44.3545408,1.0952381 L41.4518863,1.0952381 C37.6228528,1.0952381 34.6584398,2.89507937 34.6584398,9.16349206 C34.6584398,12.5769841 36.1406463,15.3698413 39.7226454,15.3698413 C43.1193687,15.3698413 44.8486096,12.8873016 44.8486096,10.4047619 C44.8486096,6.80507937 42.1929896,5.37761905 40.0314384,5.37761905 M27.3709244,9.47380952 L24.0359597,5.43968254 L23.9742011,5.37761905 L21.6891327,5.37761905 L21.6891327,15.0595238 L24.3447527,15.0595238 L24.3447527,9.41174603 L26.9386141,12.7011111 L27.0003727,12.8252381 L27.6797174,12.8252381 L30.3353374,9.41174603 L30.3353374,15.0595238 L32.9909574,15.0595238 L32.9909574,5.37761905 L30.7058891,5.37761905 L27.3709244,9.47380952 M16.9954768,11.0253968 C16.9954768,12.3287302 16.2543736,13.2596825 14.8339257,13.2596825 C13.4752363,13.2596825 13.3517191,12.4528571 13.3517191,12.1425397 C13.3517191,11.3977778 13.9693052,10.9633333 15.5132703,10.7771429 C15.9455806,10.7150794 16.3778908,10.7150794 16.810201,10.7150794 L16.9954768,10.7150794 L16.9954768,11.0253968 M19.465821,12.8873016 L19.465821,9.97031746 L19.465821,9.41174603 C19.3423038,6.37063492 18.0453731,5.12936508 15.3279945,5.12936508 C13.4752363,5.12936508 12.2400642,5.87412698 11.807754,6.18444444 L12.5488573,8.17047619 C12.5488573,8.17047619 13.6605122,7.17746032 15.0809601,7.17746032 C17.118994,7.17746032 16.8719596,8.8531746 16.8719596,8.8531746 C16.192615,8.8531746 10.6960991,8.54285714 10.6960991,12.1425397 C10.6960991,14.1285714 12.3635815,15.2457143 14.154581,15.2457143 C15.7603047,15.2457143 16.6866838,14.4388889 16.9337182,14.1285714 C16.9337182,14.1906349 16.9954768,15.0595238 16.9954768,15.0595238 L19.465821,15.0595238 C19.5893383,15.0595238 19.465821,14.2526984 19.465821,12.8873016 M7.66992935,5.62587302 C7.66992935,7.23952381 6.12596422,7.79809524 5.07606794,7.79809524 L3.71737862,7.79809524 L3.71737862,3.3915873 L5.07606794,3.3915873 C6.12596422,3.45365079 7.66992935,4.01222222 7.66992935,5.62587302 M5.32310236,1.0952381 L1,1.0952381 L1,15.1215873 L3.77913723,15.1215873 L3.77913723,10.1565079 L5.26134375,10.1565079 C8.10223959,10.1565079 10.4490666,8.66698413 10.4490666,5.62587302 C10.4490666,2.6468254 8.10223959,1.0952381 5.32310236,1.0952381" id="rambler"></path>
                    <path d="M90.2619048,15.3333333 L90.2619048,12.3299164 L91.1936834,12.3299164 C91.5115843,11.945137 91.8514094,10.6946039 92.0158409,7.56292712 L92.0925756,6.15206932 L97.0803316,6.15206932 L97.0803316,12.3299164 L97.990186,12.3299164 L97.990186,15.3333333 L96.4774161,15.3333333 L96.4774161,13.7621508 L91.7746747,13.7621508 L91.7746747,15.3333333 L90.2619048,15.3333333 Z M92.8379985,12.3299164 L95.5675617,12.3299164 L95.5675617,7.58430376 L93.4847625,7.58430376 L93.4628383,7.92632989 C93.3312931,10.4060194 93.0901268,11.6993057 92.8379985,12.3299164 Z M103.464972,6.02380952 C104.572145,6.02380952 105.503923,6.40858892 106.27127,7.16745941 C107.038617,7.92632989 107.422291,8.85621344 107.422291,9.95711005 C107.422291,11.0580067 107.038617,11.9878902 106.27127,12.7467607 C105.503923,13.5056312 104.572145,13.8797223 103.464972,13.8797223 C102.368762,13.8797223 101.436984,13.4949429 100.669637,12.7360724 C99.9022896,11.9772019 99.5186161,11.0473184 99.5186161,9.95711005 C99.5186161,8.86690175 99.9022896,7.93701821 100.669637,7.17814772 C101.436984,6.40858892 102.368762,6.02380952 103.464972,6.02380952 Z M103.464972,7.46673227 C102.763398,7.46673227 102.182407,7.71256356 101.721998,8.19353781 C101.272552,8.67451206 101.042348,9.26236947 101.042348,9.95711005 C101.042348,10.6518506 101.272552,11.2397081 101.721998,11.7206823 C102.171445,12.2016566 102.752436,12.4367995 103.464972,12.4367995 C104.177509,12.4367995 104.7585,12.2016566 105.207947,11.7206823 C105.657393,11.2397081 105.887597,10.6518506 105.887597,9.95711005 C105.887597,9.26236947 105.657393,8.67451206 105.207947,8.19353781 C104.7585,7.71256356 104.177509,7.46673227 103.464972,7.46673227 Z M110.956786,11.2824613 C110.956786,11.0152534 110.945823,10.6946039 110.934861,10.5129025 L110.989672,10.5129025 C111.18699,10.8121754 111.351421,11.03663 111.493928,11.1862665 L113.58769,13.7621508 L115.538944,13.7621508 L112.239351,9.75403204 L115.385474,6.15206932 L113.467107,6.15206932 L111.493928,8.46074572 C111.351421,8.61038216 111.18699,8.8348368 110.989672,9.13410967 L110.934861,9.13410967 C110.945823,8.95240829 110.956786,8.71726532 110.956786,8.45005741 L110.956786,6.15206932 L109.46594,6.15206932 L109.46594,13.7621508 L110.956786,13.7621508 L110.956786,11.2824613 Z M121.748191,7.58430376 L121.748191,6.15206932 L116.639852,6.15206932 L116.639852,7.58430376 L118.437636,7.58430376 L118.437636,13.7621508 L119.950406,13.7621508 L119.950406,7.58430376 L121.748191,7.58430376 Z M126.718721,6.02380952 C127.825893,6.02380952 128.757672,6.40858892 129.525019,7.16745941 C130.292366,7.92632989 130.676039,8.85621344 130.676039,9.95711005 C130.676039,11.0580067 130.292366,11.9878902 129.525019,12.7467607 C128.757672,13.5056312 127.825893,13.8797223 126.718721,13.8797223 C125.622511,13.8797223 124.690732,13.4949429 123.923385,12.7360724 C123.156038,11.9772019 122.772364,11.0473184 122.772364,9.95711005 C122.772364,8.86690175 123.156038,7.93701821 123.923385,7.17814772 C124.690732,6.40858892 125.622511,6.02380952 126.718721,6.02380952 Z M126.718721,7.46673227 C126.017146,7.46673227 125.436155,7.71256356 124.975747,8.19353781 C124.526301,8.67451206 124.296096,9.26236947 124.296096,9.95711005 C124.296096,10.6518506 124.526301,11.2397081 124.975747,11.7206823 C125.425193,12.2016566 126.006184,12.4367995 126.718721,12.4367995 C127.431257,12.4367995 128.012249,12.2016566 128.461695,11.7206823 C128.911141,11.2397081 129.141345,10.6518506 129.141345,9.95711005 C129.141345,9.26236947 128.911141,8.67451206 128.461695,8.19353781 C128.012249,7.71256356 127.431257,7.46673227 126.718721,7.46673227 Z M134.977881,7.57361544 L134.210534,7.57361544 L134.210534,9.80747362 L134.988843,9.80747362 C135.832925,9.80747362 136.38103,9.35856432 136.38103,8.67451206 C136.38103,8.00114811 135.811001,7.57361544 134.977881,7.57361544 Z M132.719688,13.7621508 L132.719688,6.15206932 L134.999805,6.15206932 C135.90966,6.15206932 136.622196,6.38721229 137.137415,6.86818654 C137.652634,7.34916079 137.904762,7.94770652 137.904762,8.67451206 C137.904762,9.51888907 137.619747,10.1601881 137.049718,10.5984091 C136.490651,11.0259417 135.767152,11.2397081 134.890184,11.2397081 L134.210534,11.2397081 L134.210534,13.7621508 L132.719688,13.7621508 Z" id="ДОКТОР"></path>
                </g>
            </g>
        </g>
    </g>
</svg>