<?xml version="1.0" encoding="UTF-8"?>
<svg width="247px" height="35px" viewBox="0 0 247 35" version="1.1" xmlns="http://www.w3.org/2000/svg" xmlns:xlink="http://www.w3.org/1999/xlink">
    <!-- Generator: Sketch 46.1 (44463) - http://www.bohemiancoding.com/sketch -->
    <title>logotype_doctor</title>
    <desc>Created with Sketch.</desc>
    <defs></defs>
    <g id="Work" stroke="none" stroke-width="1" fill="none" fill-rule="evenodd">
        <g id="logotype_doctor" transform="translate(0.000000, -3.000000)">
            <rect id="area" opacity="0" x="0" y="0" width="247" height="40"></rect>
            <path d="M142.251674,37.25 L147.389174,37.25 L159.947507,3 L154.810007,3 L142.251674,37.25 Z M130.491448,25.2625 C127.180968,25.2625 125.354497,22.5225 125.354497,19.7825 C125.354497,17.0425 127.180968,14.3025 130.491448,14.3025 C133.687773,14.3025 135.514245,16.7 135.514245,19.7825 C135.514245,22.7508333 133.801928,25.2625 130.491448,25.2625 Z M125.468651,12.8183333 L125.468651,10.8775 L120.674163,10.8775 L120.674163,37.25 L125.582806,37.25 L125.582806,26.975 C126.153578,27.5458333 128.094204,29.1441667 131.06222,29.1441667 C135.628399,29.1441667 139.852115,25.7191667 139.852115,19.7825 C139.966269,13.5033333 135.285936,10.4208333 131.06222,10.4208333 C127.865895,10.4208333 126.039423,12.1333333 125.468651,12.8183333 Z M109.143333,14.1883333 C112.454167,14.1883333 113.025,16.8141667 113.139167,17.8416667 L104.805,17.8416667 C104.919167,16.5858333 106.175,14.1883333 109.143333,14.1883333 Z M99.8958333,19.7825 C99.8958333,25.0341667 103.663333,29.1441667 109.371667,29.1441667 C115.08,29.1441667 117.4775,25.1483333 117.4775,25.1483333 L113.824167,22.7508333 C113.824167,22.7508333 112.568333,25.2625 109.371667,25.2625 C106.060833,25.2625 104.690833,22.4083333 104.690833,21.3808333 L117.82,21.3808333 C117.82,21.3808333 117.934167,20.5816667 117.934167,20.3533333 L117.934167,19.7825 C117.934167,14.4166667 114.7375,10.4208333 109.2575,10.4208333 C103.663333,10.4208333 99.8958333,14.5308333 99.8958333,19.7825 Z M99.5533298,28.6875 L93.0458298,10.8775 L87.9083298,10.8775 L81.2866632,28.6875 L86.6524965,28.6875 L90.4199965,17.385 L90.5341632,17.385 L94.3016632,28.6875 L99.5533298,28.6875 Z M71.6966667,25.2625 C68.3858333,25.2625 67.0158333,22.6366667 67.0158333,20.125 C67.0158333,17.6133333 68.3858333,15.33 71.6966667,15.33 C75.0075,15.33 76.1491667,18.1841667 76.1491667,20.2391667 C76.1491667,22.2941667 75.0075,25.2625 71.6966667,25.2625 Z M67.5866667,12.3616667 C67.7008333,11.7908333 68.2716667,6.99583333 74.665,6.99583333 L78.6608333,6.99583333 L80.145,3 L74.7791667,3 C67.7008333,3 62.2208333,6.31083333 62.2208333,17.8416667 C62.2208333,24.1208333 64.9608333,29.2583333 71.5825,29.2583333 C77.8616667,29.2583333 81.0583333,24.6916667 81.0583333,20.125 C81.0583333,13.5033333 76.1491667,10.8775 72.1533333,10.8775 C69.7558333,10.8775 68.0433333,12.0191667 67.5866667,12.3616667 Z M42.5841667,10.9916667 L42.47,10.8775 L38.2458333,10.8775 L38.2458333,28.6875 L43.155,28.6875 L43.155,18.2983333 L47.95,24.3491667 L48.0641667,24.5775 L49.32,24.5775 L54.2291667,18.2983333 L54.2291667,28.6875 L59.1383333,28.6875 L59.1383333,10.8775 L54.9141667,10.8775 L48.7491667,18.4125 L42.5841667,10.9916667 Z M25.5733298,25.3766667 C23.0616632,25.3766667 22.8333298,23.8925 22.8333298,23.3216667 C22.8333298,21.9516667 23.9749965,21.1525 26.8291632,20.81 C27.6283298,20.6958333 28.4274965,20.6958333 29.2266632,20.6958333 L29.5691632,20.6958333 L29.5691632,21.2666667 C29.5691632,23.6641667 28.1991632,25.3766667 25.5733298,25.3766667 Z M34.1358298,19.3258333 L34.1358298,18.2983333 C33.9074965,12.7041667 31.5099965,10.4208333 26.4866632,10.4208333 C23.0616632,10.4208333 20.7783298,11.7908333 19.9791632,12.3616667 L21.3491632,16.015 C21.3491632,16.015 23.4041632,14.1883333 26.0299965,14.1883333 C29.7974965,14.1883333 29.3408298,17.2708333 29.3408298,17.2708333 C28.0849965,17.2708333 17.9241632,16.7 17.9241632,23.3216667 C17.9241632,26.975 21.0066632,29.03 24.3174965,29.03 C27.2858298,29.03 28.9983298,27.5458333 29.4549965,26.975 C29.4549965,27.0891667 29.5691632,28.6875 29.5691632,28.6875 L34.1358298,28.6875 C34.3641632,28.6875 34.1358298,27.2033333 34.1358298,24.6916667 L34.1358298,19.3258333 Z M7.535,15.33 L5.02333333,15.33 L5.02333333,7.22416667 L7.535,7.22416667 C9.47583333,7.33833333 12.33,8.36583333 12.33,11.3341667 C12.33,14.3025 9.47583333,15.33 7.535,15.33 Z M1.42108547e-14,3 L1.42108547e-14,28.8016667 L5.1375,28.8016667 L5.1375,19.6683333 L7.8775,19.6683333 C13.1291667,19.6683333 17.4675,16.9283333 17.4675,11.3341667 C17.4675,5.85416667 13.1291667,3 7.99166667,3 L1.42108547e-14,3 Z" id="rambler" fill="#315EFB"></path>
            <path d="M165.475,24.454 L167.09,24.454 C167.229334,24.2893325 167.368666,24.0138353 167.508,23.6275 C167.647334,23.2411647 167.780333,22.7155033 167.907,22.0505 C168.033667,21.3854967 168.147666,20.5558383 168.249,19.5615 C168.350334,18.5671617 168.439,17.3733403 168.515,15.98 L168.648,13.472 L177.293,13.472 L177.293,24.454 L178.87,24.454 L178.87,29.793 L176.248,29.793 L176.248,27 L168.097,27 L168.097,29.793 L165.475,29.793 L165.475,24.454 Z M174.671,24.454 L174.671,16.018 L171.061,16.018 L171.023,16.626 C170.959666,17.7280055 170.89,18.7033291 170.814,19.552 C170.738,20.4006709 170.6525,21.1416635 170.5575,21.775 C170.4625,22.4083365 170.364334,22.9434978 170.263,23.3805 C170.161666,23.8175022 170.054001,24.1753319 169.94,24.454 L174.671,24.454 Z M188.002,13.244 C189.914676,13.244 191.535993,13.9216599 192.866,15.277 C194.196007,16.6323401 194.861,18.2853236 194.861,20.236 C194.861,22.1993432 194.196007,23.8523266 192.866,25.195 C191.535993,26.5376734 189.914676,27.209 188.002,27.209 C186.10199,27.209 184.487007,26.5313401 183.157,25.176 C181.826993,23.8333266 181.162,22.1866764 181.162,20.236 C181.162,18.2979903 181.826993,16.6513401 183.157,15.296 C184.487007,13.9279932 186.10199,13.244 188.002,13.244 Z M188.002,15.809 C186.785994,15.809 185.779004,16.2396624 184.981,17.101 C184.195663,17.9623376 183.803,19.0073272 183.803,20.236 C183.803,21.4646728 184.195663,22.5096624 184.981,23.371 C185.753671,24.2196709 186.76066,24.644 188.002,24.644 C189.24334,24.644 190.250329,24.2196709 191.023,23.371 C191.808337,22.5096624 192.201,21.4646728 192.201,20.236 C192.201,19.0073272 191.808337,17.9623376 191.023,17.101 C190.237663,16.2396624 189.230673,15.809 188.002,15.809 Z M200.63,27 L198.046,27 L198.046,13.472 L200.63,13.472 L200.63,17.557 C200.63,17.7976679 200.626833,18.0193323 200.6205,18.222 C200.614167,18.4246677 200.604667,18.6083325 200.592,18.773 L200.687,18.773 C201.041668,18.2156639 201.332999,17.8166679 201.561,17.576 L204.981,13.472 L208.306,13.472 L202.853,19.875 L208.572,27 L205.19,27 L201.561,22.421 C201.332999,22.1803321 201.041668,21.7813361 200.687,21.224 L200.592,21.224 C200.604667,21.3886675 200.614167,21.5976654 200.6205,21.851 C200.626833,22.1043346 200.63,22.3513321 200.63,22.592 L200.63,27 Z M215.861,16.018 L215.861,27 L213.239,27 L213.239,16.018 L210.123,16.018 L210.123,13.472 L218.977,13.472 L218.977,16.018 L215.861,16.018 Z M227.235,13.244 C229.147676,13.244 230.768993,13.9216599 232.099,15.277 C233.429007,16.6323401 234.094,18.2853236 234.094,20.236 C234.094,22.1993432 233.429007,23.8523266 232.099,25.195 C230.768993,26.5376734 229.147676,27.209 227.235,27.209 C225.334991,27.209 223.720007,26.5313401 222.39,25.176 C221.059993,23.8333266 220.395,22.1866764 220.395,20.236 C220.395,18.2979903 221.059993,16.6513401 222.39,15.296 C223.720007,13.9279932 225.334991,13.244 227.235,13.244 Z M227.235,15.809 C226.018994,15.809 225.012004,16.2396624 224.214,17.101 C223.428663,17.9623376 223.036,19.0073272 223.036,20.236 C223.036,21.4646728 223.428663,22.5096624 224.214,23.371 C224.986671,24.2196709 225.99366,24.644 227.235,24.644 C228.47634,24.644 229.483329,24.2196709 230.256,23.371 C231.041337,22.5096624 231.434,21.4646728 231.434,20.236 C231.434,19.0073272 231.041337,17.9623376 230.256,17.101 C229.470663,16.2396624 228.463673,15.809 227.235,15.809 Z M239.863,15.999 L239.863,19.97 L241.212,19.97 C241.94667,19.97 242.532498,19.7863352 242.9695,19.419 C243.406502,19.0516648 243.625,18.564003 243.625,17.956 C243.625,17.347997 243.400169,16.8698351 242.9505,16.5215 C242.500831,16.1731649 241.915004,15.999 241.193,15.999 L239.863,15.999 Z M237.279,13.472 L241.231,13.472 C242.814341,13.472 244.049329,13.8963291 244.936,14.745 C245.822671,15.5936709 246.266,16.6639935 246.266,17.956 C246.266,19.4633409 245.772005,20.6033295 244.784,21.376 C243.808662,22.1360038 242.561008,22.516 241.041,22.516 L239.863,22.516 L239.863,27 L237.279,27 L237.279,13.472 Z" id="project_name" fill="#315EFB"></path>
        </g>
    </g>
</svg>