<?xml version="1.0" encoding="UTF-8" standalone="no"?>
<svg width="36px" height="36px" viewBox="0 0 36 36" version="1.1" xmlns="http://www.w3.org/2000/svg" xmlns:xlink="http://www.w3.org/1999/xlink">
    <!-- Generator: Sketch 39.1 (31720) - http://www.bohemiancoding.com/sketch -->
    <title>math</title>
    <desc>Created with Sketch.</desc>
    <defs>
        <rect id="path-1" x="0" y="0" width="30" height="30" rx="4"></rect>
        <mask id="mask-2" maskContentUnits="userSpaceOnUse" maskUnits="objectBoundingBox" x="0" y="0" width="30" height="30" fill="white">
            <use xlink:href="#path-1"></use>
        </mask>
        <path d="M14,14 L0,14 L0,16 L14,16 L14,30 L16,30 L16,16 L30,16 L30,14 L16,14 L16,-6.123234e-17 L14,6.123234e-17 L14,14 Z" id="path-3"></path>
        <mask id="mask-4" maskContentUnits="userSpaceOnUse" maskUnits="objectBoundingBox" x="0" y="0" width="30" height="30" fill="white">
            <use xlink:href="#path-3"></use>
        </mask>
        <path d="M18,21 L26,21 L26,23 L18,23 L18,21 Z M23,24 L23,26 L21,26 L21,24 L23,24 Z M23,18 L23,20 L21,20 L21,18 L23,18 Z" id="path-5"></path>
        <mask id="mask-6" maskContentUnits="userSpaceOnUse" maskUnits="objectBoundingBox" x="0" y="0" width="8" height="8" fill="white">
            <use xlink:href="#path-5"></use>
        </mask>
        <path d="M7,21 L4,21 L4,23 L7,23 L7,26 L9,26 L9,23 L12,23 L12,21 L9,21 L9,18 L7,18 L7,21 Z" id="path-7"></path>
        <mask id="mask-8" maskContentUnits="userSpaceOnUse" maskUnits="objectBoundingBox" x="0" y="0" width="8" height="8" fill="white">
            <use xlink:href="#path-7"></use>
        </mask>
        <rect id="path-9" x="18" y="7" width="8" height="2"></rect>
        <mask id="mask-10" maskContentUnits="userSpaceOnUse" maskUnits="objectBoundingBox" x="0" y="0" width="8" height="2" fill="white">
            <use xlink:href="#path-9"></use>
        </mask>
        <path d="M7,7 L4,7 L4,9 L7,9 L7,12 L9,12 L9,9 L12,9 L12,7 L9,7 L9,4 L7,4 L7,7 Z" id="path-11"></path>
        <mask id="mask-12" maskContentUnits="userSpaceOnUse" maskUnits="objectBoundingBox" x="0" y="0" width="8" height="8" fill="white">
            <use xlink:href="#path-11"></use>
        </mask>
    </defs>
    <g id="Symbols" stroke="none" stroke-width="1" fill="none" fill-rule="evenodd">
        <g id="math" stroke="#FFFFFF">
            <g transform="translate(3.000000, 3.000000)">
                <use id="Rectangle-6" mask="url(#mask-2)" stroke-width="4" xlink:href="#path-1"></use>
                <use id="Combined-Shape" mask="url(#mask-4)" stroke-width="2" xlink:href="#path-3"></use>
                <use id="Combined-Shape" mask="url(#mask-6)" stroke-width="2" xlink:href="#path-5"></use>
                <use id="Combined-Shape" mask="url(#mask-8)" stroke-width="2" transform="translate(8.000000, 22.000000) rotate(45.000000) translate(-8.000000, -22.000000) " xlink:href="#path-7"></use>
                <use id="Combined-Shape" mask="url(#mask-10)" stroke-width="2" xlink:href="#path-9"></use>
                <use id="Combined-Shape" mask="url(#mask-12)" stroke-width="2" xlink:href="#path-11"></use>
            </g>
        </g>
    </g>
</svg>