<?xml version="1.0" encoding="UTF-8"?>
<svg width="18px" height="18px" viewBox="0 0 18 18" version="1.1" xmlns="http://www.w3.org/2000/svg" xmlns:xlink="http://www.w3.org/1999/xlink">
    <!-- Generator: Sketch 45.1 (43504) - http://www.bohemiancoding.com/sketch -->
    <title>1co-answers-blue-export</title>
    <desc>Created with Sketch.</desc>
    <defs></defs>
    <g id="Symbols" stroke="none" stroke-width="1" fill-rule="evenodd">
        <g id="1co-answers-blue-export">
            <path d="M14.5284074,3.21753399 C13.0919592,1.84381355 11.1445212,1 9,1 C4.581722,1 1,4.581722 1,9 C1,13.418278 4.581722,17 9,17 C13.418278,17 17,13.418278 17,9 C17,8.21132587 16.8858749,7.44930708 16.6732384,6.72955719 L15.594359,7.80843657 C15.6637691,8.19512765 15.7,8.59333273 15.7,9 C15.7,12.7003078 12.7003078,15.7 9,15.7 C5.29969218,15.7 2.3,12.7003078 2.3,9 C2.3,5.29969218 5.29969218,2.3 9,2.3 C10.7855343,2.3 12.4079361,2.99845329 13.6088934,4.13704795 L14.5284074,3.21753399 Z" id="Combined-Shape" fill-rule="nonzero"></path>
            <path d="M12.9500597,10.8492671 L8.25347026,10.8492671 L8.25347026,12.1492671 L12.9500597,12.1492671 L12.9500597,12.1526776 L14.2500597,12.1526776 L14.2500597,0.152677643 L12.9500597,0.152677643 L12.9500597,10.8492671 Z" id="Combined-Shape" transform="translate(11.251765, 6.152678) rotate(45.000000) translate(-11.251765, -6.152678) "></path>
        </g>
    </g>
</svg>