<?xml version="1.0" encoding="UTF-8"?>
<svg width="35px" height="35px" viewBox="0 0 35 35" version="1.1" xmlns="http://www.w3.org/2000/svg" xmlns:xlink="http://www.w3.org/1999/xlink">
    <!-- Generator: Sketch 42 (36781) - http://www.bohemiancoding.com/sketch -->
    <title>Share!</title>
    <desc>Created with Sketch.</desc>
    <defs>
        <path d="M16,12 L13.3542019,12 C12.0638446,12 11,13.0540121 11,14.3542019 L11,22.6457981 C11,23.9361554 12.0540121,25 13.3542019,25 L21.6457981,25 C22.9361554,25 24,23.9459879 24,22.6457981 L24,14.3542019 C24,13.0638446 22.9459879,12 21.6457981,12 L19,12 L19,13 L21.6457981,13 C22.3896712,13 23,13.6120896 23,14.3542019 L23,22.6457981 C23,23.3896712 22.3879104,24 21.6457981,24 L13.3542019,24 C12.6103288,24 12,23.3879104 12,22.6457981 L12,14.3542019 C12,13.6103288 12.6120896,13 13.3542019,13 L16,13 L16,12 Z" id="path-1"></path>
        <mask id="mask-2" maskContentUnits="userSpaceOnUse" maskUnits="objectBoundingBox" x="0" y="0" width="13" height="13" fill="white">
            <use xlink:href="#path-1"></use>
        </mask>
    </defs>
    <g id="Symbols" stroke="none" stroke-width="1" fill="none" fill-rule="evenodd">
        <g id="Share!">
            <g id="Share">
                <rect id="@grid" opacity="0.400000006" x="0" y="0" width="35" height="35"></rect>
                <path d="M1,17.5 C1,8.38730163 8.385298,1 17.5,1 C26.6126984,1 34,8.385298 34,17.5 C34,26.6126984 26.614702,34 17.5,34 C8.38730163,34 1,26.614702 1,17.5 Z M2,17.5 C2,26.0622958 8.93958638,33 17.5,33 C26.0622958,33 33,26.0604136 33,17.5 C33,8.93770418 26.0604136,2 17.5,2 C8.93770418,2 2,8.93958638 2,17.5 Z" id="Combined-Shape" fill="#315EFB" fill-rule="nonzero"></path>
                <use id="Combined-Shape" stroke="#315EFB" mask="url(#mask-2)" stroke-width="2" xlink:href="#path-1"></use>
                <rect id="arrow" fill="#315EFB" x="17" y="8" width="1" height="10"></rect>
                <path d="M16.0284393,7.82842712 L19.5284393,7.82842712 L19.5284393,8.82842712 L16.5284393,8.82842712 L16.5284393,11.8284271 L15.5284393,11.8284271 L15.5284393,7.82842712 L16.0284393,7.82842712 Z" id="Combined-Shape" fill="#315EFB" transform="translate(17.528439, 9.828427) rotate(45.000000) translate(-17.528439, -9.828427) "></path>
            </g>
        </g>
    </g>
</svg>