<svg width="143" height="22" viewBox="0 0 143 22" xmlns="http://www.w3.org/2000/svg" xmlns:xlink="http://www.w3.org/1999/xlink"><title>343DBC43-886A-4D45-98C0-D8EA410672F4</title><defs><path id="a" d="M0 0h144v24H0z"/></defs><g transform="translate(0 -1)" fill="none" fill-rule="evenodd"><mask id="b" fill="#fff"><use xlink:href="#a"/></mask><path d="M104.963 12.574h-.446v3.386h-1.693V7.952h1.693v3.524l.4-.172 2.403-3.352h1.933l-2.54 3.352-.663.435.686.457 2.906 3.764h-2.094l-2.585-3.386zm11.385-3.135h-1.842c-.038.725-.078 1.379-.12 1.962-.042.584-.099 1.108-.171 1.573a7.54 7.54 0 0 1-.292 1.241c-.122.363-.275.681-.458.956a1.938 1.938 0 0 1-.869.703 2.467 2.467 0 0 1-.892.177c-.199 0-.353-.015-.464-.045a2.28 2.28 0 0 1-.36-.138l.183-1.418a.907.907 0 0 0 .686-.046.899.899 0 0 0 .344-.297c.122-.168.23-.408.326-.721.095-.313.175-.719.24-1.218.065-.5.118-1.097.16-1.79.042-.695.07-1.503.086-2.426h5.136v8.008h-1.693V9.44zm8.729 4.816h-2.7l-.652 1.705h-1.693l3.135-8.065h1.247l3.146 8.065h-1.797l-.686-1.705zm-2.229-1.338h1.83l-.617-1.67-.275-1.27h-.057l-.275 1.281-.606 1.659zm12.194 2.7c-.252.175-.583.303-.995.383-.412.08-.835.12-1.27.12a4.723 4.723 0 0 1-1.47-.229 3.329 3.329 0 0 1-1.247-.732c-.362-.335-.65-.766-.864-1.293-.213-.526-.32-1.163-.32-1.91 0-.778.122-1.432.366-1.962s.557-.957.938-1.281a3.595 3.595 0 0 1 1.27-.704 4.6 4.6 0 0 1 1.373-.217c.496 0 .913.03 1.252.091.34.061.62.134.841.218l-.331 1.418a2.624 2.624 0 0 0-.67-.183 6.741 6.741 0 0 0-.966-.057c-.344 0-.654.055-.933.166-.278.11-.516.276-.715.498a2.32 2.32 0 0 0-.463.835c-.11.335-.166.728-.166 1.178 0 .397.05.759.149 1.087.099.328.248.61.446.846.198.237.45.42.755.55.305.13.66.194 1.064.194.374 0 .688-.034.944-.103.255-.069.482-.156.68-.263l.332 1.35zm7.762 0c-.252.175-.584.303-.996.383-.411.08-.835.12-1.27.12a4.723 4.723 0 0 1-1.47-.229 3.329 3.329 0 0 1-1.246-.732c-.363-.335-.65-.766-.864-1.293-.214-.526-.32-1.163-.32-1.91 0-.778.122-1.432.366-1.962s.556-.957.938-1.281a3.595 3.595 0 0 1 1.27-.704 4.6 4.6 0 0 1 1.372-.217c.496 0 .914.03 1.253.091.34.061.62.134.84.218l-.33 1.418a2.624 2.624 0 0 0-.67-.183 6.741 6.741 0 0 0-.967-.057c-.343 0-.654.055-.932.166-.278.11-.517.276-.715.498a2.32 2.32 0 0 0-.463.835c-.111.335-.166.728-.166 1.178 0 .397.05.759.148 1.087.1.328.248.61.447.846.198.237.45.42.755.55.305.13.66.194 1.064.194.373 0 .688-.034.943-.103.256-.069.483-.156.681-.263l.332 1.35z" fill="#315EFB" mask="url(#b)"/><g mask="url(#b)" fill="#315EFB"><path d="M65.29 10.439c.071-.78.852-2.271 2.697-2.271 2.058 0 2.413 1.632 2.484 2.27h-5.18zm2.768-4.613c-3.477 0-5.82 2.555-5.82 5.82 0 3.264 2.343 5.819 5.891 5.819s5.039-2.484 5.039-2.484l-2.271-1.49s-.78 1.56-2.768 1.56c-2.058 0-2.91-1.774-2.91-2.412h8.162s.07-.497.07-.639v-.355c0-3.335-1.986-5.82-5.393-5.82zM84.38 11.645c0 1.845-1.064 3.407-3.122 3.407s-3.193-1.704-3.193-3.407S79.2 8.24 81.258 8.24c1.987 0 3.123 1.49 3.123 3.406m-2.768-5.82c-1.987 0-3.123 1.065-3.478 1.491V6.11h-2.98v16.393h3.051v-6.387c.355.355 1.562 1.349 3.407 1.349 2.839 0 5.464-2.13 5.464-5.82.071-3.903-2.838-5.82-5.464-5.82M18.523 12.568c0 1.49-.852 2.555-2.484 2.555-1.562 0-1.704-.923-1.704-1.278 0-.851.71-1.348 2.484-1.561.497-.071.994-.071 1.49-.071h.214v.355zm2.838 2.2V10.794c-.142-3.478-1.632-4.897-4.755-4.897-2.129 0-3.548.851-4.045 1.206l.852 2.271s1.277-1.135 2.91-1.135c2.342 0 2.058 1.916 2.058 1.916-.781 0-7.097-.355-7.097 3.761 0 2.271 1.916 3.549 3.974 3.549 1.845 0 2.91-.923 3.194-1.278 0 .071.07 1.065.07 1.065h2.84c.141-.071 0-.994 0-2.484zM30.445 10.794L26.613 6.18l-.071-.071h-2.626v11.07h3.052v-6.457l2.98 3.832.071.07h.781l3.052-3.902v6.458h3.051V6.11h-2.626zM96.374 1.213l-7.806 21.29h3.193l7.807-21.29zM7.806 6.394c0 1.845-1.774 2.483-2.98 2.483H3.265V3.84h1.56c1.207.07 2.981.71 2.981 2.555M5.11 1.213H.142v16.039h3.193v-5.678H5.04c3.264 0 5.961-1.703 5.961-5.18 0-3.407-2.697-5.181-5.89-5.181M47.477 11.929c0 1.277-.71 3.123-2.767 3.123-2.058 0-2.91-1.633-2.91-3.194s.852-2.98 2.91-2.98c2.058 0 2.767 1.774 2.767 3.051m-2.483-5.82c-1.49 0-2.555.71-2.84.923.072-.355.427-3.335 4.4-3.335h2.485l.922-2.484h-3.335c-4.4 0-7.807 2.058-7.807 9.226 0 3.903 1.704 7.096 5.82 7.096 3.903 0 5.89-2.838 5.89-5.677 0-4.116-3.052-5.748-5.535-5.748M58.761 17.18h3.265L57.98 6.11h-3.194l-4.116 11.07h3.335l2.342-7.025h.071z"/></g></g></svg>