<?xml version="1.0" encoding="UTF-8"?>
<svg width="151px" height="139px" viewBox="0 0 151 139" version="1.1" xmlns="http://www.w3.org/2000/svg" xmlns:xlink="http://www.w3.org/1999/xlink">
    <!-- Generator: Sketch 42 (36781) - http://www.bohemiancoding.com/sketch -->
    <title>ILLUSTRATION</title>
    <desc>Created with Sketch.</desc>
    <defs>
        <rect id="path-1" x="25.6666667" y="80.2083333" width="98.3888889" height="2.13888889" rx="1.06944444"></rect>
        <mask id="mask-2" maskContentUnits="userSpaceOnUse" maskUnits="objectBoundingBox" x="0" y="0" width="98.3888889" height="2.13888889" fill="white">
            <use xlink:href="#path-1"></use>
        </mask>
        <rect id="path-3" x="17.1111111" y="75.9305556" width="113.361111" height="2.13888889" rx="1.06944444"></rect>
        <mask id="mask-4" maskContentUnits="userSpaceOnUse" maskUnits="objectBoundingBox" x="0" y="0" width="113.361111" height="2.13888889" fill="white">
            <use xlink:href="#path-3"></use>
        </mask>
        <rect id="path-5" x="10.6944444" y="71.6527778" width="128.333333" height="2.13888889" rx="1.06944444"></rect>
        <mask id="mask-6" maskContentUnits="userSpaceOnUse" maskUnits="objectBoundingBox" x="0" y="0" width="128.333333" height="2.13888889" fill="white">
            <use xlink:href="#path-5"></use>
        </mask>
        <path d="M56.6612393,8.57922029 C49.1548086,8.90617436 42.521373,12.5974388 38.2312994,18.1826469 C38.1427922,18.1812544 38.0541166,18.1805556 37.9652778,18.1805556 C30.4757627,18.1805556 24.1463502,23.1475452 22.091414,29.9671509 C21.8591811,29.9520913 21.624928,29.9444444 21.3888889,29.9444444 C15.8434472,29.9444444 11.2838149,34.1651966 10.7472485,39.5694444 L1.07716739,39.5694444 C0.484221598,39.5694444 0,40.048251 0,40.6388889 C0,41.2336446 0.482264266,41.7083333 1.07716739,41.7083333 L10.7472485,41.7083333 C11.2838149,47.1125812 15.8434472,51.3333333 21.3888889,51.3333333 C24.1980357,51.3333333 26.7542121,50.2502387 28.6626008,48.4788668 C31.3149938,50.2805412 34.5171894,51.3333333 37.9652778,51.3333333 C38.967428,51.3333333 39.9488074,51.2444027 40.9019548,51.0740025 C45.3036553,55.2137023 51.2306356,57.75 57.75,57.75 C63.8792457,57.75 69.4848826,55.5081643 73.7916667,51.7997369 C78.0984508,55.5081643 83.7040877,57.75 89.8333333,57.75 C92.1325721,57.75 94.3581289,57.4345301 96.4690806,56.8445136 C100.005581,59.4312674 104.366124,60.9583333 109.083333,60.9583333 C116.585362,60.9583333 123.185304,57.0960424 127.003197,51.251423 C127.438987,51.3054874 127.882908,51.3333333 128.333333,51.3333333 C133.878775,51.3333333 138.438407,47.1125812 138.974974,41.7083333 L148.645055,41.7083333 C149.238001,41.7083333 149.722222,41.2295267 149.722222,40.6388889 C149.722222,40.0441332 149.239958,39.5694444 148.645055,39.5694444 L138.974974,39.5694444 C138.438407,34.1651966 133.878775,29.9444444 128.333333,29.9444444 C128.285441,29.9444444 128.237623,29.9447592 128.18988,29.9453869 C124.705484,23.0414452 117.589193,18.2834885 109.351694,18.1822046 C105.06161,12.5972439 98.4283265,8.90616572 90.922094,8.57922029 C87.0209833,3.37062959 80.7999513,4.22772928e-13 73.7916667,4.22772928e-13 C66.783382,4.22772928e-13 60.5623501,3.37062959 56.6612393,8.57922029 Z" id="path-7"></path>
        <mask id="mask-8" maskContentUnits="userSpaceOnUse" maskUnits="objectBoundingBox" x="0" y="0" width="149.722222" height="60.9583333" fill="white">
            <use xlink:href="#path-7"></use>
        </mask>
        <path d="M124.055556,31.0138889 C124.055556,30.423251 124.529697,29.9444444 125.123985,29.9444444 L127.264904,29.9444444 C127.854981,29.9444444 128.333333,30.4191332 128.333333,31.0138889 C128.333333,31.6045267 127.859192,32.0833333 127.264904,32.0833333 L125.123985,32.0833333 C124.533908,32.0833333 124.055556,31.6086446 124.055556,31.0138889 Z M22.5434024,31.0616179 C22.5434024,30.4706732 23.0235334,29.9916178 23.6139127,29.9916178 L25.0335781,29.9916178 L25.7615682,29.9916178 C26.3480032,29.9916178 26.8234027,30.4665532 26.8234027,31.0616179 C26.8234027,31.6525626 26.3490147,32.1316179 25.7544184,32.1316179 L23.6123867,32.1316179 C23.022003,32.1316179 22.5434024,31.6566826 22.5434024,31.0616179 Z M38.5,19.25 C38.5,18.6593621 38.9741416,18.1805556 39.5684292,18.1805556 L41.7093486,18.1805556 C42.2994257,18.1805556 42.7777778,18.6552443 42.7777778,19.25 C42.7777778,19.8406379 42.3036362,20.3194444 41.7093486,20.3194444 L39.5684292,20.3194444 C38.978352,20.3194444 38.5,19.8447557 38.5,19.25 Z M105.875,19.25 C105.875,18.6593621 106.349142,18.1805556 106.943429,18.1805556 L109.084349,18.1805556 C109.674426,18.1805556 110.152778,18.6552443 110.152778,19.25 C110.152778,19.8406379 109.678636,20.3194444 109.084349,20.3194444 L106.943429,20.3194444 C106.353352,20.3194444 105.875,19.8447557 105.875,19.25 Z M86.625,9.625 C86.625,9.03436214 87.0991416,8.55555556 87.6934292,8.55555556 L89.8343486,8.55555556 C90.4244257,8.55555556 90.9027778,9.03024432 90.9027778,9.625 C90.9027778,10.2156379 90.4286362,10.6944444 89.8343486,10.6944444 L87.6934292,10.6944444 C87.103352,10.6944444 86.625,10.2197557 86.625,9.625 Z M56.6805556,9.625 C56.6805556,9.03436214 57.1546971,8.55555556 57.7489848,8.55555556 L59.8899041,8.55555556 C60.4799813,8.55555556 60.9583333,9.03024432 60.9583333,9.625 C60.9583333,10.2156379 60.4841917,10.6944444 59.8899041,10.6944444 L57.7489848,10.6944444 C57.1589076,10.6944444 56.6805556,10.2197557 56.6805556,9.625 Z" id="path-9"></path>
        <mask id="mask-10" maskContentUnits="userSpaceOnUse" maskUnits="objectBoundingBox" x="0" y="0" width="105.789931" height="23.5760624" fill="white">
            <use xlink:href="#path-9"></use>
        </mask>
        <path d="M64.1666667,6.41666667 C64.1666667,5.22715531 63.2178846,4.27777778 61.9019608,4.15196078 C60.8596587,4.15196078 60.0147059,3.30700798 60.0147059,2.26470588 C59.8888889,0.964585801 58.9312757,0 57.75,0 C56.5604886,0 55.6111111,0.948782036 55.4852941,2.26470588 C55.4852941,3.30700798 54.6403413,4.15196078 53.5980392,4.15196078 C52.2979191,4.27777778 51.3333333,5.23539095 51.3333333,6.41666667 C51.3333333,7.45223698 52.052432,8.30580564 53.1068447,8.59240936 C53.2635867,8.63501398 53.4277385,8.6650899 53.5980392,8.68137255 C54.6403413,8.68137255 55.4852941,9.52632535 55.4852941,10.5686275 C55.6111111,11.8687475 56.5687243,12.8333333 57.75,12.8333333 C58.9395114,12.8333333 59.8888889,11.8845513 60.0147059,10.5686275 C60.0147059,9.52632535 60.8596587,8.68137255 61.9019608,8.68137255 C63.2020809,8.55555556 64.1666667,7.59794238 64.1666667,6.41666667 Z" id="path-11"></path>
        <mask id="mask-12" maskContentUnits="userSpaceOnUse" maskUnits="objectBoundingBox" x="0" y="0" width="12.8333333" height="12.8333333" fill="white">
            <use xlink:href="#path-11"></use>
        </mask>
        <path d="M0,10.0010071 C0,4.47760342 4.47937894,0 10.0027605,0 L85.5555556,0 L85.5555556,106.944444 L10.0027605,106.944444 C4.47838843,106.944444 0,102.468412 0,96.9434373 L0,10.0010071 Z" id="path-13"></path>
        <mask id="mask-14" maskContentUnits="userSpaceOnUse" maskUnits="objectBoundingBox" x="0" y="0" width="85.5555556" height="106.944444" fill="white">
            <use xlink:href="#path-13"></use>
        </mask>
        <polygon id="path-15" points="85.5555556 0 85.5555556 106.944444 10.6944444 106.944444 10.6944444 0"></polygon>
        <mask id="mask-16" maskContentUnits="userSpaceOnUse" maskUnits="objectBoundingBox" x="0" y="0" width="74.8611111" height="106.944444" fill="white">
            <use xlink:href="#path-15"></use>
        </mask>
        <path d="M0,95.5611339 C0,90.0352055 4.47937894,85.5555556 10.0027605,85.5555556 L85.5555556,85.5555556 L85.5555556,106.944444 L10.0027605,106.944444 C4.47838843,106.944444 0,102.460632 0,96.9388661 L0,95.5611339 Z" id="path-17"></path>
        <mask id="mask-18" maskContentUnits="userSpaceOnUse" maskUnits="objectBoundingBox" x="0" y="0" width="85.5555556" height="21.3888889" fill="white">
            <use xlink:href="#path-17"></use>
        </mask>
        <path d="M5.34722222,96.25 C5.34722222,92.7061729 8.22552758,89.8333333 11.7585584,89.8333333 L85.5555556,89.8333333 L85.5555556,102.666667 L11.7585584,102.666667 C8.21767521,102.666667 5.34722222,99.7866162 5.34722222,96.25 L5.34722222,96.25 Z" id="path-19"></path>
        <filter x="-50%" y="-50%" width="200%" height="200%" filterUnits="objectBoundingBox" id="filter-20">
            <feOffset dx="0" dy="6" in="SourceAlpha" result="shadowOffsetInner1"></feOffset>
            <feComposite in="shadowOffsetInner1" in2="SourceAlpha" operator="arithmetic" k2="-1" k3="1" result="shadowInnerInner1"></feComposite>
            <feColorMatrix values="0 0 0 0 0.882   0 0 0 0 0.903233333   0 0 0 0 0.98  0 0 0 1 0" type="matrix" in="shadowInnerInner1"></feColorMatrix>
        </filter>
        <mask id="mask-21" maskContentUnits="userSpaceOnUse" maskUnits="objectBoundingBox" x="0" y="0" width="80.2083333" height="12.8333333" fill="white">
            <use xlink:href="#path-19"></use>
        </mask>
        <path d="M10.6944444,96.25 C10.6944444,95.6593621 11.1724928,95.1805556 11.7670873,95.1805556 L85.5555556,95.1805556 L85.5555556,97.3194444 L11.7670873,97.3194444 C11.174683,97.3194444 10.6944444,96.8447557 10.6944444,96.25 L10.6944444,96.25 Z" id="path-22"></path>
        <mask id="mask-23" maskContentUnits="userSpaceOnUse" maskUnits="objectBoundingBox" x="0" y="0" width="74.8611111" height="2.13888889" fill="white">
            <use xlink:href="#path-22"></use>
        </mask>
        <polygon id="path-24" points="17.1111111 95.1805556 36.3611111 95.1805556 36.3611111 116.569444 26.7361111 111.222222 17.1111111 116.569444"></polygon>
        <filter x="-50%" y="-50%" width="200%" height="200%" filterUnits="objectBoundingBox" id="filter-25">
            <feOffset dx="0" dy="5" in="SourceAlpha" result="shadowOffsetInner1"></feOffset>
            <feComposite in="shadowOffsetInner1" in2="SourceAlpha" operator="arithmetic" k2="-1" k3="1" result="shadowInnerInner1"></feComposite>
            <feColorMatrix values="0 0 0 0 0.733333333   0 0 0 0 0.788235294   0 0 0 0 0.980392157  0 0 0 1 0" type="matrix" in="shadowInnerInner1"></feColorMatrix>
        </filter>
        <mask id="mask-26" maskContentUnits="userSpaceOnUse" maskUnits="objectBoundingBox" x="0" y="0" width="19.25" height="21.3888889" fill="white">
            <use xlink:href="#path-24"></use>
        </mask>
        <path d="M76.4842785,54.6347608 L87.178723,54.6347608 L87.178723,103.688849 C87.178723,106.637714 84.7786809,109.028241 81.8315008,109.028241 L81.8315008,109.028241 C78.8783115,109.028241 76.4842785,106.63847 76.4842785,103.688849 L76.4842785,54.6347608 Z" id="path-27"></path>
        <filter x="-50%" y="-50%" width="200%" height="200%" filterUnits="objectBoundingBox" id="filter-28">
            <feOffset dx="-4" dy="0" in="SourceAlpha" result="shadowOffsetInner1"></feOffset>
            <feComposite in="shadowOffsetInner1" in2="SourceAlpha" operator="arithmetic" k2="-1" k3="1" result="shadowInnerInner1"></feComposite>
            <feColorMatrix values="0 0 0 0 0.882352941   0 0 0 0 0.901960784   0 0 0 0 0.980392157  0 0 0 1 0" type="matrix" in="shadowInnerInner1"></feColorMatrix>
        </filter>
        <mask id="mask-29" maskContentUnits="userSpaceOnUse" maskUnits="objectBoundingBox" x="0" y="0" width="10.6944444" height="54.3934799" fill="white">
            <use xlink:href="#path-27"></use>
        </mask>
        <rect id="path-30" x="55.6871142" y="51.4093364" width="6.41666667" height="14.9722222"></rect>
        <mask id="mask-31" maskContentUnits="userSpaceOnUse" maskUnits="objectBoundingBox" x="0" y="0" width="6.41666667" height="14.9722222" fill="white">
            <use xlink:href="#path-30"></use>
        </mask>
        <path d="M32.0833333,64.1666667 C14.3641976,64.1666667 0,49.8024691 0,32.0833333 C0,14.3641976 14.3641976,0 32.0833333,0 C49.8024691,0 64.1666667,14.3641976 64.1666667,32.0833333 C64.1666667,49.8024691 49.8024691,64.1666667 32.0833333,64.1666667 Z M32.0833333,58.8194444 C46.8492798,58.8194444 58.8194444,46.8492798 58.8194444,32.0833333 C58.8194444,17.3173869 46.8492798,5.34722222 32.0833333,5.34722222 C17.3173869,5.34722222 5.34722222,17.3173869 5.34722222,32.0833333 C5.34722222,46.8492798 17.3173869,58.8194444 32.0833333,58.8194444 Z" id="path-32"></path>
        <filter x="-50%" y="-50%" width="200%" height="200%" filterUnits="objectBoundingBox" id="filter-33">
            <feOffset dx="-2" dy="2" in="SourceAlpha" result="shadowOffsetInner1"></feOffset>
            <feComposite in="shadowOffsetInner1" in2="SourceAlpha" operator="arithmetic" k2="-1" k3="1" result="shadowInnerInner1"></feComposite>
            <feColorMatrix values="0 0 0 0 0.882352941   0 0 0 0 0.901960784   0 0 0 0 0.980392157  0 0 0 1 0" type="matrix" in="shadowInnerInner1"></feColorMatrix>
        </filter>
    </defs>
    <g id="Layouts-2017-03-10" stroke="none" stroke-width="1" fill="none" fill-rule="evenodd">
        <g id="03-Theme-320px" transform="translate(-83.000000, -3570.000000)">
            <g id="SEO" transform="translate(0.000000, 3484.000000)">
                <g id="ILLUSTRATION" transform="translate(83.000000, 86.000000)">
                    <g id="Clouds" transform="translate(0.000000, 41.708333)">
                        <use id="Rectangle-5" stroke="#315EFB" mask="url(#mask-2)" stroke-width="4" xlink:href="#path-1"></use>
                        <use id="Rectangle-5" stroke="#315EFB" mask="url(#mask-4)" stroke-width="4" xlink:href="#path-3"></use>
                        <use id="Rectangle-5" stroke="#315EFB" mask="url(#mask-6)" stroke-width="4" xlink:href="#path-5"></use>
                        <use id="Cloud" stroke="#315EFB" mask="url(#mask-8)" stroke-width="4" xlink:href="#path-7"></use>
                        <rect id="mask" fill="#FFFFFF" x="2.13888889" y="41.7083333" width="147.583333" height="29.9444444"></rect>
                        <use id="Combined-Shape" stroke="#315EFB" mask="url(#mask-10)" stroke-width="4" xlink:href="#path-9"></use>
                    </g>
                    <g id="Stars" transform="translate(17.111111, 0.000000)">
                        <path d="M115.5,44.9166667 C115.5,44.321911 115.025609,43.8472222 114.367647,43.7843137 C113.846496,43.7843137 113.42402,43.3618373 113.42402,42.8406863 C113.361111,42.1906262 112.882305,41.7083333 112.291667,41.7083333 C111.696911,41.7083333 111.222222,42.1827244 111.159314,42.8406863 C111.159314,43.3618373 110.736837,43.7843137 110.215686,43.7843137 C109.565626,43.8472222 109.083333,44.3260288 109.083333,44.9166667 C109.083333,45.4344518 109.442883,45.8612362 109.970089,46.004538 C110.04846,46.0258403 110.130536,46.0408783 110.215686,46.0490196 C110.736837,46.0490196 111.159314,46.471496 111.159314,46.9926471 C111.222222,47.6427071 111.701029,48.125 112.291667,48.125 C112.886422,48.125 113.361111,47.650609 113.42402,46.9926471 C113.42402,46.471496 113.846496,46.0490196 114.367647,46.0490196 C115.017707,45.9861111 115.5,45.5073045 115.5,44.9166667 Z" id="star-small" fill="#315EFB"></path>
                        <path d="M6.41666667,44.9166667 C6.41666667,44.321911 5.94227565,43.8472222 5.28431373,43.7843137 C4.76316267,43.7843137 4.34068627,43.3618373 4.34068627,42.8406863 C4.27777778,42.1906262 3.79897119,41.7083333 3.20833333,41.7083333 C2.61357766,41.7083333 2.13888889,42.1827244 2.07598039,42.8406863 C2.07598039,43.3618373 1.65350399,43.7843137 1.13235294,43.7843137 C0.4822929,43.8472222 0,44.3260288 0,44.9166667 C0,45.4344518 0.35954931,45.8612362 0.886755676,46.004538 C0.965126691,46.0258403 1.04720256,46.0408783 1.13235294,46.0490196 C1.65350399,46.0490196 2.07598039,46.471496 2.07598039,46.9926471 C2.13888889,47.6427071 2.61769548,48.125 3.20833333,48.125 C3.80308901,48.125 4.27777778,47.650609 4.34068627,46.9926471 C4.34068627,46.471496 4.76316267,46.0490196 5.28431373,46.0490196 C5.93437377,45.9861111 6.41666667,45.5073045 6.41666667,44.9166667 Z" id="star-small" fill="#315EFB"></path>
                        <path d="M91.9722222,11.7638889 C91.9722222,11.1691332 91.4978312,10.6944444 90.8398693,10.6315359 C90.3187182,10.6315359 89.8962418,10.2090595 89.8962418,9.6879085 C89.8333333,9.03784846 89.3545267,8.55555556 88.7638889,8.55555556 C88.1691332,8.55555556 87.6944444,9.02994657 87.6315359,9.6879085 C87.6315359,10.2090595 87.2090595,10.6315359 86.6879085,10.6315359 C86.0378485,10.6944444 85.5555556,11.173251 85.5555556,11.7638889 C85.5555556,12.281674 85.9151049,12.7084584 86.4423112,12.8517602 C86.5206822,12.8730625 86.6027581,12.8881005 86.6879085,12.8962418 C87.2090595,12.8962418 87.6315359,13.3187182 87.6315359,13.8398693 C87.6944444,14.4899293 88.173251,14.9722222 88.7638889,14.9722222 C89.3586446,14.9722222 89.8333333,14.4978312 89.8962418,13.8398693 C89.8962418,13.3187182 90.3187182,12.8962418 90.8398693,12.8962418 C91.4899293,12.8333333 91.9722222,12.3545267 91.9722222,11.7638889 Z" id="star-small" fill="#315EFB"></path>
                        <path d="M28.875,11.7638889 C28.875,11.1691332 28.400609,10.6944444 27.7426471,10.6315359 C27.221496,10.6315359 26.7990196,10.2090595 26.7990196,9.6879085 C26.7361111,9.03784846 26.2573045,8.55555556 25.6666667,8.55555556 C25.071911,8.55555556 24.5972222,9.02994657 24.5343137,9.6879085 C24.5343137,10.2090595 24.1118373,10.6315359 23.5906863,10.6315359 C22.9406262,10.6944444 22.4583333,11.173251 22.4583333,11.7638889 C22.4583333,12.281674 22.8178826,12.7084584 23.345089,12.8517602 C23.42346,12.8730625 23.5055359,12.8881005 23.5906863,12.8962418 C24.1118373,12.8962418 24.5343137,13.3187182 24.5343137,13.8398693 C24.5972222,14.4899293 25.0760288,14.9722222 25.6666667,14.9722222 C26.2614223,14.9722222 26.7361111,14.4978312 26.7990196,13.8398693 C26.7990196,13.3187182 27.221496,12.8962418 27.7426471,12.8962418 C28.3927071,12.8333333 28.875,12.3545267 28.875,11.7638889 Z" id="star-small" fill="#315EFB"></path>
                        <use id="star-big" stroke="#315EFB" mask="url(#mask-12)" stroke-width="4" fill="#E1E6FA" xlink:href="#path-11"></use>
                    </g>
                    <g id="Book" transform="translate(32.083333, 22.458333)">
                        <use id="base" stroke="#315EFB" mask="url(#mask-14)" stroke-width="4" fill="#BCC9FA" xlink:href="#path-13"></use>
                        <path d="M2.13888889,5.34722222 C2.13888889,4.75658436 2.62118179,4.27777778 3.19847088,4.27777778 L7.49597356,4.27777778 C8.08116454,4.27777778 8.55555556,4.75246655 8.55555556,5.34722222 C8.55555556,5.93786008 8.07326266,6.41666667 7.49597356,6.41666667 L3.19847088,6.41666667 C2.61327991,6.41666667 2.13888889,5.9419779 2.13888889,5.34722222 Z M1.06944444,9.625 C1.06944444,9.03436214 1.54912243,8.55555556 2.14202164,8.55555556 L7.48297836,8.55555556 C8.07534639,8.55555556 8.55555556,9.03024432 8.55555556,9.625 C8.55555556,10.2156379 8.07587757,10.6944444 7.48297836,10.6944444 L2.14202164,10.6944444 C1.54965361,10.6944444 1.06944444,10.2197557 1.06944444,9.625 Z M0,13.9027778 C0,13.3121399 0.484497163,12.8333333 1.06626834,12.8333333 L7.48928721,12.8333333 C8.07817096,12.8333333 8.55555556,13.3080221 8.55555556,13.9027778 C8.55555556,14.4934156 8.07105839,14.9722222 7.48928721,14.9722222 L1.06626834,14.9722222 C0.477384598,14.9722222 0,14.4975335 0,13.9027778 Z M0,18.1805556 C0,17.5899177 0.484497163,17.1111111 1.06626834,17.1111111 L7.48928721,17.1111111 C8.07817096,17.1111111 8.55555556,17.5857999 8.55555556,18.1805556 C8.55555556,18.7711934 8.07105839,19.25 7.48928721,19.25 L1.06626834,19.25 C0.477384598,19.25 0,18.7753112 0,18.1805556 Z M0,22.4583333 C0,21.8676955 0.484497163,21.3888889 1.06626834,21.3888889 L7.48928721,21.3888889 C8.07817096,21.3888889 8.55555556,21.8635777 8.55555556,22.4583333 C8.55555556,23.0489712 8.07105839,23.5277778 7.48928721,23.5277778 L1.06626834,23.5277778 C0.477384598,23.5277778 0,23.053089 0,22.4583333 Z M0,26.7361111 C0,26.1454733 0.484497163,25.6666667 1.06626834,25.6666667 L7.48928721,25.6666667 C8.07817096,25.6666667 8.55555556,26.1413554 8.55555556,26.7361111 C8.55555556,27.326749 8.07105839,27.8055556 7.48928721,27.8055556 L1.06626834,27.8055556 C0.477384598,27.8055556 0,27.3308668 0,26.7361111 Z M0,31.0138889 C0,30.423251 0.484497163,29.9444444 1.06626834,29.9444444 L7.48928721,29.9444444 C8.07817096,29.9444444 8.55555556,30.4191332 8.55555556,31.0138889 C8.55555556,31.6045267 8.07105839,32.0833333 7.48928721,32.0833333 L1.06626834,32.0833333 C0.477384598,32.0833333 0,31.6086446 0,31.0138889 Z M0,35.2916667 C0,34.7010288 0.484497163,34.2222222 1.06626834,34.2222222 L7.48928721,34.2222222 C8.07817096,34.2222222 8.55555556,34.696911 8.55555556,35.2916667 C8.55555556,35.8823045 8.07105839,36.3611111 7.48928721,36.3611111 L1.06626834,36.3611111 C0.477384598,36.3611111 0,35.8864223 0,35.2916667 Z M0,39.5694444 C0,38.9788066 0.484497163,38.5 1.06626834,38.5 L7.48928721,38.5 C8.07817096,38.5 8.55555556,38.9746888 8.55555556,39.5694444 C8.55555556,40.1600823 8.07105839,40.6388889 7.48928721,40.6388889 L1.06626834,40.6388889 C0.477384598,40.6388889 0,40.1642001 0,39.5694444 Z M0,43.8472222 C0,43.2565844 0.484497163,42.7777778 1.06626834,42.7777778 L7.48928721,42.7777778 C8.07817096,42.7777778 8.55555556,43.2524665 8.55555556,43.8472222 C8.55555556,44.4378601 8.07105839,44.9166667 7.48928721,44.9166667 L1.06626834,44.9166667 C0.477384598,44.9166667 0,44.4419779 0,43.8472222 Z M0,48.125 C0,47.5343621 0.484497163,47.0555556 1.06626834,47.0555556 L7.48928721,47.0555556 C8.07817096,47.0555556 8.55555556,47.5302443 8.55555556,48.125 C8.55555556,48.7156379 8.07105839,49.1944444 7.48928721,49.1944444 L1.06626834,49.1944444 C0.477384598,49.1944444 0,48.7197557 0,48.125 Z M0,52.4027778 C0,51.8121399 0.484497163,51.3333333 1.06626834,51.3333333 L7.48928721,51.3333333 C8.07817096,51.3333333 8.55555556,51.8080221 8.55555556,52.4027778 C8.55555556,52.9934156 8.07105839,53.4722222 7.48928721,53.4722222 L1.06626834,53.4722222 C0.477384598,53.4722222 0,52.9975335 0,52.4027778 Z M0,56.6805556 C0,56.0899177 0.484497163,55.6111111 1.06626834,55.6111111 L7.48928721,55.6111111 C8.07817096,55.6111111 8.55555556,56.0857999 8.55555556,56.6805556 C8.55555556,57.2711934 8.07105839,57.75 7.48928721,57.75 L1.06626834,57.75 C0.477384598,57.75 0,57.2753112 0,56.6805556 Z M0,60.9583333 C0,60.3676955 0.484497163,59.8888889 1.06626834,59.8888889 L7.48928721,59.8888889 C8.07817096,59.8888889 8.55555556,60.3635777 8.55555556,60.9583333 C8.55555556,61.5489712 8.07105839,62.0277778 7.48928721,62.0277778 L1.06626834,62.0277778 C0.477384598,62.0277778 0,61.553089 0,60.9583333 Z M0,65.2361111 C0,64.6454733 0.484497163,64.1666667 1.06626834,64.1666667 L7.48928721,64.1666667 C8.07817096,64.1666667 8.55555556,64.6413554 8.55555556,65.2361111 C8.55555556,65.826749 8.07105839,66.3055556 7.48928721,66.3055556 L1.06626834,66.3055556 C0.477384598,66.3055556 0,65.8308668 0,65.2361111 Z M0,69.5138889 C0,68.923251 0.484497163,68.4444444 1.06626834,68.4444444 L7.48928721,68.4444444 C8.07817096,68.4444444 8.55555556,68.9191332 8.55555556,69.5138889 C8.55555556,70.1045267 8.07105839,70.5833333 7.48928721,70.5833333 L1.06626834,70.5833333 C0.477384598,70.5833333 0,70.1086446 0,69.5138889 Z M0,73.7916667 C0,73.2010288 0.484497163,72.7222222 1.06626834,72.7222222 L7.48928721,72.7222222 C8.07817096,72.7222222 8.55555556,73.196911 8.55555556,73.7916667 C8.55555556,74.3823045 8.07105839,74.8611111 7.48928721,74.8611111 L1.06626834,74.8611111 C0.477384598,74.8611111 0,74.3864223 0,73.7916667 Z M0,78.0694444 C0,77.4788066 0.484497163,77 1.06626834,77 L7.48928721,77 C8.07817096,77 8.55555556,77.4746888 8.55555556,78.0694444 C8.55555556,78.6600823 8.07105839,79.1388889 7.48928721,79.1388889 L1.06626834,79.1388889 C0.477384598,79.1388889 0,78.6642001 0,78.0694444 Z M0,82.3472222 C0,81.7565844 0.484497163,81.2777778 1.06626834,81.2777778 L7.48928721,81.2777778 C8.07817096,81.2777778 8.55555556,81.7524665 8.55555556,82.3472222 C8.55555556,82.9378601 8.07105839,83.4166667 7.48928721,83.4166667 L1.06626834,83.4166667 C0.477384598,83.4166667 0,82.9419779 0,82.3472222 Z M0,86.625 C0,86.0343621 0.487307757,85.5555556 1.0645224,85.5555556 L9.62992205,85.5555556 C10.2178415,85.5555556 10.6944444,86.0302443 10.6944444,86.625 C10.6944444,87.2156379 10.2071367,87.6944444 9.62992205,87.6944444 L1.0645224,87.6944444 C0.476602912,87.6944444 0,87.2197557 0,86.625 Z" id="dash" fill="#315EFB"></path>
                        <use id="cover" stroke="#315EFB" mask="url(#mask-16)" stroke-width="4" fill="#E1E7FA" xlink:href="#path-15"></use>
                        <use id="bottom" stroke="#315EFB" mask="url(#mask-18)" stroke-width="4" fill="#8CA4FA" xlink:href="#path-17"></use>
                        <g id="bottom-paper">
                            <use fill="#FFFFFF" fill-rule="evenodd" xlink:href="#path-19"></use>
                            <use fill="black" fill-opacity="1" filter="url(#filter-20)" xlink:href="#path-19"></use>
                            <use stroke="#315EFB" mask="url(#mask-21)" stroke-width="4" xlink:href="#path-19"></use>
                        </g>
                        <use id="bottom-devider" stroke="#315EFB" mask="url(#mask-23)" stroke-width="4" fill="#FFFFFF" xlink:href="#path-22"></use>
                        <g id="stripe">
                            <use fill="#E1E6FA" fill-rule="evenodd" xlink:href="#path-24"></use>
                            <use fill="black" fill-opacity="1" filter="url(#filter-25)" xlink:href="#path-24"></use>
                            <use stroke="#315EFB" mask="url(#mask-26)" stroke-width="4" xlink:href="#path-24"></use>
                        </g>
                        <path d="M21.3888889,96.2483983 C21.3888889,95.658645 21.8635777,95.1805556 22.4583333,95.1805556 C23.0489712,95.1805556 23.5277778,95.6591206 23.5277778,96.2483983 L23.5277778,108.015491 C23.5277778,108.605244 23.053089,109.083333 22.4583333,109.083333 C21.8676955,109.083333 21.3888889,108.604768 21.3888889,108.015491 L21.3888889,96.2483983 Z M29.9444444,96.2483983 C29.9444444,95.658645 30.4191332,95.1805556 31.0138889,95.1805556 C31.6045267,95.1805556 32.0833333,95.6591206 32.0833333,96.2483983 L32.0833333,108.015491 C32.0833333,108.605244 31.6086446,109.083333 31.0138889,109.083333 C30.423251,109.083333 29.9444444,108.604768 29.9444444,108.015491 L29.9444444,96.2483983 Z M25.6666667,96.2452704 C25.6666667,95.6572446 26.1413554,95.1805556 26.7361111,95.1805556 C27.326749,95.1805556 27.8055556,95.656284 27.8055556,96.2452704 L27.8055556,105.87973 C27.8055556,106.467755 27.3308668,106.944444 26.7361111,106.944444 C26.1454733,106.944444 25.6666667,106.468716 25.6666667,105.87973 L25.6666667,96.2452704 Z" id="dash" fill="#315EFB"></path>
                    </g>
                    <g id="OWL" transform="translate(72.000000, 50.000000)">
                        <path d="M0,0 C0,0 4.2880869,3.62666667 8.5,3.62666667 C12.7119131,3.62666667 17,0 17,0 L17,14.4584272 C17,19.1527957 13.1848682,22.9583333 8.5,22.9583333 L8.5,22.9583333 C3.80557963,22.9583333 0,19.1543536 0,14.4584272 L0,0 Z" id="body" fill="#315EFB"></path>
                        <path d="M10.612269,13.98703 L8.47301587,16.1111111 L6.37049519,13.9934644 C5.97068369,14.141741 5.56990085,14.2222222 5.19444444,14.2222222 C3.36883652,14.2222222 1.88888889,12.3194324 1.88888889,9.97222222 C1.88888889,7.62501204 3.36883652,5.72222222 5.19444444,5.72222222 C6.30063949,5.72222222 7.6266806,6.42083933 8.5,7.49362923 C9.3733194,6.42083933 10.6993605,5.72222222 11.8055556,5.72222222 C13.6311635,5.72222222 15.1111111,7.62501204 15.1111111,9.97222222 C15.1111111,12.3194324 13.6311635,14.2222222 11.8055556,14.2222222 C11.4247037,14.2222222 11.0177922,14.1394112 10.612269,13.98703 Z" id="Combined-Shape" fill="#FFFFFF"></path>
                        <path d="M6.13888889,12.3333333 C5.35648549,12.3333333 4.72222222,11.6990701 4.72222222,10.9166667 C4.72222222,10.1342633 5.35648549,9.5 6.13888889,9.5 C6.92129228,9.5 7.55555556,10.1342633 7.55555556,10.9166667 C7.55555556,11.6990701 6.92129228,12.3333333 6.13888889,12.3333333 Z M10.8611111,12.3333333 C10.0787077,12.3333333 9.44444444,11.6990701 9.44444444,10.9166667 C9.44444444,10.1342633 10.0787077,9.5 10.8611111,9.5 C11.6435145,9.5 12.2777778,10.1342633 12.2777778,10.9166667 C12.2777778,11.6990701 11.6435145,12.3333333 10.8611111,12.3333333 Z" id="Combined-Shape" fill="#315EFB"></path>
                    </g>
                    <g id="Mag" transform="translate(48.125000, 27.805556)">
                        <g id="shade" transform="translate(0.000000, 6.416667)" fill="#BBC9FA">
                            <path d="M32.0833333,64.1666667 C14.3641976,64.1666667 0,49.8024691 0,32.0833333 C0,14.3641976 14.3641976,0 32.0833333,0 C49.8024691,0 64.1666667,14.3641976 64.1666667,32.0833333 C64.1666667,49.8024691 49.8024691,64.1666667 32.0833333,64.1666667 Z M32.0833333,58.8194444 C46.8492798,58.8194444 58.8194444,46.8492798 58.8194444,32.0833333 C58.8194444,17.3173869 46.8492798,5.34722222 32.0833333,5.34722222 C17.3173869,5.34722222 5.34722222,17.3173869 5.34722222,32.0833333 C5.34722222,46.8492798 17.3173869,58.8194444 32.0833333,58.8194444 Z"></path>
                            <rect id="Rectangle-4" transform="translate(58.895448, 58.895448) rotate(-45.000000) translate(-58.895448, -58.895448) " x="55.6871142" y="51.4093364" width="6.41666667" height="14.9722222"></rect>
                            <polygon id="Rectangle-4" transform="translate(62.523256, 67.555608) rotate(-45.000000) translate(-62.523256, -67.555608) " points="59.7878981 59.6989164 65.2586136 59.6989164 65.2586137 71.7330609 61.576245 75.4122998 59.7878981 73.5443115"></polygon>
                        </g>
                        <g id="base">
                            <g id="Rectangle-3" transform="translate(81.831501, 81.831501) rotate(-45.000000) translate(-81.831501, -81.831501) ">
                                <use fill="#8CA4FA" fill-rule="evenodd" xlink:href="#path-27"></use>
                                <use fill="black" fill-opacity="1" filter="url(#filter-28)" xlink:href="#path-27"></use>
                                <use stroke="#315EFB" mask="url(#mask-29)" stroke-width="4" xlink:href="#path-27"></use>
                            </g>
                            <path d="M77.5347222,61.3633102 C77.5347222,60.7726723 78.0170151,60.2938657 78.5943042,60.2938657 L82.8918069,60.2938657 C83.4769979,60.2938657 83.9513889,60.7685545 83.9513889,61.3633102 C83.9513889,61.953948 83.469096,62.4327546 82.8918069,62.4327546 L78.5943042,62.4327546 C78.0091132,62.4327546 77.5347222,61.9580659 77.5347222,61.3633102 Z M77.5347222,65.641088 C77.5347222,65.0504501 78.0170151,64.5716435 78.5943042,64.5716435 L82.8918069,64.5716435 C83.4769979,64.5716435 83.9513889,65.0463323 83.9513889,65.641088 C83.9513889,66.2317258 83.469096,66.7105324 82.8918069,66.7105324 L78.5943042,66.7105324 C78.0091132,66.7105324 77.5347222,66.2358436 77.5347222,65.641088 Z M77.5347222,69.9188657 C77.5347222,69.3282279 78.0170151,68.8494213 78.5943042,68.8494213 L82.8918069,68.8494213 C83.4769979,68.8494213 83.9513889,69.3241101 83.9513889,69.9188657 C83.9513889,70.5095036 83.469096,70.9883102 82.8918069,70.9883102 L78.5943042,70.9883102 C78.0091132,70.9883102 77.5347222,70.5136214 77.5347222,69.9188657 Z M77.5347222,74.1966435 C77.5347222,73.6060057 78.0170151,73.1271991 78.5943042,73.1271991 L82.8918069,73.1271991 C83.4769979,73.1271991 83.9513889,73.6018878 83.9513889,74.1966435 C83.9513889,74.7872814 83.469096,75.266088 82.8918069,75.266088 L78.5943042,75.266088 C78.0091132,75.266088 77.5347222,74.7913992 77.5347222,74.1966435 Z M77.5347222,78.4744213 C77.5347222,77.8837834 78.0170151,77.4049769 78.5943042,77.4049769 L82.8918069,77.4049769 C83.4769979,77.4049769 83.9513889,77.8796656 83.9513889,78.4744213 C83.9513889,79.0650592 83.469096,79.5438657 82.8918069,79.5438657 L78.5943042,79.5438657 C78.0091132,79.5438657 77.5347222,79.069177 77.5347222,78.4744213 Z M77.5347222,82.7521991 C77.5347222,82.1615612 78.0170151,81.6827546 78.5943042,81.6827546 L82.8918069,81.6827546 C83.4769979,81.6827546 83.9513889,82.1574434 83.9513889,82.7521991 C83.9513889,83.3428369 83.469096,83.8216435 82.8918069,83.8216435 L78.5943042,83.8216435 C78.0091132,83.8216435 77.5347222,83.3469548 77.5347222,82.7521991 Z M77.5347222,87.0299769 C77.5347222,86.439339 78.0170151,85.9605324 78.5943042,85.9605324 L82.8918069,85.9605324 C83.4769979,85.9605324 83.9513889,86.4352212 83.9513889,87.0299769 C83.9513889,87.6206147 83.469096,88.0994213 82.8918069,88.0994213 L78.5943042,88.0994213 C78.0091132,88.0994213 77.5347222,87.6247325 77.5347222,87.0299769 Z M77.5347222,91.3077546 C77.5347222,90.7171168 78.0170151,90.2383102 78.5943042,90.2383102 L82.8918069,90.2383102 C83.4769979,90.2383102 83.9513889,90.712999 83.9513889,91.3077546 C83.9513889,91.8983925 83.469096,92.3771991 82.8918069,92.3771991 L78.5943042,92.3771991 C78.0091132,92.3771991 77.5347222,91.9025103 77.5347222,91.3077546 Z M77.5347222,95.5855324 C77.5347222,94.9948946 78.0170151,94.516088 78.5943042,94.516088 L82.8918069,94.516088 C83.4769979,94.516088 83.9513889,94.9907767 83.9513889,95.5855324 C83.9513889,96.1761703 83.469096,96.6549769 82.8918069,96.6549769 L78.5943042,96.6549769 C78.0091132,96.6549769 77.5347222,96.1802881 77.5347222,95.5855324 Z M77.5347222,99.8633102 C77.5347222,99.2726723 78.0170151,98.7938657 78.5943042,98.7938657 L82.8918069,98.7938657 C83.4769979,98.7938657 83.9513889,99.2685545 83.9513889,99.8633102 C83.9513889,100.453948 83.469096,100.932755 82.8918069,100.932755 L78.5943042,100.932755 C78.0091132,100.932755 77.5347222,100.458066 77.5347222,99.8633102 Z M77.5347222,104.400579 C77.5347222,103.809941 78.0170151,103.331134 78.5943042,103.331134 L82.8918069,103.331134 C83.4769979,103.331134 83.9513889,103.805823 83.9513889,104.400579 C83.9513889,104.991217 83.469096,105.470023 82.8918069,105.470023 L78.5943042,105.470023 C78.0091132,105.470023 77.5347222,104.995334 77.5347222,104.400579 Z" id="dash" fill="#315EFB" transform="translate(80.743056, 82.881944) rotate(-45.000000) translate(-80.743056, -82.881944) "></path>
                            <use id="Rectangle-4" stroke="#315EFB" mask="url(#mask-31)" stroke-width="4" fill="#8CA4FA" transform="translate(58.895448, 58.895448) rotate(-45.000000) translate(-58.895448, -58.895448) " xlink:href="#path-30"></use>
                            <g id="Combined-Shape">
                                <use fill="#8CA4FA" fill-rule="evenodd" xlink:href="#path-32"></use>
                                <use fill="black" fill-opacity="1" filter="url(#filter-33)" xlink:href="#path-32"></use>
                                <use stroke="#315EFB" stroke-width="2" xlink:href="#path-32"></use>
                            </g>
                            <path d="M9.625,32.0833333 C9.625,32.0833333 9.625,33.1527778 10.6944444,33.1527778 C11.7638889,33.1527778 11.7638889,32.0833333 11.7638889,32.0833333 C11.7638889,20.861214 20.861214,11.7638889 32.0833333,11.7638889 C32.0833333,11.7638889 33.1527778,11.7351451 33.1527778,10.6800726 C33.1527778,9.625 32.0833333,9.625 32.0833333,9.625 C19.6799383,9.625 9.625,19.6799383 9.625,32.0833333 Z" id="shine" fill="#315EFB"></path>
                        </g>
                    </g>
                </g>
            </g>
        </g>
    </g>
</svg>