<?xml version="1.0" encoding="UTF-8"?>
<svg width="14px" height="14px" viewBox="0 0 14 14" version="1.1" xmlns="http://www.w3.org/2000/svg" xmlns:xlink="http://www.w3.org/1999/xlink">
    <!-- Generator: Sketch 43.2 (39069) - http://www.bohemiancoding.com/sketch -->
    <title>question-small-blue</title>
    <desc>Created with Sketch.</desc>
    <defs></defs>
    <g id="Symbols" stroke="none" stroke-width="1" fill="none" fill-rule="evenodd">
        <g id="question-small-blue">
            <g id="Icon-?" transform="translate(1.000000, 1.000000)">
                <circle id="Oval-6" stroke="#315EFB" cx="6" cy="6" r="6"></circle>
                <path d="M3.70000076,4.23315251 L4.97027103,4.23315251 C5.01351428,3.6565151 5.46216293,3.28784529 6.15946022,3.28784529 C6.8405413,3.28784529 7.29459536,3.6423355 7.29459536,4.13389525 C7.29459536,4.60182233 7.06756833,4.85232874 6.39729806,5.20681895 C5.65135211,5.58966838 5.3378386,6.01505663 5.38648725,6.72403705 L5.39189265,7.04544151 L6.64594671,7.04544151 L6.64594671,6.77602895 C6.64594671,6.30810187 6.84594671,6.06704853 7.55405482,5.70310525 C8.28918995,5.32025582 8.70000076,4.81451646 8.70000076,4.09135643 C8.70000076,3.04679194 7.71081157,2.29999924 6.22973049,2.29999924 C4.62432509,2.29999924 3.74324401,3.11296345 3.70000076,4.23315251 Z M6.07837914,9.29999924 C6.62973049,9.29999924 6.97567644,9.00222746 6.97567644,8.54847999 C6.97567644,8.09000599 6.62973049,7.79223421 6.07837914,7.79223421 C5.5378386,7.79223421 5.18108184,8.09000599 5.18108184,8.54847999 C5.18108184,9.00222746 5.5378386,9.29999924 6.07837914,9.29999924 Z" id="?" fill="#315EFB"></path>
            </g>
        </g>
    </g>
</svg>