<?xml version="1.0" encoding="UTF-8"?>
<svg width="19px" height="19px" viewBox="0 0 19 19" version="1.1" xmlns="http://www.w3.org/2000/svg" xmlns:xlink="http://www.w3.org/1999/xlink">
    <!-- Generator: Sketch 43.2 (39069) - http://www.bohemiancoding.com/sketch -->
    <title>search</title>
    <desc>Created with Sketch.</desc>
    <defs></defs>
    <g id="EXPORT" stroke="none" stroke-width="1" fill="none" fill-rule="evenodd">
        <g id="01-Вопрос-Ответ-—-Саджест-(1280px+)-MVP" transform="translate(-513.000000, -608.000000)">
            <g id="SEARCH" transform="translate(493.000000, 315.000000)">
                <g id="В-интернете" transform="translate(0.000000, 281.000000)">
                    <g id="search" transform="translate(17.000000, 9.000000)">
                        <rect id="click-zone" x="0" y="0" width="24" height="24"></rect>
                        <path d="M5.325,5.325 C2.225,8.425 2.225,13.525 5.325,16.625 C8.225,19.525 12.925,19.725 16.025,17.125 L20.0111712,21.1111712 C20.4054079,21.5054079 21.0357054,21.5142946 21.433203,21.116797 L21.416797,21.133203 C21.8079267,20.7420733 21.8100586,20.1100586 21.4167435,19.7167435 L17.325,15.625 C19.725,12.625 19.525,8.125 16.625,5.325 C13.525,2.225 8.425,2.225 5.325,5.325 Z M15.9043659,15.9790795 C13.2266112,18.6736402 8.8024948,18.6736402 6.00831601,15.9790795 C3.33056133,13.2845188 3.33056133,8.83263598 6.00831601,6.0209205 C8.68607069,3.32635983 13.1101871,3.32635983 15.9043659,6.0209205 C18.6985447,8.83263598 18.6985447,13.2845188 15.9043659,15.9790795 L15.9043659,15.9790795 Z" id="ICON" fill="#8D96B2"></path>
                    </g>
                </g>
            </g>
        </g>
    </g>
</svg>