<?xml version="1.0" encoding="UTF-8" standalone="no"?>
<svg width="20px" height="19px" viewBox="0 0 20 19" version="1.1" xmlns="http://www.w3.org/2000/svg" xmlns:xlink="http://www.w3.org/1999/xlink">
    <!-- Generator: Sketch 39.1 (31720) - http://www.bohemiancoding.com/sketch -->
    <title>Search</title>
    <desc>Created with Sketch.</desc>
    <defs></defs>
    <g id="Symbols" stroke="none" stroke-width="1" fill="none" fill-rule="evenodd">
        <g id="NAVIGATION" transform="translate(-934.000000, -17.000000)" fill="#315efb">
            <g id="Search">
                <g transform="translate(928.000000, 11.000000)">
                    <path d="M19.625,8.325 C16.525,5.225 11.425,5.225 8.325,8.325 C5.225,11.425 5.225,16.525 8.325,19.625 C11.225,22.525 15.925,22.725 19.025,20.125 L23.725,24.825 L25.125,23.425 L20.325,18.625 C22.725,15.625 22.525,11.125 19.625,8.325 L19.625,8.325 Z M18.225,18.225 C15.925,20.525 12.125,20.525 9.725,18.225 C7.425,15.925 7.425,12.125 9.725,9.725 C12.025,7.425 15.825,7.425 18.225,9.725 C20.625,12.125 20.625,15.925 18.225,18.225 L18.225,18.225 Z" id="ICON"></path>
                </g>
            </g>
        </g>
    </g>
</svg>
