<?xml version="1.0" encoding="UTF-8" standalone="no"?>
<svg width="10px" height="13px" viewBox="0 0 10 13" version="1.1" xmlns="http://www.w3.org/2000/svg" xmlns:xlink="http://www.w3.org/1999/xlink">
    <!-- Generator: sketchtool 40 (33762) - http://www.bohemiancoding.com/sketch -->
    <title>9961BD44-C8F3-4C5A-A570-08DC8EFB484E</title>
    <desc>Created with sketchtool.</desc>
    <defs></defs>
    <g id="Page-1" stroke="none" stroke-width="1" fill="none" fill-rule="evenodd">
        <g id="UI-KIT-—-03-Icons" transform="translate(-751.000000, -477.000000)" fill="#C0BDB9">
            <g id="SOLUTION" transform="translate(70.000000, 373.000000)">
                <g id="TAKE-AWAY" transform="translate(681.000000, 104.000000)">
                    <path d="M5,0 C2.25,0 0,2.20557368 0,4.9201259 C0,5.99463615 0.361111111,7.01259323 1,7.8608908 L4.77777778,12.894123 C4.86111111,13.0072294 5.05555556,13.035506 5.16666667,12.9506762 L5.22222222,12.894123 L9,7.8608908 C9.63888889,7.01259323 10,5.99463615 10,4.9201259 C10,2.20557368 7.75,0 5,0 L5,0 Z M4.61111111,6.84293372 C3.55555556,6.61672104 2.86111111,5.59876395 3.08333333,4.5242537 C3.30555556,3.44974345 4.30555556,2.74282881 5.36111111,2.96904149 C6.13888889,3.138701 6.75,3.7325093 6.88888889,4.5242537 C7.08333333,5.59876395 6.38888889,6.64499762 5.36111111,6.84293372 C5.11111111,6.89948689 4.86111111,6.89948689 4.61111111,6.84293372 L4.61111111,6.84293372 Z" id="Point"></path>
                </g>
            </g>
        </g>
    </g>
</svg>