<?xml version="1.0" encoding="UTF-8" standalone="no"?>
<svg width="26px" height="25px" viewBox="0 0 26 25" version="1.1" xmlns="http://www.w3.org/2000/svg" xmlns:xlink="http://www.w3.org/1999/xlink">
    <!-- Generator: Sketch 39.1 (31720) - http://www.bohemiancoding.com/sketch -->
    <title>Icon blue</title>
    <desc>Created with Sketch.</desc>
    <defs>
        <path d="M11.690918,14.1867385 C11.690918,13.8947981 11.7845384,13.6540598 11.9717822,13.4645163 C12.1590259,13.2749729 12.3987354,13.1802026 12.690918,13.1802026 C12.9831005,13.1802026 13.22281,13.2749729 13.4100538,13.4645163 C13.5972975,13.6540598 13.690918,13.8947981 13.690918,14.1867385 C13.690918,14.4743217 13.5993551,14.7117921 13.4162266,14.8991568 C13.2330981,15.0865216 12.991331,15.1802026 12.690918,15.1802026 C12.3905049,15.1802026 12.1487378,15.0865216 11.9656093,14.8991568 C11.7824808,14.7117921 11.690918,14.4743217 11.690918,14.1867385 L11.690918,14.1867385 Z M12.74039,12.2791896 C12.0400323,12.2791896 11.8382995,11.7053956 11.8382995,11.7053956 C11.8382995,11.0971934 11.9170398,10.6128111 12.0745229,10.2522341 C12.2320059,9.89165707 12.5203345,9.53651576 12.9395174,9.1867995 C13.3587002,8.83708324 13.6377653,8.55253577 13.7767209,8.33314855 C13.9156765,8.11376133 13.9851533,7.88243075 13.9851533,7.63914988 C13.9851533,6.90496295 13.6238741,6.53787499 12.9013048,6.53787499 C12.5585475,6.53787499 12.2841143,6.63670636 12.0779967,6.83437208 C11.8718792,7.03203779 11.6629516,7.27748974 11.6536879,7.62503385 C11.6536879,7.62503385 11.5740369,8.10908845 10.8752921,8.10908845 C10.1765472,8.10908845 10,7.65218272 10,7.65218272 C10.0002159,7.63587649 10.0003061,7.63045203 10.0004089,7.62503382 C10.0159222,6.80747016 10.3186712,6.1319907 10.8752921,5.66793299 C11.4380624,5.19874845 11.9286153,5 12.9013048,5 C13.8832579,5 14.4187053,5.15510675 14.9606323,5.60039764 C15.5025593,6.04568853 15.756958,6.44109219 15.756958,7.25347654 C15.756958,7.62274216 15.767258,8.31160006 15.5912476,8.63959481 C15.4152371,8.96758956 15.2112664,9.24778296 14.7712402,9.64745868 L14.2491677,10.1935863 C13.8971468,10.5107203 13.6956641,10.8821525 13.6447137,11.307894 L13.6169227,11.7053956 C13.6169227,11.7053956 13.4407477,12.2791896 12.74039,12.2791896 Z" id="path-1"></path>
        <mask id="mask-2" maskContentUnits="userSpaceOnUse" maskUnits="objectBoundingBox" x="0" y="0" width="5.75707108" height="10.1802026" fill="white">
            <use xlink:href="#path-1"></use>
        </mask>
    </defs>
    <g id="CLASS" stroke="none" stroke-width="1" fill="none" fill-rule="evenodd">
        <g id="04-Solution-page" transform="translate(-40.000000, -944.000000)">
            <g id="01-TASK" transform="translate(20.000000, 921.000000)">
                <g id="Icon-blue" transform="translate(20.000000, 23.000000)">
                    <path d="M5,20 L11,20 L5,25 L5,20 Z M0,1.99079514 C0,0.891309342 0.894978851,0 1.99700466,0 L24.0029953,0 C25.1059106,0 26,0.898212381 26,1.99079514 L26,18.0092049 C26,19.1086907 25.1050211,20 24.0029953,20 L1.99700466,20 C0.89408944,20 0,19.1017876 0,18.0092049 L0,1.99079514 Z" id="Combined-Shape" fill="#315EFB"></path>
                    <use id="?" stroke="#FFFFFF" mask="url(#mask-2)" stroke-width="2" xlink:href="#path-1"></use>
                </g>
            </g>
        </g>
    </g>
</svg>