<?xml version="1.0" encoding="UTF-8" standalone="no"?>
<svg width="26px" height="26px" viewBox="0 0 26 26" version="1.1" xmlns="http://www.w3.org/2000/svg" xmlns:xlink="http://www.w3.org/1999/xlink">
    <!-- Generator: Sketch 39.1 (31720) - http://www.bohemiancoding.com/sketch -->
    <title>Icon blue</title>
    <desc>Created with Sketch.</desc>
    <defs></defs>
    <g id="CLASS" stroke="none" stroke-width="1" fill="none" fill-rule="evenodd">
        <g id="04-Solution-page" transform="translate(-40.000000, -1808.000000)">
            <g id="03-ANSWER" transform="translate(20.000000, 1784.000000)">
                <g id="Title" transform="translate(20.000000, 24.888372)">
                    <g id="Icon-blue">
                        <path d="M5,19.9069767 L11,19.9069767 L5,24.8837209 L5,19.9069767 Z M0,1.99990246 C0,0.895386832 0.894978851,0 1.99700466,0 L24.0029953,0 C25.1059106,0 26,0.894034649 26,1.99990246 L26,17.9070743 C26,19.0115899 25.1050211,19.9069767 24.0029953,19.9069767 L1.99700466,19.9069767 C0.89408944,19.9069767 0,19.0129421 0,17.9070743 L0,1.99990246 Z" id="Combined-Shape" fill="#28BC00"></path>
                        <path d="M14.9959716,11.9446093 L11.0105152,11.9446093 C10.4694039,11.9446093 10.0122506,12.3923245 10.0122506,12.9446093 C10.0122506,13.5007444 10.4591889,13.9446093 11.0105152,13.9446093 L15.9814279,13.9446093 C16.0604173,13.9446093 16.1376177,13.9350689 16.2118681,13.9170555 C16.6626863,13.8196793 16.9959716,13.4232489 16.9959716,12.9490112 L16.9959716,3.98206779 C16.9959716,3.43388885 16.5482563,2.99112088 15.9959716,2.99112088 C15.4398364,2.99112088 14.9959716,3.43478293 14.9959716,3.98206779 L14.9959716,11.9446093 Z" id="v" fill="#FFFFFF" transform="translate(13.504111, 8.467865) rotate(45.000000) translate(-13.504111, -8.467865) "></path>
                    </g>
                </g>
            </g>
        </g>
    </g>
</svg>