<?xml version="1.0" encoding="UTF-8" standalone="no"?>
<svg width="26px" height="26px" viewBox="0 0 26 26" version="1.1" xmlns="http://www.w3.org/2000/svg" xmlns:xlink="http://www.w3.org/1999/xlink">
    <!-- Generator: Sketch 39.1 (31720) - http://www.bohemiancoding.com/sketch -->
    <title>Group 2</title>
    <desc>Created with Sketch.</desc>
    <defs></defs>
    <g id="CLASS" stroke="none" stroke-width="1" fill="none" fill-rule="evenodd">
        <g id="04-Solution-page" transform="translate(-39.000000, -1140.000000)">
            <g id="02-SOLUTION" transform="translate(20.000000, 1119.000000)">
                <g id="Group-2" transform="translate(19.000000, 21.000000)">
                    <path d="M13,26 C20.1797017,26 26,20.1797017 26,13 C26,5.82029825 20.1797017,0 13,0 C5.82029825,0 0,5.82029825 0,13 C0,20.1797017 5.82029825,26 13,26 Z" id="Oval-3" fill="#315EFB"></path>
                    <path d="M9,11 L17.2974892,11 L18.9970352,11 C20.1032421,11 21,11.8877296 21,13 C21,14.1045695 20.0980496,15 18.9914698,15 L9,15 L9,11 Z M5,13 L8,11 L8,15 L5,13 Z" id="Combined-Shape" fill="#FFFFFF" transform="translate(13.000000, 13.000000) rotate(-45.000000) translate(-13.000000, -13.000000) "></path>
                </g>
            </g>
        </g>
    </g>
</svg>