<?xml version="1.0" encoding="UTF-8" standalone="no"?>
<svg width="30px" height="30px" viewBox="0 0 30 30" version="1.1" xmlns="http://www.w3.org/2000/svg" xmlns:xlink="http://www.w3.org/1999/xlink">
    <!-- Generator: Sketch 39.1 (31720) - http://www.bohemiancoding.com/sketch -->
    <title>tw</title>
    <desc>Created with Sketch.</desc>
    <defs></defs>
    <g id="Page-1" stroke="none" stroke-width="1" fill="none" fill-rule="evenodd">
        <g id="SM-hovers" transform="translate(-120.000000, 0.000000)">
            <g id="tw" transform="translate(120.000000, 0.000000)">
                <circle id="bg" fill="#FFFFFF" cx="15" cy="15" r="15"></circle>
                <path d="M20.4681408,11.7815976 C21.0188302,11.4295682 21.4417023,10.8721629 21.6408464,10.2080128 C21.125535,10.5339266 20.5547313,10.7706413 19.9472183,10.8982278 C19.4606752,10.3454371 18.7675226,10 18.000428,10 C16.527437,10 15.3332382,11.2734825 15.3332382,12.8442276 C15.3332382,13.0671492 15.3568711,13.2842391 15.40233,13.492404 C13.1856871,13.3737931 11.220447,12.2414367 9.90499287,10.5206405 C9.67541607,10.9407229 9.54388968,11.4293146 9.54388968,11.9505637 C9.54388968,12.9373313 10.0147884,13.8079222 10.7304327,14.3179643 C10.2932002,14.3032076 9.88197813,14.1752661 9.52234903,13.962233 C9.52215882,13.9740991 9.52215882,13.986016 9.52215882,13.9979836 C9.52215882,15.376081 10.4415121,16.5256788 11.6616262,16.7869372 C11.4378031,16.8519475 11.2021874,16.886684 10.9589158,16.886684 C10.7870661,16.886684 10.6199715,16.8688847 10.4571564,16.8356696 C10.7965288,17.9656933 11.7815026,18.7880081 12.9485972,18.8109798 C12.035806,19.5738117 10.8857822,20.0285291 9.63623395,20.0285291 C9.42097004,20.0285291 9.2086543,20.0150909 9,19.9888231 C10.1803138,20.7958235 11.5822634,21.2666667 13.0884451,21.2666667 C17.9941988,21.2666667 20.6768426,16.9326273 20.6768426,13.174046 C20.6768426,13.0507191 20.6742748,12.9280514 20.6691393,12.8060936 C21.1902045,12.4050782 21.6424156,11.9041132 22,11.3337261 C21.5216833,11.5599438 21.0076557,11.7128348 20.4681408,11.7815976 Z" fill="#343b4c"></path>
            </g>
        </g>
    </g>
</svg>