<?xml version="1.0" encoding="UTF-8" standalone="no"?>
<svg width="30px" height="30px" viewBox="0 0 30 30" version="1.1" xmlns="http://www.w3.org/2000/svg" xmlns:xlink="http://www.w3.org/1999/xlink">
    <!-- Generator: Sketch 39.1 (31720) - http://www.bohemiancoding.com/sketch -->
    <title>vk</title>
    <desc>Created with Sketch.</desc>
    <defs></defs>
    <g id="Page-1" stroke="none" stroke-width="1" fill-rule="evenodd">
        <g id="SM-hovers">
            <g id="vk">
                <path d="M14.8495639,19.4592368 L15.6868407,19.4592368 C15.6868407,19.4592368 15.9394903,19.429601 16.0681483,19.2821278 C16.1874736,19.1459443 16.1834738,18.8912178 16.1834738,18.8912178 C16.1834738,18.8912178 16.1668083,17.6860297 16.6881064,17.5103319 C17.2020717,17.3374566 17.8613605,18.662599 18.5606466,19.1727577 C19.0892776,19.5580227 19.4912504,19.4592368 19.4912504,19.4592368 L21.3611241,19.460648 C21.3611241,19.460648 22.3390581,19.3816193 21.8750894,18.5652243 C21.837092,18.4988966 21.6051076,17.961219 20.4845167,16.8569337 C19.3125958,15.7018441 19.4699185,15.8888318 20.8818232,13.8898283 C21.7417651,12.6726448 22.0857418,11.9296336 21.9784158,11.6114019 C21.875756,11.307988 21.2477984,11.3602034 21.2477984,11.3602034 L19.1379409,11.3594978 C19.1379409,11.3594978 18.9819515,11.3439743 18.8666259,11.4166525 C18.7533003,11.4886251 18.6806385,11.6756127 18.6806385,11.6756127 C18.6806385,11.6756127 18.3473277,12.6345416 17.9033577,13.4361187 C16.965421,15.1260634 16.5907796,15.2156763 16.4374567,15.1105399 C16.0814807,14.865692 16.1701414,14.1276201 16.1701414,13.6033492 C16.1701414,11.9656199 16.4041256,11.2825859 15.7148388,11.1054769 C15.4861876,11.0469109 15.3175323,11.0081022 14.7322385,11.0017517 C13.9809559,10.9939899 13.3449989,11.0045741 12.9856898,11.1915617 C12.745706,11.3164553 12.5610518,11.5937615 12.6737109,11.609285 C12.8130348,11.6290422 13.1276802,11.6996036 13.2950022,11.941629 C13.5109877,12.2528047 13.5029882,12.9527734 13.5029882,12.9527734 C13.5029882,12.9527734 13.6269798,14.8812155 13.2136744,15.1204185 C12.9296936,15.2848265 12.5410532,14.94966 11.7051096,13.4156559 C11.2771385,12.630308 10.953827,11.7454684 10.953827,11.7454684 C10.953827,11.7454684 10.8911646,11.5831773 10.7798388,11.4963868 C10.6451812,11.3912504 10.4565273,11.3580866 10.4565273,11.3580866 L8.45666237,11.3587922 C8.45666237,11.3587922 8.15601601,11.3679651 8.04602344,11.5062654 C7.94736343,11.6297478 8.03802398,11.8851799 8.03802398,11.8851799 C8.03802398,11.8851799 9.60391822,15.8055693 11.3771318,17.7657641 C13.0036886,19.5636676 14.8495639,19.4592368 14.8495639,19.4592368 L14.8495639,19.4592368 Z"></path>
            </g>
        </g>
    </g>
</svg>