<?xml version="1.0" encoding="UTF-8" standalone="no"?>
<svg width="30px" height="30px" viewBox="0 0 30 30" version="1.1" xmlns="http://www.w3.org/2000/svg" xmlns:xlink="http://www.w3.org/1999/xlink">
    <!-- Generator: Sketch 39.1 (31720) - http://www.bohemiancoding.com/sketch -->
    <title>youtube</title>
    <desc>Created with Sketch.</desc>
    <defs></defs>
    <g id="Page-1" stroke="none" stroke-width="1" fill-rule="evenodd">
        <g id="SM-hovers" transform="translate(-200.000000, 0.000000)">
            <g id="youtube" transform="translate(200.000000, 0.000000)">
                <path d="M13.5516712,17.064698 L13.5510274,12.9459765 L17.3318493,15.0125127 L13.5516712,17.064698 L13.5516712,17.064698 Z M21.8527397,12.2324618 C21.8527397,12.2324618 21.7160274,11.2223131 21.2964658,10.7774768 C20.7643836,10.1936373 20.1679726,10.1907384 19.8944658,10.1565688 C17.9364247,10.0082805 14.9992603,10.0082805 14.9992603,10.0082805 L14.9931781,10.0082805 C14.9931781,10.0082805 12.0560822,10.0082805 10.0979726,10.1565688 C9.82445205,10.1907384 9.22826027,10.1936373 8.6959863,10.7774768 C8.27645205,11.2223131 8.13993151,12.2324618 8.13993151,12.2324618 C8.13993151,12.2324618 8,13.418711 8,14.6049459 L8,15.7170437 C8,16.9032642 8.13993151,18.089499 8.13993151,18.089499 C8.13993151,18.089499 8.27645205,19.0996621 8.6959863,19.5444984 C9.22826027,20.1283523 9.92743836,20.1098826 10.2388493,20.171075 C11.3582603,20.283529 14.9962329,20.3183301 14.9962329,20.3183301 C14.9962329,20.3183301 17.9364247,20.3136947 19.8944658,20.1654207 C20.1679726,20.1312368 20.7643836,20.1283523 21.2964658,19.5444984 C21.7160274,19.0996621 21.8527397,18.089499 21.8527397,18.089499 C21.8527397,18.089499 21.9924658,16.9032642 21.9924658,15.7170437 L21.9924658,14.6049459 C21.9924658,13.418711 21.8527397,12.2324618 21.8527397,12.2324618 L21.8527397,12.2324618 Z" id="Fill-3"></path>
            </g>
        </g>
    </g>
</svg>