<?xml version="1.0" encoding="UTF-8"?>
<svg width="250px" height="34px" viewBox="0 0 250 34" version="1.1" xmlns="http://www.w3.org/2000/svg" xmlns:xlink="http://www.w3.org/1999/xlink">
    <!-- Generator: Sketch 43.2 (39069) - http://www.bohemiancoding.com/sketch -->
    <title>Доктор</title>
    <desc>Created with Sketch.</desc>
    <defs></defs>
    <g id="Symbols" stroke="none" stroke-width="1" fill="none" fill-rule="evenodd">
        <g id="ОБВЕС-2" transform="translate(-221.000000, -318.000000)" fill="#000">
            <g id="NAVIGATION" transform="translate(203.000000, 290.000000)">
                <g id="Доктор" transform="translate(17.000000, 27.000000)">
                    <path d="M153.925054,1 L141.51963,35 L146.594576,35 L159,1 L153.925054,1 M134.864235,17.66 C134.864235,20.6066667 133.172767,23.1 129.902595,23.1 C126.632424,23.1 124.828191,20.38 124.828191,17.66 C124.828191,14.94 126.632424,12.22 129.902595,12.22 C133.060003,12.22 134.864235,14.6 134.864235,17.66 M130.466418,8.36666667 C127.309011,8.36666667 125.504778,10.0666667 124.940956,10.7466667 L124.940956,8.82 L120.204845,8.82 L120.204845,35 L125.05372,35 L125.05372,24.8 C125.617543,25.3666667 127.53454,26.9533333 130.466418,26.9533333 C134.977,26.9533333 139.149288,23.5533333 139.149288,17.66 C139.262052,11.4266667 134.638706,8.36666667 130.466418,8.36666667 M104.528903,15.7333333 C104.64168,14.4866667 105.882222,12.1066667 108.814414,12.1066667 C112.084935,12.1066667 112.648818,14.7133333 112.761594,15.7333333 L104.528903,15.7333333 M108.92719,8.36666667 C103.401138,8.36666667 99.6795103,12.4466667 99.6795103,17.66 C99.6795103,22.8733333 103.401138,26.9533333 109.039967,26.9533333 C114.678796,26.9533333 117.047104,22.9866667 117.047104,22.9866667 L113.438254,20.6066667 C113.438254,20.6066667 112.197711,23.1 109.039967,23.1 C105.769446,23.1 104.416127,20.2666667 104.416127,19.2466667 L117.385434,19.2466667 C117.385434,19.2466667 117.498211,18.4533333 117.498211,18.2266667 L117.498211,17.66 C117.498211,12.3333333 114.340466,8.36666667 108.92719,8.36666667 M94.1534543,26.5 L99.3411771,26.5 L92.9129119,8.82 L87.8379657,8.82 L81.2969238,26.5 L86.5974232,26.5 L90.3190505,15.28 L90.4318271,15.28 L94.1534543,26.5 M76.221981,18.1133333 C76.221981,20.1533333 75.0942152,23.1 71.8236943,23.1 C68.5531734,23.1 67.1998544,20.4933333 67.1998544,18 C67.1998544,15.5066667 68.5531734,13.24 71.8236943,13.24 C75.0942152,13.24 76.221981,16.0733333 76.221981,18.1133333 M72.2748006,8.82 C69.9064924,8.82 68.2148436,9.95333333 67.7637373,10.2933333 C67.8765139,9.72666667 68.4403968,4.96666667 74.7558854,4.96666667 L78.7030659,4.96666667 L80.1691614,1 L74.868662,1 C67.8765139,1 62.4632379,4.28666667 62.4632379,15.7333333 C62.4632379,21.9666667 65.1698759,27.0666667 71.7109177,27.0666667 C77.9136298,27.0666667 81.0713741,22.5333333 81.0713741,18 C81.0713741,11.4266667 76.221981,8.82 72.2748006,8.82 M49.155601,16.3 L43.0656655,8.93333333 L42.952889,8.82 L38.7801554,8.82 L38.7801554,26.5 L43.6295485,26.5 L43.6295485,16.1866667 L48.366165,22.1933333 L48.4789415,22.42 L49.719484,22.42 L54.568877,16.1866667 L54.568877,26.5 L59.4182701,26.5 L59.4182701,8.82 L55.2455365,8.82 L49.155601,16.3 M30.2091316,19.1333333 C30.2091316,21.5133333 28.8558126,23.2133333 26.2619512,23.2133333 C23.7808664,23.2133333 23.5553132,21.74 23.5553132,21.1733333 C23.5553132,19.8133333 24.683079,19.02 27.5024936,18.68 C28.2919297,18.5666667 29.0813658,18.5666667 29.8708019,18.5666667 L30.2091316,18.5666667 L30.2091316,19.1333333 M34.7201949,22.5333333 L34.7201949,17.2066667 L34.7201949,16.1866667 C34.4946418,10.6333333 32.1263335,8.36666667 27.1641639,8.36666667 C23.7808664,8.36666667 21.5253347,9.72666667 20.7358986,10.2933333 L22.0892176,13.92 C22.0892176,13.92 24.1191961,12.1066667 26.7130575,12.1066667 C30.4346848,12.1066667 29.9835785,15.1666667 29.9835785,15.1666667 C28.743036,15.1666667 18.7059201,14.6 18.7059201,21.1733333 C18.7059201,24.8 21.7508879,26.84 25.0214088,26.84 C27.9536,26.84 29.6452487,25.3666667 30.096355,24.8 C30.096355,24.9133333 30.2091316,26.5 30.2091316,26.5 L34.7201949,26.5 C34.9457481,26.5 34.7201949,25.0266667 34.7201949,22.5333333 M13.179871,9.27333333 C13.179871,12.22 10.3604564,13.24 8.44325449,13.24 L5.96216966,13.24 L5.96216966,5.19333333 L8.44325449,5.19333333 C10.3604564,5.30666667 13.179871,6.32666667 13.179871,9.27333333 M8.89436083,1 L1,1 L1,26.6133333 L6.07494625,26.6133333 L6.07494625,17.5466667 L8.78158424,17.5466667 C13.9693071,17.5466667 18.2548172,14.8266667 18.2548172,9.27333333 C18.2548172,3.83333333 13.9693071,1 8.89436083,1" id="rambler"></path>
                    <path d="M164,27 L164,21.5154994 L165.701509,21.5154994 C166.282023,20.8128588 166.902574,18.5292767 167.20284,12.8105626 L167.342964,10.2342135 L176.45104,10.2342135 L176.45104,21.5154994 L178.112514,21.5154994 L178.112514,27 L175.350064,27 L175.350064,24.130884 L166.762449,24.130884 L166.762449,27 L164,27 Z M168.704171,21.5154994 L173.688591,21.5154994 L173.688591,12.8495982 L169.885218,12.8495982 L169.845183,13.4741676 C169.60497,18.0022962 169.164579,20.3639495 168.704171,21.5154994 Z M188.10995,10 C190.131742,10 191.833251,10.7026406 193.234494,12.0884041 C194.635736,13.4741676 195.336357,15.1722158 195.336357,17.1825488 C195.336357,19.1928817 194.635736,20.89093 193.234494,22.2766935 C191.833251,23.6624569 190.131742,24.3455798 188.10995,24.3455798 C186.108175,24.3455798 184.406666,23.6429392 183.005424,22.2571757 C181.604181,20.8714122 180.90356,19.1733639 180.90356,17.1825488 C180.90356,15.1917336 181.604181,13.4936854 183.005424,12.1079219 C184.406666,10.7026406 186.108175,10 188.10995,10 Z M188.10995,12.6349024 C186.828814,12.6349024 185.767873,13.0838117 184.927128,13.9621125 C184.1064,14.8404133 183.686027,15.9138921 183.686027,17.1825488 C183.686027,18.4512055 184.1064,19.5246843 184.927128,20.4029851 C185.747855,21.2812859 186.808796,21.7106774 188.10995,21.7106774 C189.411103,21.7106774 190.472044,21.2812859 191.292772,20.4029851 C192.1135,19.5246843 192.533872,18.4512055 192.533872,17.1825488 C192.533872,15.9138921 192.1135,14.8404133 191.292772,13.9621125 C190.472044,13.0838117 189.411103,12.6349024 188.10995,12.6349024 Z M201.790652,19.6027555 C201.790652,19.1148106 201.770634,18.5292767 201.750616,18.1974742 L201.850705,18.1974742 C202.211025,18.7439724 202.511291,19.1538462 202.771522,19.4270953 L206.594912,24.130884 L210.158071,24.130884 L204.132729,16.8117107 L209.877823,10.2342135 L206.374716,10.2342135 L202.771522,14.4500574 C202.511291,14.7233065 202.211025,15.1331803 201.850705,15.6796785 L201.750616,15.6796785 C201.770634,15.347876 201.790652,14.9184845 201.790652,14.4305396 L201.790652,10.2342135 L199.068238,10.2342135 L199.068238,24.130884 L201.790652,24.130884 L201.790652,19.6027555 Z M221.496697,12.8495982 L221.496697,10.2342135 L212.168425,10.2342135 L212.168425,12.8495982 L215.451336,12.8495982 L215.451336,24.130884 L218.213786,24.130884 L218.213786,12.8495982 L221.496697,12.8495982 Z M230.573316,10 C232.595109,10 234.296618,10.7026406 235.69786,12.0884041 C237.099103,13.4741676 237.799724,15.1722158 237.799724,17.1825488 C237.799724,19.1928817 237.099103,20.89093 235.69786,22.2766935 C234.296618,23.6624569 232.595109,24.3455798 230.573316,24.3455798 C228.571541,24.3455798 226.870033,23.6429392 225.46879,22.2571757 C224.067548,20.8714122 223.366926,19.1733639 223.366926,17.1825488 C223.366926,15.1917336 224.067548,13.4936854 225.46879,12.1079219 C226.870033,10.7026406 228.571541,10 230.573316,10 Z M230.573316,12.6349024 C229.29218,12.6349024 228.23124,13.0838117 227.390494,13.9621125 C226.569766,14.8404133 226.149394,15.9138921 226.149394,17.1825488 C226.149394,18.4512055 226.569766,19.5246843 227.390494,20.4029851 C228.211222,21.2812859 229.272163,21.7106774 230.573316,21.7106774 C231.87447,21.7106774 232.935411,21.2812859 233.756138,20.4029851 C234.576866,19.5246843 234.997239,18.4512055 234.997239,17.1825488 C234.997239,15.9138921 234.576866,14.8404133 233.756138,13.9621125 C232.935411,13.0838117 231.87447,12.6349024 230.573316,12.6349024 Z M245.655261,12.8300804 L244.254018,12.8300804 L244.254018,16.9092997 L245.675279,16.9092997 C247.216645,16.9092997 248.217533,16.0895522 248.217533,14.8404133 C248.217533,13.6107922 247.17661,12.8300804 245.655261,12.8300804 Z M241.531604,24.130884 L241.531604,10.2342135 L245.695296,10.2342135 C247.35677,10.2342135 248.657923,10.6636051 249.598758,11.5419059 C250.539592,12.4202067 251,13.5132032 251,14.8404133 C251,16.3823192 250.479539,17.5533869 249.438616,18.3536165 C248.41771,19.1343284 247.096539,19.5246843 245.495119,19.5246843 L244.254018,19.5246843 L244.254018,24.130884 L241.531604,24.130884 Z" id="ДОКТОР"></path>
                </g>
            </g>
        </g>
    </g>
</svg>